<svg width="24" height="25" viewBox="0 0 24 25" fill="none" xmlns="http://www.w3.org/2000/svg">
<path d="M3.00996 12.9455C3.00996 11.0818 3.01994 9.2181 2.99998 7.35441C2.99998 6.78935 3.21947 6.38291 3.65843 6.05577C5.55397 4.63817 7.42956 3.21066 9.31512 1.77324C9.55456 1.5948 9.794 1.37671 10.1132 1.58489C10.4125 1.78315 10.3327 2.08055 10.2729 2.34821C9.92369 3.99381 9.55456 5.6295 9.1954 7.26519C8.79634 9.09914 8.37733 10.9331 8.01817 12.777C7.88848 13.4808 8.2177 14.1648 8.36735 14.8587C8.9859 17.7732 9.63437 20.6877 10.2629 23.5923C10.3228 23.8699 10.4325 24.197 10.1033 24.4052C9.78402 24.6134 9.54458 24.3953 9.30515 24.2169C7.40961 22.7794 5.51407 21.342 3.60855 19.9145C3.19951 19.6072 2.99001 19.2206 2.99001 18.6853C3.01994 16.772 3.00996 14.8587 3.00996 12.9455Z" fill="#65C8A1"/>
<path d="M20 12.995C20 14.5117 20 16.0284 20 17.5452C20 18.1796 19.6608 18.368 19.0921 18.0507C16.2787 16.4448 13.4753 14.8388 10.6619 13.2428C10.3726 13.0743 10.193 13.0148 10.632 12.767C13.166 11.3395 15.6801 9.89213 18.2042 8.4448C18.5234 8.26636 18.8227 8.06809 19.142 7.89957C19.6408 7.63191 20 7.83018 20 8.39523C20 9.93179 20 11.4683 20 12.995Z" fill="#65C8A1"/>
<path d="M9.82393 14.4918C10.5522 14.8983 11.1907 15.2452 11.8292 15.612C14.0141 16.8512 16.1889 18.1003 18.3738 19.3493C19.162 19.7954 19.1919 20.0532 18.4736 20.5885C16.6479 21.9763 14.8122 23.3642 12.9865 24.7521C12.4278 25.1783 12.0886 25.0494 11.9389 24.3654C11.48 22.3134 11.0411 20.2613 10.5821 18.1994C10.3128 17.0098 10.0434 15.8103 9.82393 14.4918Z" fill="#65C8A1"/>
<path d="M9.82393 11.4486C10.0235 10.5069 10.203 9.62459 10.3926 8.74231C10.8914 6.41269 11.4102 4.09299 11.899 1.76337C12.0786 0.930657 12.3879 0.781958 13.0663 1.29745C14.9119 2.6853 16.7576 4.08307 18.5933 5.49076C19.1021 5.87737 19.0821 6.22434 18.5234 6.55147C15.7001 8.15742 12.8767 9.77328 10.0534 11.3891C10.0135 11.409 9.9636 11.409 9.82393 11.4486Z" fill="#65C8A1"/>
</svg>
