<svg width="24" height="24" viewBox="0 0 24 24" fill="none" xmlns="http://www.w3.org/2000/svg">
<path d="M2.04566 0C3.39269 1.53816 4.73973 3.07631 6.08676 4.6224C7.25114 5.96234 8.41552 7.30228 9.57991 8.64222C9.95282 9.07829 9.96043 9.60951 9.60274 10.0614C9.25266 10.5055 8.77321 10.6878 8.2481 10.783C7.32725 10.9495 7.2207 11.1239 7.09893 12.0912C7.01522 12.7255 6.80974 13.336 6.6347 13.9544C6.5586 14.2161 6.414 14.4618 6.31507 14.7156C6.00304 15.5481 6.15525 16.1903 6.80974 16.7691C7.09893 17.0228 7.42618 17.2369 7.70776 17.4985C8.33942 18.0694 8.37747 18.9019 7.79148 19.5124C7.02283 20.3211 6.02588 20.5986 4.96804 20.8365C4.58752 20.0515 4.14612 19.2983 3.85693 18.4975C3.49163 17.4668 3.65145 16.4678 4.35921 15.6036C4.53425 15.3895 4.68645 15.1596 4.85388 14.9534C5.6758 13.9623 6.1172 12.8206 6.27702 11.5203C6.33029 11.1001 6.58904 10.6957 6.80974 10.3231C6.96956 10.0456 7.05327 9.83152 6.88584 9.53023C6.27702 8.37265 5.66819 7.21506 5.05936 6.05748C5.02131 5.9782 4.97565 5.89891 4.99848 5.77998C5.32572 6.3112 5.66058 6.84242 5.98782 7.36571C6.42922 8.06343 6.8554 8.76115 7.31202 9.44301C7.70015 10.0377 8.33942 10.1328 8.90259 9.71259C9.19178 9.49851 9.21461 9.2448 8.94825 8.90386C8.34703 8.11893 7.7382 7.34192 7.12938 6.56492C5.41705 4.4004 3.70472 2.22002 2 0.0396432C2.01522 0.0237859 2.03044 0.0158573 2.04566 0ZM5.3105 17.7126C5.32572 17.2686 5.04414 16.9832 4.76256 17.0545C4.67884 17.0783 4.55708 17.1893 4.55708 17.2686C4.54186 17.4589 4.5723 17.6492 4.60274 17.8394C4.64079 18.1011 4.83866 18.1724 5.02131 18.0614C5.16591 17.9822 5.25723 17.7919 5.3105 17.7126Z" fill="#EA347A"/>
<path d="M14.6027 9.96632C15.6606 10.8147 16.9087 10.7988 18.0959 11.0288C18.9711 11.2032 19.8158 11.441 20.5692 11.9802C22.2816 13.2012 22.2816 15.6036 21.5358 16.7929C21.3303 15.3419 20.2648 14.8266 19.1994 14.3191C18.309 13.8989 17.3957 13.5342 16.5282 13.0664C16.0487 12.8127 15.5997 12.4638 15.2116 12.0753C14.6636 11.5283 14.5114 10.8068 14.6027 9.96632Z" fill="#EA347A"/>
<path d="M19.4658 8.74537C20.0366 9.42723 20.4856 10.2042 20.653 11.1715C19.9452 10.1329 18.8722 10.1963 17.8524 10.1012C17.3882 10.0615 16.9163 10.0298 16.4521 9.95845C15.2953 9.7761 14.3592 9.1973 13.6439 8.23794C13.2405 7.69879 12.8296 7.15964 12.4186 6.6205C11.6271 5.58977 10.691 4.75727 9.39729 4.49562C10.4627 4.47976 11.3531 4.93169 12.1294 5.64527C12.3273 5.82763 12.548 6.00999 12.6926 6.23199C12.9361 6.6205 13.2557 6.63635 13.6439 6.57292C15.1431 6.35092 16.5662 6.61257 17.9057 7.38165C18.2177 7.564 18.4156 7.78601 18.3851 8.15072C18.3471 8.5868 18.2557 9.02287 18.2253 9.46688C18.2177 9.64924 18.2633 9.89503 18.3775 9.9981C18.4612 10.0695 18.7885 10.0219 18.857 9.91088C19.0853 9.55409 19.2527 9.15766 19.4658 8.74537Z" fill="#EA347A"/>
<path d="M19.1309 22.1288C19.7702 20.8761 19.4277 19.8058 18.796 18.783C18.4079 18.1487 18.0046 17.5223 17.624 16.888C17.2207 16.2141 16.9467 15.5005 17.0228 14.6839C17.038 14.5015 17.0913 14.3271 17.137 14.0733C18.4307 14.9614 19.9528 15.4054 20.7976 16.8246C21.8326 18.5768 21.0182 21.2884 19.1309 22.1288Z" fill="#EA347A"/>
<path d="M11.4292 20.9712C11.8554 20.5114 12.3881 20.5193 12.7458 20.8999C13.0807 21.2567 13.0274 22.002 12.6393 22.3746C12.2359 22.7631 11.5586 22.7948 11.0487 22.4539C10.9117 22.3588 10.7747 22.2557 10.6682 22.1288C9.92239 21.2487 9.06242 20.5907 7.83715 20.5669C7.88282 20.4717 7.89043 20.4162 7.92087 20.3925C9.09286 19.3776 10.379 18.6799 11.9544 18.7274C13.5677 18.7829 14.5723 19.7264 14.8006 21.3915C14.8539 21.8117 14.9148 22.2319 15.0289 22.6283C15.2953 23.5163 15.8356 23.8335 16.726 23.667C16.8706 23.6432 17.0152 23.6035 17.2055 23.5639C16.2085 24.333 15.067 24.0555 14.4658 22.9296C14.2527 22.5253 14.0853 22.0971 13.895 21.6769C13.6362 21.114 13.309 20.6303 12.7534 20.3449C12.1751 20.0515 11.5053 20.1387 11.1324 20.5589C10.8661 20.8682 10.8128 21.328 11.0031 21.7007C11.1857 22.0495 11.7184 22.335 12.0609 22.2636C12.3881 22.1922 12.6165 21.994 12.6926 21.6531C12.7534 21.3756 12.7382 21.0981 12.4795 20.9078C12.1827 20.6937 11.9163 20.6858 11.4292 20.9712Z" fill="#EA347A"/>
<path d="M11.4977 9.20512C11.2314 9.12583 10.9498 9.10205 10.7291 8.97519C9.70932 8.40433 9.26031 7.41325 9.03961 6.29531C8.9635 5.91473 8.97111 5.5183 8.94067 5.0743C9.66365 5.1853 10.204 5.43901 10.4856 6.08916C10.6226 6.39838 10.6834 6.73931 10.79 7.06439C11.0107 7.73832 11.239 8.41226 11.4977 9.20512Z" fill="#EA347A"/>
<path d="M16.0791 13.6294C17.0076 14.8901 16.5738 16.5709 15.1887 17.1735C14.7777 17.3559 14.3135 17.4431 13.8645 17.4986C12.9893 17.6096 12.1065 17.673 11.1933 17.7127C11.6575 17.5462 12.1141 17.3559 12.586 17.229C13.1035 17.0942 13.6286 17.0229 14.1537 16.9198C15.7823 16.5868 16.4672 15.4847 16.0943 13.8038C16.0943 13.7721 16.0943 13.7325 16.0791 13.6294Z" fill="#EA347A"/>
<path d="M10.3181 12.7097C9.85389 12.6859 9.67124 12.5511 9.63319 12.1864C9.57992 11.671 9.87672 11.1239 10.2953 11.0446C10.5236 11.005 10.7747 11.0209 11.0031 11.0843C11.3455 11.1794 11.6195 11.5917 11.6043 11.9089C11.5891 12.2974 11.2999 12.4322 11.0107 12.5432C10.7976 12.6224 10.554 12.6542 10.3181 12.7097ZM10.7215 11.0288C10.4094 11.1239 10.1203 11.1794 10.1431 11.4807C10.1583 11.6234 10.4323 11.8058 10.6149 11.8534C10.8965 11.9247 11.2314 11.6551 11.1477 11.4728C11.0715 11.2904 10.8661 11.1715 10.7215 11.0288Z" fill="#EA347A"/>
<path d="M17.3805 6.26365C17.6393 6.3588 17.9057 6.44601 18.1568 6.55701C18.4232 6.67594 18.5601 6.62044 18.5678 6.29537C18.5754 5.99408 18.621 5.70072 18.7123 5.3915C18.5297 6.53323 19.1918 7.24681 19.9148 7.92074C19.892 7.94453 19.8691 7.96831 19.8463 7.9921C19.6256 7.83353 19.4049 7.66702 19.0853 7.43709C19.0092 8.0476 18.9483 8.56296 18.8874 9.07832C18.8493 9.08625 18.8189 9.09418 18.7808 9.10211C18.9863 7.78595 18.6819 6.76316 17.3044 6.3588C17.3197 6.31915 17.3501 6.28744 17.3805 6.26365Z" fill="#EA347A"/>
</svg>
