<svg width="288" height="234" viewBox="0 0 288 234" fill="none" xmlns="http://www.w3.org/2000/svg">
<path d="M38.96 168.755H30V163.475H54.4V168.755H45.44V191.475H38.96V168.755Z" fill="#3375BB"/>
<path d="M60.5378 172.795C61.2845 171.755 62.2845 170.968 63.5378 170.435C64.8178 169.901 66.2845 169.635 67.9378 169.635V175.395C67.2445 175.341 66.7778 175.315 66.5378 175.315C64.7511 175.315 63.3511 175.821 62.3378 176.835C61.3245 177.821 60.8178 179.315 60.8178 181.315V191.475H54.5778V169.955H60.5378V172.795Z" fill="#3375BB"/>
<path d="M91.0844 169.955V191.475H85.1644V188.915C84.3377 189.848 83.351 190.568 82.2044 191.075C81.0577 191.555 79.8177 191.795 78.4844 191.795C75.6577 191.795 73.4177 190.981 71.7644 189.355C70.111 187.728 69.2844 185.315 69.2844 182.115V169.955H75.5244V181.195C75.5244 184.661 76.9777 186.395 79.8844 186.395C81.3777 186.395 82.5777 185.915 83.4844 184.955C84.391 183.968 84.8444 182.515 84.8444 180.595V169.955H91.0844Z" fill="#3375BB"/>
<path d="M101.705 191.795C99.9186 191.795 98.172 191.581 96.4653 191.155C94.7586 190.701 93.3986 190.141 92.3853 189.475L94.4653 184.995C95.4253 185.608 96.5853 186.115 97.9453 186.515C99.3053 186.888 100.639 187.075 101.945 187.075C104.585 187.075 105.905 186.421 105.905 185.115C105.905 184.501 105.545 184.061 104.825 183.795C104.105 183.528 102.999 183.301 101.505 183.115C99.7453 182.848 98.292 182.541 97.1453 182.195C95.9986 181.848 94.9986 181.235 94.1453 180.355C93.3186 179.475 92.9053 178.221 92.9053 176.595C92.9053 175.235 93.292 174.035 94.0653 172.995C94.8653 171.928 96.012 171.101 97.5053 170.515C99.0253 169.928 100.812 169.635 102.865 169.635C104.385 169.635 105.892 169.808 107.385 170.155C108.905 170.475 110.159 170.928 111.145 171.515L109.065 175.955C107.172 174.888 105.105 174.355 102.865 174.355C101.532 174.355 100.532 174.541 99.8653 174.915C99.1986 175.288 98.8653 175.768 98.8653 176.355C98.8653 177.021 99.2253 177.488 99.9453 177.755C100.665 178.021 101.812 178.275 103.385 178.515C105.145 178.808 106.585 179.128 107.705 179.475C108.825 179.795 109.799 180.395 110.625 181.275C111.452 182.155 111.865 183.381 111.865 184.955C111.865 186.288 111.465 187.475 110.665 188.515C109.865 189.555 108.692 190.368 107.145 190.955C105.625 191.515 103.812 191.795 101.705 191.795Z" fill="#3375BB"/>
<path d="M127.195 190.435C126.582 190.888 125.822 191.235 124.915 191.475C124.035 191.688 123.102 191.795 122.115 191.795C119.555 191.795 117.569 191.141 116.155 189.835C114.769 188.528 114.075 186.608 114.075 184.075V175.235H110.755V170.435H114.075V165.195H120.315V170.435H125.675V175.235H120.315V183.995C120.315 184.901 120.542 185.608 120.995 186.115C121.475 186.595 122.142 186.835 122.995 186.835C123.982 186.835 124.822 186.568 125.515 186.035L127.195 190.435Z" fill="#3375BB"/>
<path d="M179.986 163.475L170.826 191.475H163.866L157.706 172.515L151.346 191.475H144.426L135.226 163.475H141.946L148.266 183.155L154.866 163.475H160.866L167.266 183.315L173.786 163.475H179.986Z" fill="#3375BB"/>
<path d="M187.842 169.635C191.176 169.635 193.736 170.435 195.522 172.035C197.309 173.608 198.202 175.995 198.202 179.195V191.475H192.362V188.795C191.189 190.795 189.002 191.795 185.802 191.795C184.149 191.795 182.709 191.515 181.482 190.955C180.282 190.395 179.362 189.621 178.722 188.635C178.082 187.648 177.762 186.528 177.762 185.275C177.762 183.275 178.509 181.701 180.002 180.555C181.522 179.408 183.856 178.835 187.002 178.835H191.962C191.962 177.475 191.549 176.435 190.722 175.715C189.896 174.968 188.656 174.595 187.002 174.595C185.856 174.595 184.722 174.781 183.602 175.155C182.509 175.501 181.576 175.981 180.802 176.595L178.562 172.235C179.736 171.408 181.136 170.768 182.762 170.315C184.416 169.861 186.109 169.635 187.842 169.635ZM187.362 187.595C188.429 187.595 189.376 187.355 190.202 186.875C191.029 186.368 191.616 185.635 191.962 184.675V182.475H187.682C185.122 182.475 183.842 183.315 183.842 184.995C183.842 185.795 184.149 186.435 184.762 186.915C185.402 187.368 186.269 187.595 187.362 187.595Z" fill="#3375BB"/>
<path d="M201.45 161.795H207.69V191.475H201.45V161.795Z" fill="#3375BB"/>
<path d="M211.081 161.795H217.321V191.475H211.081V161.795Z" fill="#3375BB"/>
<path d="M241.792 180.795C241.792 180.875 241.752 181.435 241.672 182.475H225.392C225.686 183.808 226.379 184.861 227.472 185.635C228.566 186.408 229.926 186.795 231.552 186.795C232.672 186.795 233.659 186.635 234.512 186.315C235.392 185.968 236.206 185.435 236.952 184.715L240.272 188.315C238.246 190.635 235.286 191.795 231.392 191.795C228.966 191.795 226.819 191.328 224.952 190.395C223.086 189.435 221.646 188.115 220.632 186.435C219.619 184.755 219.112 182.848 219.112 180.715C219.112 178.608 219.606 176.715 220.592 175.035C221.606 173.328 222.979 172.008 224.712 171.075C226.472 170.115 228.432 169.635 230.592 169.635C232.699 169.635 234.606 170.088 236.312 170.995C238.019 171.901 239.352 173.208 240.312 174.915C241.299 176.595 241.792 178.555 241.792 180.795ZM230.632 174.355C229.219 174.355 228.032 174.755 227.072 175.555C226.112 176.355 225.526 177.448 225.312 178.835H235.912C235.699 177.475 235.112 176.395 234.152 175.595C233.192 174.768 232.019 174.355 230.632 174.355Z" fill="#3375BB"/>
<path d="M257.427 190.435C256.813 190.888 256.053 191.235 255.147 191.475C254.267 191.688 253.333 191.795 252.347 191.795C249.787 191.795 247.8 191.141 246.387 189.835C245 188.528 244.307 186.608 244.307 184.075V175.235H240.987V170.435H244.307V165.195H250.547V170.435H255.907V175.235H250.547V183.995C250.547 184.901 250.773 185.608 251.227 186.115C251.707 186.595 252.373 186.835 253.227 186.835C254.213 186.835 255.053 186.568 255.747 186.035L257.427 190.435Z" fill="#3375BB"/>
<path d="M144.065 47.6619C158.44 59.6676 174.925 58.9272 179.635 58.9272C178.605 127.207 170.755 113.667 144.065 132.813C117.375 113.667 109.574 127.207 108.543 58.9272C113.204 58.9272 129.689 59.6676 144.065 47.6619Z" stroke="#3375BB" stroke-width="9" stroke-miterlimit="10" stroke-linecap="round" stroke-linejoin="round"/>
</svg>
