<svg width="24" height="24" viewBox="0 0 24 24" fill="none" xmlns="http://www.w3.org/2000/svg">
<path d="M8.5 10C8.10444 10 7.71776 10.1173 7.38886 10.3371C7.05996 10.5568 6.80362 10.8692 6.65224 11.2346C6.50087 11.6001 6.46126 12.0022 6.53843 12.3902C6.6156 12.7781 6.80608 13.1345 7.08579 13.4142C7.36549 13.6939 7.72186 13.8844 8.10982 13.9616C8.49778 14.0387 8.89992 13.9991 9.26537 13.8478C9.63082 13.6964 9.94318 13.44 10.1629 13.1111C10.3827 12.7822 10.5 12.3956 10.5 12C10.5 11.4696 10.2893 10.9609 9.91421 10.5858C9.53914 10.2107 9.03043 10 8.5 10ZM8.5 17C8.10444 17 7.71776 17.1173 7.38886 17.3371C7.05996 17.5568 6.80362 17.8692 6.65224 18.2346C6.50087 18.6001 6.46126 19.0022 6.53843 19.3902C6.6156 19.7781 6.80608 20.1345 7.08579 20.4142C7.36549 20.6939 7.72186 20.8844 8.10982 20.9616C8.49778 21.0387 8.89992 20.9991 9.26537 20.8478C9.63082 20.6964 9.94318 20.44 10.1629 20.1111C10.3827 19.7822 10.5 19.3956 10.5 19C10.5 18.4696 10.2893 17.9609 9.91421 17.5858C9.53914 17.2107 9.03043 17 8.5 17ZM15.5 7C15.8956 7 16.2822 6.8827 16.6111 6.66294C16.94 6.44318 17.1964 6.13082 17.3478 5.76537C17.4991 5.39992 17.5387 4.99778 17.4616 4.60982C17.3844 4.22186 17.1939 3.86549 16.9142 3.58579C16.6345 3.30608 16.2781 3.1156 15.8902 3.03843C15.5022 2.96126 15.1001 3.00087 14.7346 3.15224C14.3692 3.30362 14.0568 3.55996 13.8371 3.88886C13.6173 4.21776 13.5 4.60444 13.5 5C13.5 5.53043 13.7107 6.03914 14.0858 6.41421C14.4609 6.78929 14.9696 7 15.5 7ZM8.5 3C8.10444 3 7.71776 3.1173 7.38886 3.33706C7.05996 3.55682 6.80362 3.86918 6.65224 4.23463C6.50087 4.60009 6.46126 5.00222 6.53843 5.39018C6.6156 5.77814 6.80608 6.13451 7.08579 6.41421C7.36549 6.69392 7.72186 6.8844 8.10982 6.96157C8.49778 7.03874 8.89992 6.99914 9.26537 6.84776C9.63082 6.69638 9.94318 6.44004 10.1629 6.11114C10.3827 5.78224 10.5 5.39556 10.5 5C10.5 4.46957 10.2893 3.96086 9.91421 3.58579C9.53914 3.21071 9.03043 3 8.5 3ZM15.5 17C15.1044 17 14.7178 17.1173 14.3889 17.3371C14.06 17.5568 13.8036 17.8692 13.6522 18.2346C13.5009 18.6001 13.4613 19.0022 13.5384 19.3902C13.6156 19.7781 13.8061 20.1345 14.0858 20.4142C14.3655 20.6939 14.7219 20.8844 15.1098 20.9616C15.4978 21.0387 15.8999 20.9991 16.2654 20.8478C16.6308 20.6964 16.9432 20.44 17.1629 20.1111C17.3827 19.7822 17.5 19.3956 17.5 19C17.5 18.4696 17.2893 17.9609 16.9142 17.5858C16.5391 17.2107 16.0304 17 15.5 17ZM15.5 10C15.1044 10 14.7178 10.1173 14.3889 10.3371C14.06 10.5568 13.8036 10.8692 13.6522 11.2346C13.5009 11.6001 13.4613 12.0022 13.5384 12.3902C13.6156 12.7781 13.8061 13.1345 14.0858 13.4142C14.3655 13.6939 14.7219 13.8844 15.1098 13.9616C15.4978 14.0387 15.8999 13.9991 16.2654 13.8478C16.6308 13.6964 16.9432 13.44 17.1629 13.1111C17.3827 12.7822 17.5 12.3956 17.5 12C17.5 11.4696 17.2893 10.9609 16.9142 10.5858C16.5391 10.2107 16.0304 10 15.5 10Z" fill="currentColor"/>
</svg>
