<svg width="8" height="13" viewBox="0 0 8 13" fill="currentColor" xmlns="http://www.w3.org/2000/svg">
    <path d="M3 8.65341H4.625V8.54545C4.64773 7.23864 5.02273 6.65341 5.98864 6.05682C7.00568 5.44318 7.63068 4.57955 7.63068 3.30114C7.63068 1.45455 6.23295 0.204545 4.14773 0.204545C2.23295 0.204545 0.698864 1.32386 0.625 3.36932H2.35227C2.42045 2.16477 3.27841 1.63636 4.14773 1.63636C5.11364 1.63636 5.89773 2.27841 5.89773 3.28409C5.89773 4.13068 5.36932 4.72727 4.69318 5.14773C3.63636 5.79545 3.01136 6.4375 3 8.54545V8.65341ZM3.85795 12.108C4.47727 12.108 4.99432 11.6023 4.99432 10.9716C4.99432 10.3523 4.47727 9.84091 3.85795 9.84091C3.23295 9.84091 2.72159 10.3523 2.72159 10.9716C2.72159 11.6023 3.23295 12.108 3.85795 12.108Z" />
</svg>
