<svg width="40" height="40" viewBox="0 0 40 40" fill="currentColor" xmlns="http://www.w3.org/2000/svg">
    <path d="M13.5341 23.9643C13.4075 23.9643 13.2802 23.9264 13.17 23.847C12.8893 23.6456 12.8253 23.2551 13.0266 22.9747L17.787 16.349L15.7564 14.8909L10.8755 21.6851C10.6738 21.9659 10.2822 22.0299 10.0032 21.8285C9.72249 21.6272 9.65847 21.2367 9.85982 20.9563L15.1055 13.6543C15.3065 13.3735 15.6984 13.3095 15.9777 13.5108L19.0233 15.6984C19.1581 15.7954 19.2493 15.9413 19.2761 16.1047C19.3023 16.2685 19.2633 16.4362 19.1667 16.5703L14.0423 23.7036C13.9203 23.8738 13.7286 23.9643 13.5341 23.9643Z" />
    <path d="M8.12495 36.9458C3.64494 36.9458 0 33.3009 0 28.8209C0 24.3409 3.64494 20.6959 8.12495 20.6959C12.0049 20.6959 15.359 23.4558 16.0997 27.2584C16.1659 27.5971 15.9448 27.9254 15.6062 27.9912C15.2675 28.057 14.9388 27.8363 14.873 27.4977C14.2461 24.2804 11.408 21.9459 8.12495 21.9459C4.33409 21.9459 1.24991 25.03 1.24991 28.8209C1.24991 32.6117 4.33409 35.6959 8.12495 35.6959C10.9606 35.6959 13.4697 33.9929 14.5172 31.3572C14.6452 31.0364 15.0086 30.8805 15.329 31.0071C15.6502 31.1344 15.8061 31.4984 15.6791 31.8189C14.4417 34.9334 11.4763 36.9458 8.12495 36.9458Z" />
    <path d="M20 19.4457C19.0691 19.4457 18.1575 19.2894 17.2884 18.9818C16.963 18.8667 16.7927 18.5094 16.9079 18.1843C17.022 17.8589 17.38 17.6887 17.7058 17.8038C18.44 18.0638 19.2121 18.1958 20 18.1958C23.7908 18.1958 26.875 15.1116 26.875 11.3207C26.875 7.52988 23.7908 4.4457 20 4.4457C16.2091 4.4457 13.1249 7.52988 13.1249 11.3207C13.1249 12.7709 13.5705 14.1571 14.4142 15.3294C14.6162 15.6098 14.5518 16.0003 14.2718 16.2016C13.9918 16.403 13.6016 16.3397 13.3996 16.0597C12.4021 14.6735 11.875 13.0349 11.875 11.3207C11.875 6.84073 15.5199 3.19579 20 3.19579C24.48 3.19579 28.1249 6.84073 28.1249 11.3207C28.1249 15.8007 24.48 19.4457 20 19.4457Z" />
    <path d="M14.9999 11.9459C14.6544 11.9459 14.3748 11.6662 14.3748 11.3207C14.3748 8.21902 16.8982 5.69595 19.9999 5.69595C20.3454 5.69595 20.625 5.97526 20.625 6.32073C20.625 6.6662 20.3454 6.94587 19.9999 6.94587C17.5877 6.94587 15.625 8.90853 15.625 11.3207C15.625 11.6662 15.3454 11.9459 14.9999 11.9459Z" />
    <path d="M31.875 36.9458C27.3949 36.9458 23.75 33.3009 23.75 28.8209C23.75 26.9694 24.3891 25.1581 25.5499 23.72C25.7652 23.4515 26.1604 23.4089 26.429 23.626C26.6976 23.8427 26.7394 24.2361 26.5231 24.505C25.5406 25.722 24.9999 27.2548 24.9999 28.8209C24.9999 32.6117 28.0841 35.6959 31.875 35.6959C35.6658 35.6959 38.75 32.6117 38.75 28.8209C38.75 25.03 35.6658 21.9459 31.875 21.9459C31.2248 21.9459 30.5828 22.036 29.9656 22.2144C29.6337 22.3096 29.2875 22.1193 29.1917 21.7871C29.0962 21.4559 29.2875 21.109 29.619 21.0132C30.3482 20.8025 31.1078 20.6959 31.875 20.6959C36.355 20.6959 39.9999 24.3409 39.9999 28.8209C39.9999 33.3009 36.355 36.9458 31.875 36.9458Z" />
    <path d="M28.739 27.998C28.5445 27.998 28.3528 27.9075 28.2308 27.7373L21.8189 18.8127C21.703 18.651 21.6705 18.4436 21.7327 18.2544C21.7946 18.0645 21.9434 17.9161 22.1325 17.8542C23.2301 17.4962 24.2325 16.8539 25.03 15.9956C25.1574 15.8587 25.334 15.7914 25.5275 15.7972C25.7142 15.8086 25.8866 15.9041 25.9956 16.0564L32.292 24.8212C32.3886 24.9553 32.4276 25.1234 32.4011 25.2868C32.3743 25.4502 32.2834 25.5961 32.1486 25.6934L29.1031 27.8807C28.9929 27.9601 28.8652 27.998 28.739 27.998ZM23.3056 18.7397L28.8813 26.5009L30.9119 25.0425L25.4048 17.3768C24.7772 17.9376 24.0673 18.3985 23.3056 18.7397Z" />
    <path d="M24.8109 31.9459H11.8751C11.5297 31.9459 11.25 31.6662 11.25 31.3207V27.5706C11.25 27.2252 11.5297 26.9458 11.8751 26.9458H24.4876C24.671 26.9458 24.8455 27.027 24.9646 27.1669C25.0834 27.3071 25.1345 27.4927 25.1041 27.674C25.0344 28.0903 25.0004 28.4654 25.0004 28.8209C25.0004 29.5912 25.1345 30.3626 25.4002 31.1122C25.4678 31.3039 25.4385 31.516 25.3212 31.6816C25.2039 31.8475 25.0136 31.9459 24.8109 31.9459ZM12.5003 30.6959H23.974C23.8252 30.0769 23.7501 29.4492 23.7501 28.8209C23.7501 28.6174 23.7594 28.41 23.7777 28.1958H12.5003V30.6959Z" />
</svg>