<svg width="32" height="32" viewBox="0 0 32 32" fill="currentColor" xmlns="http://www.w3.org/2000/svg">
    <path d="M9.69463 25.6278L7.67055 22.2592C7.39422 21.799 6.79332 21.6486 6.33344 21.9266C6.10936 22.0609 5.95127 22.2736 5.8883 22.5245C5.82499 22.776 5.86485 23.0383 6.00017 23.2637L7.00334 24.9338L6.00017 25.5363L4.99667 23.8659C4.69991 23.3729 4.61349 22.7955 4.75283 22.2398C4.89183 21.6858 5.23917 21.2182 5.73087 20.9228C6.74342 20.3152 8.06478 20.6428 8.67439 21.6563L10.6985 25.0255L9.69463 25.6278Z" />
    <path d="M16.2147 30.5887C13.451 30.5887 12.2666 30.1503 11.8761 29.954L5.12725 29.0624L1.32191 27.0145C0.320422 26.4756 -0.0838591 25.2524 0.378703 24.2348L0.374683 24.2324L0.440333 24.1095L0.444352 24.1119C1.03419 23.1623 2.27551 22.8163 3.27834 23.3465L5.77503 24.6642L11.4584 24.5607L12.2884 24.0388C11.2112 23.4185 9.62592 22.3296 9.36533 21.1704C9.25982 20.7021 9.36533 20.2549 9.67047 19.8765C11.0491 18.1645 17.1679 21.2424 19.8827 22.7332L26.2627 22.7476L26.2597 23.9183L19.5799 23.9029L19.4486 23.8302C13.7997 20.7108 10.8572 20.2697 10.5819 20.612C10.5018 20.7108 10.481 20.7955 10.5075 20.9131C10.6823 21.6929 12.4857 22.8776 13.7099 23.4691L14.6612 23.9286L11.8058 25.726L5.49502 25.8409L2.73204 24.3825C2.27551 24.1407 1.71246 24.2961 1.44216 24.7251C1.23617 25.1864 1.42173 25.739 1.87659 25.9839L5.49334 27.9296L12.269 28.8256L12.3799 28.8976C12.3936 28.905 15.1087 30.3821 25.8923 28.2799L26.1164 29.4292C21.5708 30.3141 18.3992 30.5887 16.2147 30.5887Z" />
    <path d="M31.2445 32.0001H25.9794C25.6562 32.0001 25.3939 31.7382 25.3939 31.4147V21.4533C25.3939 21.1298 25.6562 20.8679 25.9794 20.8679H31.2445C31.5677 20.8679 31.8299 21.1298 31.8299 21.4533V31.4147C31.8299 31.7382 31.5677 32.0001 31.2445 32.0001ZM26.5649 30.8292H30.6593V22.0385H26.5649V30.8292Z" />
    <path d="M15.6015 18.3417H13.8396C13.5161 18.3417 13.2542 18.0801 13.2542 17.7565C13.2542 17.433 13.5161 17.1711 13.8396 17.1711H15.6015C20.0127 17.1711 23.6013 13.5824 23.6013 9.17085C23.6013 4.7596 20.0127 1.17064 15.6015 1.17064H14.2355C13.9123 1.17064 13.6504 0.909046 13.6504 0.585487C13.6504 0.261929 13.9123 0 14.2355 0H15.6015C20.6585 0 24.7723 4.11415 24.7723 9.17085C24.7723 14.2275 20.6585 18.3417 15.6015 18.3417Z" />
    <path d="M14.0403 18.3417C8.98357 18.3417 4.86975 14.2275 4.86975 9.17085C4.86975 4.11415 8.98357 0 14.0403 0C19.0973 0 23.2114 4.11415 23.2114 9.17085C23.2114 14.2275 19.0973 18.3417 14.0403 18.3417ZM14.0403 1.17064C9.62935 1.17064 6.04073 4.7596 6.04073 9.17085C6.04073 13.5824 9.62935 17.1711 14.0403 17.1711C18.4519 17.1711 22.0405 13.5824 22.0405 9.17085C22.0405 4.7596 18.4519 1.17064 14.0403 1.17064Z" />
    <path d="M12.3417 5.9359C12.3417 5.87427 12.3829 5.83374 12.4442 5.83374H15.0336C16.5077 5.83374 17.2034 6.57062 17.2034 7.68633C17.2034 8.4748 16.8353 8.92463 16.3952 9.1601V9.18053C16.8253 9.34465 17.3264 9.89732 17.3264 10.7471C17.3264 12.1284 16.4565 12.7939 14.9311 12.7939H12.4442C12.3829 12.7939 12.3417 12.7527 12.3417 12.6918V5.9359ZM15.0032 8.73003C15.6171 8.73003 15.9963 8.36192 15.9963 7.81931C15.9963 7.26664 15.6171 6.89787 15.0032 6.89787H13.6108C13.5703 6.89787 13.5495 6.91863 13.5495 6.95916V8.66873C13.5495 8.7096 13.5703 8.73003 13.6108 8.73003H15.0032ZM13.6108 11.7295H15.0645C15.74 11.7295 16.1185 11.3403 16.1185 10.7571C16.1185 10.1837 15.74 9.79449 15.0645 9.79449H13.6108C13.5703 9.79449 13.5495 9.81492 13.5495 9.85612V11.6678C13.5495 11.709 13.5703 11.7295 13.6108 11.7295Z" />
    <path d="M14.2355 6.82959C13.9123 6.82959 13.6504 6.56766 13.6504 6.2441V5.07346C13.6504 4.7499 13.9123 4.48798 14.2355 4.48798C14.5588 4.48798 14.821 4.7499 14.821 5.07346V6.2441C14.821 6.56766 14.5588 6.82959 14.2355 6.82959Z" />
    <path d="M14.2355 13.8537C13.9123 13.8537 13.6504 13.5918 13.6504 13.2682V12.6831C13.6504 12.3595 13.9123 12.0976 14.2355 12.0976C14.5588 12.0976 14.821 12.3595 14.821 12.6831V13.2682C14.821 13.5918 14.5588 13.8537 14.2355 13.8537Z" />
</svg>