<svg width="40" height="40" viewBox="0 0 40 40" fill="currentColor" xmlns="http://www.w3.org/2000/svg">
    <path d="M30.6656 7.33486C30.6655 7.33486 30.6654 7.33486 30.6653 7.33486C29.5613 7.3337 28.6667 6.43905 28.6655 5.3351C28.6655 4.96698 28.3671 4.66852 27.9989 4.66852C27.6308 4.66852 27.3324 4.96698 27.3324 5.3351C27.3312 6.43905 26.4366 7.3337 25.3326 7.33486C24.9645 7.33486 24.666 7.63333 24.666 8.00145C24.666 8.36957 24.9645 8.66803 25.3326 8.66803C26.4366 8.6692 27.3312 9.56384 27.3324 10.6678C27.3324 11.0359 27.6308 11.3344 27.9989 11.3344C28.3671 11.3344 28.6655 11.0359 28.6655 10.6678C28.6667 9.56384 29.5613 8.6692 30.6653 8.66803C31.0333 8.66812 31.3318 8.36982 31.3319 8.00178C31.3319 8.0017 31.3319 8.00153 31.3319 8.00145C31.332 7.63341 31.0337 7.33495 30.6656 7.33486ZM27.9989 8.67003C27.8087 8.41682 27.5837 8.19176 27.3304 8.00153C27.5837 7.8113 27.8087 7.58625 27.9989 7.33303C28.1892 7.58625 28.4142 7.8113 28.6674 8.00153C28.4142 8.19168 28.1892 8.41682 27.9989 8.67003Z" />
    <path d="M14.6673 7.33486C13.5633 7.3337 12.6687 6.43905 12.6675 5.3351C12.6675 4.96698 12.369 4.66852 12.0009 4.66852C11.6328 4.66852 11.3343 4.96698 11.3343 5.3351C11.3332 6.43905 10.4385 7.3337 9.33456 7.33486C8.96643 7.33486 8.66797 7.63333 8.66797 8.00145C8.66797 8.36957 8.96643 8.66803 9.33456 8.66803C10.4385 8.6692 11.3332 9.56384 11.3343 10.6678C11.3343 11.0359 11.6328 11.3344 12.0009 11.3344C12.369 11.3344 12.6675 11.0359 12.6675 10.6678C12.6687 9.56384 13.5633 8.6692 14.6673 8.66803C15.0354 8.66803 15.3338 8.36957 15.3338 8.00145C15.3338 7.63333 15.0354 7.33486 14.6673 7.33486ZM12.0009 8.67003C11.8107 8.41682 11.5856 8.19176 11.3324 8.00153C11.5856 7.8113 11.8107 7.58625 12.0009 7.33303C12.1911 7.58625 12.4162 7.8113 12.6694 8.00153C12.4162 8.19168 12.1911 8.41682 12.0009 8.67003Z" />
    <path d="M22.6663 2.66876C21.5623 2.6676 20.6677 1.77295 20.6665 0.669005C20.6666 0.300966 20.3683 0.00250186 20.0003 0.00241854C20.0002 0.00241854 20 0.00241854 19.9999 0.00241854C19.6319 0.00233521 19.3334 0.300632 19.3333 0.668671C19.3333 0.668755 19.3333 0.668921 19.3333 0.669005C19.3322 1.77295 18.4375 2.6676 17.3336 2.66876C16.9655 2.66876 16.667 2.96723 16.667 3.33535C16.667 3.70347 16.9655 4.00194 17.3336 4.00194C18.4375 4.0031 19.3322 4.89774 19.3333 6.00169C19.3333 6.36982 19.6318 6.66828 19.9999 6.66828C20.3681 6.66828 20.6665 6.36982 20.6665 6.00169C20.6677 4.89774 21.5623 4.0031 22.6663 4.00194C23.0344 4.00194 23.3329 3.70347 23.3329 3.33535C23.3329 2.96723 23.0344 2.66876 22.6663 2.66876ZM19.9999 4.00393C19.8097 3.75072 19.5846 3.52566 19.3314 3.33543C19.5846 3.14521 19.8097 2.92015 19.9999 2.66693C20.1902 2.92015 20.4152 3.14521 20.6684 3.33543C20.4152 3.52558 20.1902 3.75072 19.9999 4.00393Z" />
    <path d="M20 10.0012C14.1097 10.0012 9.33459 14.7763 9.33459 20.6666C9.33459 26.5569 14.1097 31.332 20 31.332C25.8875 31.3252 30.6586 26.5541 30.6653 20.6666C30.6653 14.7763 25.8903 10.0012 20 10.0012ZM20 29.9988C14.8459 29.9988 10.6678 25.8206 10.6678 20.6666C10.6678 15.5125 14.8459 11.3344 20 11.3344C25.154 11.3344 29.3322 15.5125 29.3322 20.6666C29.3263 25.8182 25.1516 29.9931 20 29.9988Z" />
    <path d="M13.3341 20H14.6673C14.6706 17.0563 17.0562 14.6706 19.9999 14.6673V13.3341C16.3202 13.3384 13.3383 16.3203 13.3341 20Z" />
    <path d="M39.9975 30.9968L39.9864 19.2198C39.9845 17.3845 38.8433 16.0005 37.3312 16.0005H37.2036C35.7319 16.0791 34.5517 17.2462 34.4565 18.717L32.8174 27.1521C32.2577 27.0687 31.6874 27.2043 31.2252 27.5307L26.1945 31.0687C25.6545 31.4495 25.3331 32.0691 25.3326 32.7299V39.331C25.3326 39.6991 25.6309 39.9975 25.9989 39.9976C25.999 39.9976 25.9991 39.9976 25.9992 39.9976H32.6651C33.0331 39.9977 33.3316 39.6994 33.3317 39.3313C33.3317 39.3313 33.3317 39.3311 33.3317 39.331V38.4877L37.7205 35.6934C39.2019 34.5945 40.0522 32.8405 39.9975 30.9968ZM36.9907 34.5777L32.307 37.5594C32.1149 37.6819 31.9986 37.8939 31.9985 38.1218V38.6644H26.6658V32.7299C26.6659 32.5027 26.7764 32.2897 26.962 32.1586L31.992 28.621C32.3849 28.3448 32.9272 28.4394 33.2034 28.8323C33.3063 28.9787 33.3616 29.1532 33.3616 29.3321C33.3648 29.5441 33.2889 29.7496 33.1487 29.9086L28.9025 33.4886L29.7617 34.5079L34.0496 30.8899C34.9082 30.0311 34.91 28.6395 34.0535 27.7786L35.772 18.9261C35.7914 18.115 36.399 17.4391 37.2035 17.3336H37.3311C38.0836 17.3336 38.6519 18.145 38.6532 19.221L38.6643 30.9973C38.721 32.3918 38.0969 33.7269 36.9907 34.5777Z" />
    <path d="M13.8048 31.0683L8.77486 27.5307C8.3125 27.2045 7.74232 27.0689 7.18264 27.1521L5.55067 18.7622C5.46893 17.275 4.2834 16.0863 2.79642 16.0005H2.66885C1.1567 16.0005 0.0155022 17.3844 0.0135857 19.2198L0.00250374 30.9974C-0.0511564 32.8465 0.804657 34.6044 2.29323 35.7026L6.66836 38.4878V39.3311C6.66828 39.6991 6.96658 39.9976 7.33462 39.9977C7.3347 39.9977 7.33487 39.9977 7.33495 39.9977H14.0008C14.3689 39.9978 14.6673 39.6995 14.6674 39.3314C14.6674 39.3313 14.6674 39.3312 14.6674 39.3311V32.73C14.6669 32.0688 14.3453 31.4492 13.8048 31.0683ZM13.3342 38.6644H8.00154V38.1218C8.00145 37.8939 7.88513 37.6819 7.69299 37.5594L3.02297 34.5867C1.90944 33.7368 1.27985 32.3977 1.33568 30.998L1.34676 19.2211C1.34809 18.1451 1.91636 17.3337 2.66885 17.3337H2.79642C3.61548 17.4478 4.22749 18.1445 4.23508 18.9715L5.94645 27.7786C5.08997 28.6395 5.09172 30.0312 5.95037 30.8899C5.97486 30.9143 6.0012 30.9367 6.02911 30.957L10.9419 34.537L11.727 33.4596L6.86167 29.9145C6.54021 29.5576 6.56888 29.0078 6.92567 28.6863C7.22705 28.4147 7.67616 28.3877 8.00804 28.621L13.0373 32.1584C13.2233 32.2893 13.3341 32.5025 13.3342 32.7299V38.6644Z" />
</svg>