<svg width="40" height="40" viewBox="0 0 40 40" fill="none" xmlns="http://www.w3.org/2000/svg">
<g clip-path="url(#clip0)">
<path d="M12.1183 32.0347L9.58822 27.824C9.2428 27.2488 8.49169 27.0608 7.91683 27.4083C7.63673 27.5762 7.43911 27.842 7.3604 28.1556C7.28127 28.4701 7.33109 28.7979 7.50024 29.0797L8.7542 31.1672L7.50024 31.9204L6.24587 29.8325C5.87491 29.2162 5.76689 28.4944 5.94106 27.7998C6.11482 27.1073 6.54899 26.5228 7.16362 26.1535C8.4293 25.394 10.081 25.8035 10.843 27.0704L13.3731 31.2819L12.1183 32.0347Z" fill="white"/>
<path d="M20.2684 38.2359C16.8139 38.2359 15.3334 37.6878 14.8452 37.4425L6.40915 36.3279L1.65248 33.7681C0.400619 33.0944 -0.104732 31.5654 0.47347 30.2934L0.468446 30.2905L0.550508 30.1369L0.555532 30.1398C1.29283 28.9528 2.84448 28.5203 4.09801 29.1831L7.21888 30.8302L14.3231 30.7008L15.3606 30.0485C14.0141 29.2731 12.0325 27.912 11.7068 26.4629C11.5749 25.8776 11.7068 25.3186 12.0882 24.8455C13.8115 22.7056 21.46 26.5529 24.8534 28.4165L32.8285 28.4345L32.8247 29.8978L24.4749 29.8785L24.3108 29.7877C17.2497 25.8885 13.5716 25.3371 13.2274 25.765C13.1273 25.8885 13.1014 25.9944 13.1345 26.1414C13.353 27.1161 15.6072 28.5969 17.1375 29.3363L18.3266 29.9108L14.7573 32.1574L6.86886 32.301L3.41514 30.4781C2.84448 30.1758 2.14067 30.3701 1.80279 30.9064C1.5453 31.4829 1.77725 32.1738 2.34582 32.4798L6.86677 34.912L15.3363 36.0319L15.4749 36.122C15.4921 36.1312 18.8859 37.9776 32.3654 35.3499L32.6455 36.7864C26.9636 37.8926 22.9991 38.2359 20.2684 38.2359Z" fill="white"/>
<path d="M39.0556 40.0002H32.4743C32.0703 40.0002 31.7424 39.6728 31.7424 39.2683V26.8167C31.7424 26.4122 32.0703 26.0848 32.4743 26.0848H39.0556C39.4596 26.0848 39.7875 26.4122 39.7875 26.8167V39.2683C39.7875 39.6728 39.4596 40.0002 39.0556 40.0002ZM33.2062 38.5365H38.3242V27.5481H33.2062V38.5365Z" fill="white"/>
<path d="M19.5018 22.9271H17.2995C16.895 22.9271 16.5676 22.6001 16.5676 22.1957C16.5676 21.7912 16.895 21.4638 17.2995 21.4638H19.5018C25.0158 21.4638 29.5016 16.978 29.5016 11.4636C29.5016 5.9495 25.0158 1.4633 19.5018 1.4633H17.7944C17.3903 1.4633 17.0629 1.13631 17.0629 0.731859C17.0629 0.327411 17.3903 0 17.7944 0H19.5018C25.8231 0 30.9653 5.14269 30.9653 11.4636C30.9653 17.7844 25.8231 22.9271 19.5018 22.9271Z" fill="white"/>
<path d="M17.5503 22.9271C11.2294 22.9271 6.08716 17.7844 6.08716 11.4636C6.08716 5.14269 11.2294 0 17.5503 0C23.8716 0 29.0143 5.14269 29.0143 11.4636C29.0143 17.7844 23.8716 22.9271 17.5503 22.9271ZM17.5503 1.4633C12.0367 1.4633 7.55088 5.9495 7.55088 11.4636C7.55088 16.978 12.0367 21.4638 17.5503 21.4638C23.0648 21.4638 27.5506 16.978 27.5506 11.4636C27.5506 5.9495 23.0648 1.4633 17.5503 1.4633Z" fill="white"/>
<path d="M15.4271 7.41991C15.4271 7.34287 15.4786 7.29221 15.5552 7.29221H18.7921C20.6347 7.29221 21.5043 8.21332 21.5043 9.60795C21.5043 10.5935 21.0442 11.1558 20.494 11.4502V11.4757C21.0316 11.6809 21.658 12.3717 21.658 13.4339C21.658 15.1605 20.5707 15.9925 18.664 15.9925H15.5552C15.4786 15.9925 15.4271 15.941 15.4271 15.8648V7.41991ZM18.754 10.9126C19.5214 10.9126 19.9954 10.4524 19.9954 9.77417C19.9954 9.08334 19.5214 8.62237 18.754 8.62237H17.0135C16.9629 8.62237 16.9369 8.64833 16.9369 8.69899V10.836C16.9369 10.887 16.9629 10.9126 17.0135 10.9126H18.754ZM17.0135 14.6619H18.8306C19.6751 14.6619 20.1482 14.1754 20.1482 13.4464C20.1482 12.7297 19.6751 12.2431 18.8306 12.2431H17.0135C16.9629 12.2431 16.9369 12.2687 16.9369 12.3202V14.5848C16.9369 14.6363 16.9629 14.6619 17.0135 14.6619Z" fill="white"/>
<path d="M17.7944 8.53696C17.3904 8.53696 17.063 8.20955 17.063 7.8051V6.3418C17.063 5.93735 17.3904 5.60994 17.7944 5.60994C18.1985 5.60994 18.5263 5.93735 18.5263 6.3418V7.8051C18.5263 8.20955 18.1985 8.53696 17.7944 8.53696Z" fill="white"/>
<path d="M17.7944 17.3172C17.3904 17.3172 17.063 16.9898 17.063 16.5853V15.8539C17.063 15.4494 17.3904 15.122 17.7944 15.122C18.1985 15.122 18.5263 15.4494 18.5263 15.8539V16.5853C18.5263 16.9898 18.1985 17.3172 17.7944 17.3172Z" fill="white"/>
</g>
<defs>
<clipPath id="clip0">
<rect width="40" height="40" fill="white"/>
</clipPath>
</defs>
</svg>
