<svg width="24" height="24" viewBox="0 0 24 24" fill="none" xmlns="http://www.w3.org/2000/svg">
<g opacity="0.6">
<path d="M20.4042 5.88042L22 4.33768V4H16.4717L12.5317 13.9099L8.04917 4H2.2525V4.33768L4.11667 6.60547C4.29833 6.77305 4.39333 7.01811 4.36917 7.26484V16.1768C4.42667 16.4977 4.32333 16.8278 4.1 17.0611L2 19.6328V19.9663H7.95417V19.6286L5.85417 17.0611C5.62667 16.8269 5.51917 16.5027 5.565 16.1768V8.46821L10.7917 19.9705H11.3992L15.8933 8.46821V17.6312C15.8933 17.8728 15.8933 17.9225 15.7367 18.0808L14.12 19.6615V20H21.9633V19.6623L20.405 18.1204C20.2683 18.016 20.1975 17.8408 20.2267 17.6707V6.33011C20.1975 6.15916 20.2675 5.984 20.4042 5.88042Z" fill="white"/>
</g>
</svg>
