<svg width="24" height="24" viewBox="0 0 24 24" fill="none" xmlns="http://www.w3.org/2000/svg">
<g opacity="0.8">
<path d="M15.7105 12.7099C16.6909 11.9385 17.4065 10.8808 17.7577 9.68382C18.109 8.48684 18.0784 7.21015 17.6703 6.03135C17.2621 4.85255 16.4967 3.83027 15.4806 3.10674C14.4644 2.3832 13.2479 1.99438 12.0005 1.99438C10.753 1.99438 9.5366 2.3832 8.52041 3.10674C7.50423 3.83027 6.73883 4.85255 6.3307 6.03135C5.92257 7.21015 5.892 8.48684 6.24325 9.68382C6.59449 10.8808 7.31009 11.9385 8.29048 12.7099C6.61056 13.3829 5.14477 14.4992 4.04938 15.9398C2.95398 17.3804 2.27005 19.0912 2.07048 20.8899C2.05604 21.0212 2.0676 21.1541 2.10451 21.2809C2.14142 21.4078 2.20295 21.5261 2.2856 21.6292C2.4525 21.8374 2.69527 21.9707 2.96049 21.9999C3.2257 22.0291 3.49164 21.9517 3.69981 21.7848C3.90798 21.6179 4.04131 21.3751 4.07049 21.1099C4.29007 19.1551 5.22217 17.3497 6.6887 16.0387C8.15524 14.7277 10.0534 14.0029 12.0205 14.0029C13.9876 14.0029 15.8857 14.7277 17.3523 16.0387C18.8188 17.3497 19.7509 19.1551 19.9705 21.1099C19.9977 21.3556 20.1149 21.5825 20.2996 21.7469C20.4843 21.9113 20.7233 22.0014 20.9705 21.9999H21.0805C21.3426 21.9697 21.5822 21.8372 21.747 21.6311C21.9119 21.4251 21.9886 21.1622 21.9605 20.8999C21.76 19.0961 21.0724 17.3809 19.9713 15.9381C18.8703 14.4953 17.3974 13.3794 15.7105 12.7099ZM12.0005 11.9999C11.2094 11.9999 10.436 11.7653 9.7782 11.3258C9.12041 10.8862 8.60772 10.2615 8.30497 9.53061C8.00222 8.79971 7.923 7.99544 8.07734 7.21952C8.23168 6.4436 8.61265 5.73086 9.17206 5.17145C9.73147 4.61204 10.4442 4.23108 11.2201 4.07674C11.996 3.9224 12.8003 4.00161 13.5312 4.30436C14.2621 4.60711 14.8868 5.1198 15.3264 5.7776C15.7659 6.4354 16.0005 7.20876 16.0005 7.99988C16.0005 9.06075 15.5791 10.0782 14.8289 10.8283C14.0788 11.5785 13.0614 11.9999 12.0005 11.9999Z" fill="#D3D6E8"/>
</g>
</svg>
