<svg width="24" height="24" viewBox="0 0 24 24" fill="none" xmlns="http://www.w3.org/2000/svg">
<g opacity="0.6">
<path d="M19.9641 8.4032C19.9768 8.57112 19.9768 8.73903 19.9768 8.90694C19.9869 10.3572 19.7043 11.795 19.1455 13.1368C18.5867 14.4786 17.7627 15.6976 16.7215 16.7231C15.6803 17.7485 14.4426 18.56 13.0803 19.1103C11.7179 19.6606 10.2582 19.9388 8.7858 19.9288C6.64457 19.9343 4.54728 19.3306 2.74609 18.1901C3.06147 18.2243 3.37861 18.2404 3.69589 18.2381C5.46627 18.2426 7.18658 17.6595 8.57928 16.583C7.75858 16.5682 6.96305 16.3014 6.30378 15.8197C5.6445 15.3381 5.15439 14.6656 4.90188 13.8964C5.14777 13.9345 5.39623 13.9544 5.64515 13.9558C5.99424 13.955 6.34182 13.9108 6.6797 13.8244C5.78889 13.647 4.98792 13.1714 4.41289 12.4782C3.83787 11.785 3.52428 10.917 3.52541 10.0219V9.97391C4.07045 10.2733 4.67961 10.4417 5.30323 10.4652C4.4685 9.91671 3.87771 9.07518 3.65143 8.11231C3.42514 7.14945 3.58041 6.13782 4.08555 5.28386C5.07335 6.48176 6.30577 7.46176 7.70287 8.1603C9.09997 8.85885 10.6305 9.26033 12.1953 9.33872C12.1322 9.04692 12.0996 8.74952 12.0979 8.45118C12.0983 7.67394 12.3358 6.91476 12.7796 6.27213C13.2235 5.6295 13.8532 5.13309 14.587 4.84731C15.3208 4.56152 16.1249 4.49956 16.8949 4.66945C17.6649 4.83934 18.3653 5.23325 18.9052 5.80007C19.7862 5.63305 20.631 5.3165 21.402 4.86456C21.1087 5.75978 20.4939 6.51886 19.6729 6.99945C20.454 6.91188 21.2174 6.70975 21.9378 6.39976C21.399 7.1722 20.7318 7.84953 19.9641 8.4032Z" fill="white"/>
</g>
</svg>
