<svg width="24" height="24" viewBox="0 0 24 24" fill="none" xmlns="http://www.w3.org/2000/svg">
<g opacity="0.6">
<path d="M19.0695 4.93052C15.1625 1.02347 8.83813 1.02285 4.93054 4.93052C1.02345 8.83757 1.02286 15.1619 4.93054 19.0695C8.83751 22.9765 15.1619 22.9771 19.0695 19.0695C22.9766 15.1624 22.9771 8.83815 19.0695 4.93052ZM18.6516 17.6443C18.1845 17.2266 17.6848 16.857 17.1581 16.5384C17.5063 15.3359 17.7125 14.0126 17.7612 12.6371H20.7006C20.5677 14.4912 19.8553 16.2304 18.6516 17.6443ZM3.29937 12.6371H6.23873C6.28748 14.0126 6.49371 15.3359 6.84183 16.5384C6.31515 16.857 5.81548 17.2266 5.34836 17.6443C4.14465 16.2304 3.4323 14.4912 3.29937 12.6371ZM5.3484 6.35569C5.81552 6.77339 6.31519 7.14305 6.84187 7.46162C6.49375 8.66412 6.28752 9.98737 6.23877 11.3629H3.29937C3.4323 9.50886 4.14465 7.76961 5.3484 6.35569ZM11.3629 7.59331C10.3238 7.51899 9.32196 7.26307 8.39314 6.84088C8.93333 5.44986 9.92916 3.7815 11.3629 3.36804V7.59331ZM11.3629 8.86992V11.3629H7.51351C7.55761 10.1993 7.72248 9.08202 7.99667 8.05969C9.05218 8.52111 10.1873 8.79666 11.3629 8.86992ZM11.3629 12.6371V15.1301C10.1873 15.2034 9.05218 15.4789 7.99667 15.9404C7.72248 14.918 7.55761 13.8007 7.51351 12.6371H11.3629ZM11.3629 16.4067V20.632C9.92923 20.2185 8.93341 18.5503 8.39314 17.1592C9.32196 16.737 10.3238 16.4811 11.3629 16.4067ZM12.6371 16.4067C13.6762 16.4811 14.6781 16.737 15.6069 17.1592C15.0666 18.5502 14.0709 20.2185 12.6371 20.632V16.4067ZM12.6371 15.1301V12.6371H16.4865C16.4424 13.8007 16.2775 14.918 16.0033 15.9404C14.9478 15.4789 13.8127 15.2034 12.6371 15.1301ZM12.6371 11.3629V8.86992C13.8127 8.79666 14.9478 8.52111 16.0033 8.05969C16.2775 9.08202 16.4424 10.1993 16.4865 11.3629H12.6371ZM12.6371 7.59331V3.36808C14.0709 3.78153 15.0667 5.4499 15.6069 6.84091C14.6781 7.26307 13.6762 7.51899 12.6371 7.59331ZM15.4988 4.00417C16.3144 4.3613 17.0752 4.84555 17.7573 5.44639C17.4326 5.73264 17.0901 5.99219 16.7324 6.22431C16.4147 5.43776 16.0089 4.67339 15.4988 4.00417ZM7.26762 6.22431C6.9099 5.99219 6.56737 5.73264 6.24267 5.44639C6.92473 4.84555 7.68559 4.3613 8.50114 4.00417C7.99109 4.67346 7.58529 5.43784 7.26762 6.22431ZM7.26765 17.7757C7.58529 18.5623 7.99117 19.3267 8.50118 19.9959C7.68563 19.6388 6.92477 19.1545 6.24271 18.5537C6.56737 18.2674 6.90994 18.0079 7.26765 17.7757ZM16.7324 17.7757C17.0901 18.0079 17.4326 18.2674 17.7573 18.5536C17.0752 19.1545 16.3144 19.6387 15.4988 19.9958C16.0088 19.3267 16.4147 18.5623 16.7324 17.7757ZM17.7613 11.3629C17.7125 9.98741 17.5063 8.66412 17.1582 7.46166C17.6849 7.14309 18.1845 6.77343 18.6517 6.35572C19.8554 7.76961 20.5677 9.50886 20.7007 11.3629H17.7613Z" fill="white"/>
</g>
</svg>
