<svg width="56" height="56" viewBox="0 0 56 56" fill="none" xmlns="http://www.w3.org/2000/svg">
<g clip-path="url(#clip0)">
<path d="M45.856 36.0762L43.3801 44.3222L38.5198 43.0129L45.856 36.0762Z" fill="#E4761B" stroke="#E4761B" stroke-width="0.156894"/>
<path d="M38.5198 43.0129L43.2076 36.6859L45.856 36.0762L38.5198 43.0129Z" fill="#E4761B" stroke="#E4761B" stroke-width="0.156894"/>
<path d="M42.2131 29.859L45.8559 36.076L43.2075 36.6858L42.2131 29.859ZM42.2131 29.859L44.5571 28.2598L45.8559 36.076L42.2131 29.859Z" fill="#F6851B" stroke="#F6851B" stroke-width="0.156894"/>
<path d="M39.2299 25.1611L45.9674 22.4424L45.6326 23.9317L39.2299 25.1611ZM45.4195 25.7208L39.2299 25.1611L45.6326 23.9317L45.4195 25.7208Z" fill="#763D16" stroke="#763D16" stroke-width="0.156894"/>
<path d="M45.4195 25.7208L44.557 28.2596L39.2299 25.1611L45.4195 25.7208ZM46.769 23.0721L45.6326 23.9317L45.9674 22.4424L46.769 23.0721ZM45.4195 25.7208L45.6326 23.9317L46.5356 24.6713L45.4195 25.7208Z" fill="#763D16" stroke="#763D16" stroke-width="0.156894"/>
<path d="M33.2941 41.0034L34.9785 41.5332L38.5197 43.0125L33.2941 41.0034Z" fill="#E2761B" stroke="#E2761B" stroke-width="0.156894"/>
<path d="M44.5569 28.2597L45.4194 25.7209L46.1601 26.2806L44.5569 28.2597ZM44.5569 28.2597L37.5657 25.9907L39.2298 25.1611L44.5569 28.2597Z" fill="#763D16" stroke="#763D16" stroke-width="0.156894"/>
<path d="M40.8939 17.3745L39.2298 25.1608L37.5657 25.9904L40.8939 17.3745Z" fill="#763D16" stroke="#763D16" stroke-width="0.156894"/>
<path d="M45.9674 22.4421L39.2299 25.1608L40.894 17.3745L45.9674 22.4421Z" fill="#763D16" stroke="#763D16" stroke-width="0.156894"/>
<path d="M40.8938 17.3748L47.9256 16.5752L45.9672 22.4424L40.8938 17.3748Z" fill="#763D16" stroke="#763D16" stroke-width="0.156894"/>
<path d="M44.5569 28.2596L42.213 29.8589L37.5657 25.9907L44.5569 28.2596Z" fill="#F6851B" stroke="#F6851B" stroke-width="0.156894"/>
<path d="M47.6212 10.9678L47.9256 16.5751L40.8938 17.3747L47.6212 10.9678Z" fill="#763D16" stroke="#763D16" stroke-width="0.156894"/>
<path d="M47.6213 10.9678L33.5679 21.033L33.3853 14.2062L47.6213 10.9678Z" fill="#E2761B" stroke="#E2761B" stroke-width="0.156894"/>
<path d="M22.9341 13.3862L33.3854 14.2058L33.568 21.0326L22.9341 13.3862Z" fill="#F6851B" stroke="#F6851B" stroke-width="0.156894"/>
<path d="M37.5658 25.9904L33.5679 21.0328L40.8939 17.3745L37.5658 25.9904Z" fill="#763D16" stroke="#763D16" stroke-width="0.156894"/>
<path d="M37.5658 25.9907L42.2131 29.8589L35.6886 30.5685L37.5658 25.9907Z" fill="#E4761B" stroke="#E4761B" stroke-width="0.156894"/>
<path d="M35.6886 30.5687L33.5679 21.0332L37.5658 25.9908L35.6886 30.5687Z" fill="#E4761B" stroke="#E4761B" stroke-width="0.156894"/>
<path d="M40.8939 17.3747L33.5679 21.033L47.6213 10.9678L40.8939 17.3747Z" fill="#763D16" stroke="#763D16" stroke-width="0.156894"/>
<path d="M23.0252 42.8531L26.3433 46.2615L21.8279 42.2134L23.0252 42.8531Z" fill="#C0AD9E" stroke="#C0AD9E" stroke-width="0.156894"/>
<path d="M38.5198 43.013L40.0925 37.1258L43.2076 36.686L38.5198 43.013Z" fill="#CD6116" stroke="#CD6116" stroke-width="0.156894"/>
<path d="M9.57031 26.4506L15.3135 20.5034L10.311 25.7409L9.57031 26.4506Z" fill="#E2761B" stroke="#E2761B" stroke-width="0.156894"/>
<path d="M43.2076 36.6851L40.0925 37.1249L42.2132 29.8584L43.2076 36.6851ZM33.568 21.0326L27.9771 20.8527L22.9341 13.3862L33.568 21.0326Z" fill="#F6851B" stroke="#F6851B" stroke-width="0.156894"/>
<path d="M42.2131 29.8594L40.0924 37.1259L39.9199 33.5776L42.2131 29.8594Z" fill="#E4751F" stroke="#E4751F" stroke-width="0.156894"/>
<path d="M35.6886 30.569L42.2131 29.8594L39.9199 33.5776L35.6886 30.569Z" fill="#CD6116" stroke="#CD6116" stroke-width="0.156894"/>
<path d="M27.9771 20.8535L33.568 21.0334L35.6887 30.5689L27.9771 20.8535Z" fill="#F6851B" stroke="#F6851B" stroke-width="0.156894"/>
<path d="M27.977 20.8535L12.8886 7.1001L22.934 13.3871L27.977 20.8535ZM22.9239 44.9421L9.81407 48.9402L7.19617 39.0949L22.9239 44.9421Z" fill="#E4761B" stroke="#E4761B" stroke-width="0.156894"/>
<path d="M11.5188 28.9092L16.4705 25.0811L20.6206 26.0306L11.5188 28.9092Z" fill="#763D16" stroke="#763D16" stroke-width="0.156894"/>
<path d="M20.6205 26.0307L16.4705 25.0811L18.6926 16.0454L20.6205 26.0307Z" fill="#763D16" stroke="#763D16" stroke-width="0.156894"/>
<path d="M10.3113 25.7407L16.4704 25.0811L11.5188 28.9092L10.3113 25.7407Z" fill="#763D16" stroke="#763D16" stroke-width="0.156894"/>
<path d="M39.9199 33.5769L37.3628 32.3075L35.6886 30.5684L39.9199 33.5769Z" fill="#CD6116" stroke="#CD6116" stroke-width="0.156894"/>
<path d="M10.3112 25.7406L9.87488 23.4717L16.4704 25.0809L10.3112 25.7406Z" fill="#763D16" stroke="#763D16" stroke-width="0.156894"/>
<path d="M36.8353 35.1663L37.363 32.3076L39.92 33.577L36.8353 35.1663Z" fill="#233447" stroke="#233447" stroke-width="0.156894"/>
<path d="M40.0925 37.1255L36.8353 35.1664L39.92 33.5771L40.0925 37.1255Z" fill="#F6851B" stroke="#F6851B" stroke-width="0.156894"/>
<path d="M16.4703 25.0811L9.87482 23.4719L9.33704 21.5628L16.4703 25.0811ZM18.6925 16.0454L16.4703 25.0811L9.33704 21.5628L18.6925 16.0454ZM18.6925 16.0454L27.9769 20.8531L20.6204 26.0307L18.6925 16.0454Z" fill="#763D16" stroke="#763D16" stroke-width="0.156894"/>
<path d="M20.6206 26.031L27.9771 20.8535L31.2546 30.7188L20.6206 26.031ZM31.2546 30.7188L21.0874 30.5089L20.6206 26.031L31.2546 30.7188Z" fill="#E4761B" stroke="#E4761B" stroke-width="0.156894"/>
<path d="M11.5188 28.9097L20.6206 26.031L21.0873 30.5089L11.5188 28.9097ZM35.6887 30.5689L31.2545 30.7188L27.9771 20.8535L35.6887 30.5689Z" fill="#F6851B" stroke="#F6851B" stroke-width="0.156894"/>
<path d="M37.3628 32.3075L36.8352 35.1662L35.6886 30.5684L37.3628 32.3075Z" fill="#CD6116" stroke="#CD6116" stroke-width="0.156894"/>
<path d="M12.8887 7.1001L27.9771 20.8535L18.6927 16.0458L12.8887 7.1001Z" fill="#763D16" stroke="#763D16" stroke-width="0.156894"/>
<path d="M7.19617 39.0949L19.9204 38.5752L22.9239 44.9422L7.19617 39.0949Z" fill="#E4761B" stroke="#E4761B" stroke-width="0.156894"/>
<path d="M22.9239 44.9417L19.9204 38.5748L26.1709 38.2749L22.9239 44.9417Z" fill="#CD6116" stroke="#CD6116" stroke-width="0.156894"/>
<path d="M36.8353 35.1662L40.0924 37.1253L41.8884 41.2933L36.8353 35.1662ZM21.0873 30.5084L7.19617 39.0943L11.5187 28.9092L21.0873 30.5084ZM19.9204 38.5746L7.19617 39.0943L21.0873 30.5084L19.9204 38.5746ZM35.6887 30.5684L36.5207 33.547L32.5025 33.7769L35.6887 30.5684ZM32.5025 33.7769L31.2545 30.7183L35.6887 30.5684L32.5025 33.7769Z" fill="#F6851B" stroke="#F6851B" stroke-width="0.156894"/>
<path d="M26.3433 46.2613L22.9238 44.9419L34.816 46.911L26.3433 46.2613Z" fill="#C0AD9E" stroke="#C0AD9E" stroke-width="0.156894"/>
<path d="M11.5185 28.9092L9.57031 26.4504L10.311 25.7407L11.5185 28.9092Z" fill="#763D16" stroke="#763D16" stroke-width="0.156894"/>
<path d="M36.1655 45.4517L34.816 46.911L22.9238 44.9419L36.1655 45.4517Z" fill="#D7C1B3" stroke="#D7C1B3" stroke-width="0.156894"/>
<path d="M36.8048 41.8732L22.9238 44.9417L26.1708 38.2749L36.8048 41.8732Z" fill="#E4761B" stroke="#E4761B" stroke-width="0.156894"/>
<path d="M22.9238 44.9416L36.8048 41.873L36.1655 45.4513L22.9238 44.9416Z" fill="#D7C1B3" stroke="#D7C1B3" stroke-width="0.156894"/>
<path d="M9.33723 21.5628L8.88062 13.8765L18.6927 16.0454L9.33723 21.5628ZM10.3113 25.7408L8.96179 24.3915L9.87501 23.4719L10.3113 25.7408Z" fill="#763D16" stroke="#763D16" stroke-width="0.156894"/>
<path d="M28.9816 32.6978L31.2545 30.7188L30.9298 35.5564L28.9816 32.6978Z" fill="#CD6116" stroke="#CD6116" stroke-width="0.156894"/>
<path d="M31.2544 30.7188L28.9815 32.6978L25.6736 34.387L31.2544 30.7188Z" fill="#CD6116" stroke="#CD6116" stroke-width="0.156894"/>
<path d="M41.8885 41.2936L41.2695 40.8438L36.8353 35.1665L41.8885 41.2936Z" fill="#F6851B" stroke="#F6851B" stroke-width="0.156894"/>
<path d="M25.6737 34.3865L21.0873 30.5083L31.2545 30.7182L25.6737 34.3865Z" fill="#CD6116" stroke="#CD6116" stroke-width="0.156894"/>
<path d="M30.9298 35.5564L31.2545 30.7188L32.5026 33.7773L30.9298 35.5564Z" fill="#E4751F" stroke="#E4751F" stroke-width="0.156894"/>
<path d="M8.51538 22.3226L9.33728 21.563L9.87507 23.4721L8.51538 22.3226Z" fill="#763D16" stroke="#763D16" stroke-width="0.156894"/>
<path d="M30.9297 35.5564L25.6736 34.3869L28.9815 32.6978L30.9297 35.5564Z" fill="#233447" stroke="#233447" stroke-width="0.156894"/>
<path d="M18.6927 16.0458L8.88062 13.8769L12.8886 7.1001L18.6927 16.0458Z" fill="#763D16" stroke="#763D16" stroke-width="0.156894"/>
<path d="M34.8159 46.9109L35.374 48.4102L26.3433 46.2612L34.8159 46.9109Z" fill="#C0AD9E" stroke="#C0AD9E" stroke-width="0.156894"/>
<path d="M26.1708 38.2753L25.6736 34.3872L30.9297 35.5566L26.1708 38.2753Z" fill="#F6851B" stroke="#F6851B" stroke-width="0.156894"/>
<path d="M21.0873 30.5083L25.6737 34.3865L26.1709 38.2746L21.0873 30.5083Z" fill="#E4751F" stroke="#E4751F" stroke-width="0.156894"/>
<path d="M32.5026 33.7767L36.5207 33.5469L41.2695 40.8434L32.5026 33.7767ZM21.0873 30.5083L26.1709 38.2746L19.9204 38.5745L21.0873 30.5083Z" fill="#F6851B" stroke="#F6851B" stroke-width="0.156894"/>
<path d="M32.5026 33.7773L37.4949 41.2638L30.9298 35.5565L32.5026 33.7773Z" fill="#E4751F" stroke="#E4751F" stroke-width="0.156894"/>
<path d="M30.9298 35.5562L37.4949 41.2634L36.8049 41.8731L30.9298 35.5562Z" fill="#F6851B" stroke="#F6851B" stroke-width="0.156894"/>
<path d="M36.8049 41.8735L26.1709 38.2752L30.9298 35.5565L36.8049 41.8735ZM41.2695 40.844L37.4948 41.2638L32.5026 33.7773L41.2695 40.844Z" fill="#F6851B" stroke="#F6851B" stroke-width="0.156894"/>
<path d="M42.264 44.3628L40.6405 47.5713L35.3742 48.4109L42.264 44.3628ZM35.3742 48.4109L34.8162 46.9116L36.1657 45.4523L35.3742 48.4109Z" fill="#C0AD9E" stroke="#C0AD9E" stroke-width="0.156894"/>
<path d="M36.1656 45.4523L37.16 45.0625L35.3741 48.4109L36.1656 45.4523ZM35.3741 48.4109L37.16 45.0625L42.2639 44.3628L35.3741 48.4109Z" fill="#C0AD9E" stroke="#C0AD9E" stroke-width="0.156894"/>
<path d="M41.2694 40.8438L42.5175 41.5934L38.7225 42.0432L41.2694 40.8438Z" fill="#161616" stroke="#161616" stroke-width="0.156894"/>
<path d="M38.7224 42.0432L37.4946 41.2635L41.2693 40.8438L38.7224 42.0432ZM38.2861 42.6329L42.9029 42.0832L42.2637 44.3621L38.2861 42.6329Z" fill="#161616" stroke="#161616" stroke-width="0.156894"/>
<path d="M42.2638 44.3617L37.1599 45.0614L38.2862 42.6325L42.2638 44.3617ZM37.1599 45.0614L36.1655 45.4512L36.8048 41.8729L37.1599 45.0614ZM36.8048 41.8729L37.4948 41.2632L38.7225 42.0428L36.8048 41.8729ZM42.5175 41.593L42.9031 42.0828L38.2862 42.6325L42.5175 41.593Z" fill="#161616" stroke="#161616" stroke-width="0.156894"/>
<path d="M38.2864 42.6328L38.7227 42.043L42.5176 41.5933L38.2864 42.6328ZM36.8049 41.8731L38.2864 42.6328L37.1601 45.0616L36.8049 41.8731Z" fill="#161616" stroke="#161616" stroke-width="0.156894"/>
<path d="M38.7227 42.043L38.2864 42.6327L36.8049 41.873L38.7227 42.043Z" fill="#161616" stroke="#161616" stroke-width="0.156894"/>
</g>
<g style="mix-blend-mode:hue">
<path d="M45.856 36.0765L43.3801 44.3226L38.5198 43.0132L45.856 36.0765Z" fill="#47B7FE"/>
<path d="M38.5198 43.0132L43.2076 36.6862L45.856 36.0765L38.5198 43.0132Z" fill="#47B7FE"/>
<path d="M42.2131 29.859L45.856 36.0765L43.2076 36.6862L42.2131 29.859ZM42.2131 29.859L44.557 28.2598L45.856 36.0765L42.2131 29.859Z" fill="#47B7FE"/>
<path d="M39.2299 25.1613L45.9674 22.4426L45.6326 23.9319L39.2299 25.1613ZM45.4195 25.721L39.2299 25.1613L45.6326 23.9319L45.4195 25.721Z" fill="#47B7FE"/>
<path d="M45.4195 25.721L44.557 28.2598L39.2299 25.1613L45.4195 25.721ZM46.769 23.0723L45.6326 23.9319L45.9674 22.4426L46.769 23.0723ZM45.4195 25.721L45.6326 23.9319L46.5356 24.6715L45.4195 25.721Z" fill="#47B7FE"/>
<path d="M33.2941 41.0037L34.9785 41.5334L38.5198 43.0132L33.2941 41.0037Z" fill="#47B7FE"/>
<path d="M44.557 28.2598L45.4195 25.721L46.1602 26.2808L44.557 28.2598ZM44.557 28.2598L37.5658 25.9909L39.2299 25.1613L44.557 28.2598Z" fill="#47B7FE"/>
<path d="M40.8939 17.375L39.2299 25.1613L37.5658 25.9909L40.8939 17.375Z" fill="#47B7FE"/>
<path d="M45.9674 22.4426L39.2299 25.1613L40.8939 17.375L45.9674 22.4426Z" fill="#47B7FE"/>
<path d="M40.8939 17.375L47.9257 16.5752L45.9674 22.4426L40.8939 17.375Z" fill="#47B7FE"/>
<path d="M44.557 28.2598L42.2131 29.859L37.5658 25.9909L44.557 28.2598Z" fill="#47B7FE"/>
<path d="M47.6213 10.9682L47.9257 16.5752L40.8939 17.375L47.6213 10.9682Z" fill="#47B7FE"/>
<path d="M47.6213 10.9682L33.568 21.0334L33.3853 14.2067L47.6213 10.9682Z" fill="#47B7FE"/>
<path d="M22.9341 13.3867L33.3853 14.2067L33.568 21.0334L22.9341 13.3867Z" fill="#47B7FE"/>
<path d="M37.5658 25.9909L33.568 21.0334L40.8939 17.375L37.5658 25.9909Z" fill="#47B7FE"/>
<path d="M37.5658 25.9909L42.2131 29.859L35.6886 30.5685L37.5658 25.9909Z" fill="#47B7FE"/>
<path d="M35.6886 30.5685L33.568 21.0334L37.5658 25.9909L35.6886 30.5685Z" fill="#47B7FE"/>
<path d="M40.8939 17.375L33.568 21.0334L47.6213 10.9682L40.8939 17.375Z" fill="#47B7FE"/>
<path d="M23.0252 42.8531L26.3433 46.2614L21.8279 42.2134L23.0252 42.8531Z" fill="#47B7FE"/>
<path d="M38.5198 43.0132L40.0925 37.1258L43.2076 36.6862L38.5198 43.0132Z" fill="#47B7FE"/>
<path d="M9.57039 26.4508L15.3135 20.5036L10.3111 25.7411L9.57039 26.4508Z" fill="#47B7FE"/>
<path d="M43.2076 36.6862L40.0925 37.1258L42.2131 29.859L43.2076 36.6862ZM33.568 21.0334L27.9771 20.8531L22.9341 13.3867L33.568 21.0334Z" fill="#47B7FE"/>
<path d="M42.2131 29.859L40.0925 37.1258L39.92 33.5776L42.2131 29.859Z" fill="#47B7FE"/>
<path d="M35.6886 30.5685L42.2131 29.859L39.92 33.5776L35.6886 30.5685Z" fill="#47B7FE"/>
<path d="M27.9771 20.8531L33.568 21.0334L35.6886 30.5685L27.9771 20.8531Z" fill="#47B7FE"/>
<path d="M27.9771 20.8531L12.8886 7.1001L22.9341 13.3867L27.9771 20.8531ZM22.9239 44.9421L9.81407 48.9402L7.19617 39.0949L22.9239 44.9421Z" fill="#47B7FE"/>
<path d="M11.5188 28.9094L16.4705 25.0812L20.6205 26.0308L11.5188 28.9094Z" fill="#47B7FE"/>
<path d="M20.6205 26.0308L16.4705 25.0812L18.6927 16.0457L20.6205 26.0308Z" fill="#47B7FE"/>
<path d="M10.3111 25.7411L16.4705 25.0812L11.5188 28.9094L10.3111 25.7411Z" fill="#47B7FE"/>
<path d="M39.92 33.5776L37.3628 32.3078L35.6886 30.5685L39.92 33.5776Z" fill="#47B7FE"/>
<path d="M10.3111 25.7411L9.87486 23.472L16.4705 25.0812L10.3111 25.7411Z" fill="#47B7FE"/>
<path d="M36.8353 35.1664L37.3628 32.3078L39.92 33.5776L36.8353 35.1664Z" fill="#47B7FE"/>
<path d="M40.0925 37.1258L36.8353 35.1664L39.92 33.5776L40.0925 37.1258Z" fill="#47B7FE"/>
<path d="M16.4705 25.0812L9.87486 23.472L9.33703 21.5631L16.4705 25.0812ZM18.6927 16.0457L16.4705 25.0812L9.33703 21.5631L18.6927 16.0457ZM18.6927 16.0457L27.9771 20.8531L20.6205 26.0308L18.6927 16.0457Z" fill="#47B7FE"/>
<path d="M20.6205 26.0308L27.9771 20.8531L31.2545 30.719L20.6205 26.0308ZM31.2545 30.719L21.0873 30.5091L20.6205 26.0308L31.2545 30.719Z" fill="#47B7FE"/>
<path d="M11.5188 28.9094L20.6205 26.0308L21.0873 30.5091L11.5188 28.9094ZM35.6886 30.5685L31.2545 30.719L27.9771 20.8531L35.6886 30.5685Z" fill="#47B7FE"/>
<path d="M37.3628 32.3078L36.8353 35.1664L35.6886 30.5685L37.3628 32.3078Z" fill="#47B7FE"/>
<path d="M12.8886 7.1001L27.9771 20.8531L18.6927 16.0457L12.8886 7.1001Z" fill="#47B7FE"/>
<path d="M7.19617 39.0949L19.9204 38.5752L22.9239 44.9421L7.19617 39.0949Z" fill="#47B7FE"/>
<path d="M22.9239 44.9421L19.9204 38.5752L26.1709 38.275L22.9239 44.9421Z" fill="#47B7FE"/>
<path d="M36.8353 35.1664L40.0925 37.1258L41.8884 41.2937L36.8353 35.1664ZM21.0873 30.5091L7.19617 39.0949L11.5188 28.9094L21.0873 30.5091ZM19.9204 38.5752L7.19617 39.0949L21.0873 30.5091L19.9204 38.5752ZM35.6886 30.5685L36.5207 33.5474L32.5025 33.7772L35.6886 30.5685ZM32.5025 33.7772L31.2545 30.719L35.6886 30.5685L32.5025 33.7772Z" fill="#47B7FE"/>
<path d="M26.3433 46.2614L22.9239 44.9421L34.816 46.9112L26.3433 46.2614Z" fill="#47B7FE"/>
<path d="M11.5188 28.9094L9.57039 26.4508L10.3111 25.7411L11.5188 28.9094Z" fill="#47B7FE"/>
<path d="M36.1656 45.4519L34.816 46.9112L22.9239 44.9421L36.1656 45.4519Z" fill="#47B7FE"/>
<path d="M36.8048 41.8733L22.9239 44.9421L26.1709 38.275L36.8048 41.8733Z" fill="#47B7FE"/>
<path d="M22.9239 44.9421L36.8048 41.8733L36.1656 45.4519L22.9239 44.9421Z" fill="#47B7FE"/>
<path d="M9.33703 21.5631L8.88059 13.8767L18.6927 16.0457L9.33703 21.5631ZM10.3111 25.7411L8.96177 24.3917L9.87486 23.472L10.3111 25.7411Z" fill="#47B7FE"/>
<path d="M28.9816 32.6979L31.2545 30.719L30.9298 35.5565L28.9816 32.6979Z" fill="#47B7FE"/>
<path d="M31.2545 30.719L28.9816 32.6979L25.6736 34.3871L31.2545 30.719Z" fill="#47B7FE"/>
<path d="M41.8884 41.2937L41.2695 40.8441L36.8353 35.1664L41.8884 41.2937Z" fill="#47B7FE"/>
<path d="M25.6736 34.3871L21.0873 30.5091L31.2545 30.719L25.6736 34.3871Z" fill="#47B7FE"/>
<path d="M30.9298 35.5565L31.2545 30.719L32.5025 33.7772L30.9298 35.5565Z" fill="#47B7FE"/>
<path d="M8.51541 22.3226L9.33703 21.5631L9.87486 23.472L8.51541 22.3226Z" fill="#47B7FE"/>
<path d="M30.9298 35.5565L25.6736 34.3871L28.9816 32.6979L30.9298 35.5565Z" fill="#47B7FE"/>
<path d="M18.6927 16.0457L8.88059 13.8767L12.8886 7.1001L18.6927 16.0457Z" fill="#47B7FE"/>
<path d="M34.816 46.9112L35.374 48.4104L26.3433 46.2614L34.816 46.9112Z" fill="#47B7FE"/>
<path d="M26.1709 38.275L25.6736 34.3871L30.9298 35.5565L26.1709 38.275Z" fill="#47B7FE"/>
<path d="M21.0873 30.5091L25.6736 34.3871L26.1709 38.275L21.0873 30.5091Z" fill="#47B7FE"/>
<path d="M32.5025 33.7772L36.5207 33.5474L41.2695 40.8441L32.5025 33.7772ZM21.0873 30.5091L26.1709 38.275L19.9204 38.5752L21.0873 30.5091Z" fill="#47B7FE"/>
<path d="M32.5025 33.7772L37.4949 41.2639L30.9298 35.5565L32.5025 33.7772Z" fill="#47B7FE"/>
<path d="M30.9298 35.5565L37.4949 41.2639L36.8048 41.8733L30.9298 35.5565Z" fill="#47B7FE"/>
<path d="M36.8048 41.8733L26.1709 38.275L30.9298 35.5565L36.8048 41.8733ZM41.2695 40.8441L37.4949 41.2639L32.5025 33.7772L41.2695 40.8441Z" fill="#47B7FE"/>
<path d="M42.264 44.3628L40.6404 47.5713L35.374 48.4104L42.264 44.3628ZM35.374 48.4104L34.816 46.9112L36.1656 45.4519L35.374 48.4104Z" fill="#47B7FE"/>
<path d="M36.1656 45.4519L37.16 45.0625L35.374 48.4104L36.1656 45.4519ZM35.374 48.4104L37.16 45.0625L42.264 44.3628L35.374 48.4104Z" fill="#47B7FE"/>
<path d="M41.2695 40.8441L42.5175 41.5938L38.7226 42.0436L41.2695 40.8441Z" fill="#47B7FE"/>
<path d="M38.7226 42.0436L37.4949 41.2639L41.2695 40.8441L38.7226 42.0436ZM38.2862 42.6333L42.903 42.0836L42.264 44.3628L38.2862 42.6333Z" fill="#47B7FE"/>
<path d="M42.264 44.3628L37.16 45.0625L38.2862 42.6333L42.264 44.3628ZM37.16 45.0625L36.1656 45.4519L36.8048 41.8733L37.16 45.0625ZM36.8048 41.8733L37.4949 41.2639L38.7226 42.0436L36.8048 41.8733ZM42.5175 41.5938L42.903 42.0836L38.2862 42.6333L42.5175 41.5938Z" fill="#47B7FE"/>
<path d="M38.2862 42.6333L38.7226 42.0436L42.5175 41.5938L38.2862 42.6333ZM36.8048 41.8733L38.2862 42.6333L37.16 45.0625L36.8048 41.8733Z" fill="#47B7FE"/>
<path d="M38.7226 42.0436L38.2862 42.6333L36.8048 41.8733L38.7226 42.0436Z" fill="#47B7FE"/>
</g>
<defs>
<clipPath id="clip0">
<rect width="41" height="42" fill="white" transform="translate(7 7)"/>
</clipPath>
</defs>
</svg>
