<svg width="56" height="56" viewBox="0 0 56 56" fill="none" xmlns="http://www.w3.org/2000/svg">
<path d="M28.5201 10C23.5372 10 19.5046 13.9967 19.5046 18.9352V22.2841C17.7548 22.598 16 23.0166 16 23.5598V41.0365C16 41.0365 16 41.5199 16.5481 41.7492C18.5342 42.5465 26.3479 45.2874 28.143 45.9153C28.3743 46 28.4397 46 28.5 46C28.5855 46 28.6257 46 28.857 45.9153C30.6521 45.2874 38.4859 42.5465 40.472 41.7492C40.9799 41.5399 41 41.0565 41 41.0565V23.5598C41 23.0166 39.2703 22.5781 37.5155 22.2841V18.9352C37.5406 13.9967 33.4829 10 28.5201 10ZM28.5201 14.2708C31.4566 14.2708 33.2315 16.0299 33.2315 18.9402V21.8505C29.9381 21.6213 27.1273 21.6213 23.8138 21.8505V18.9402C23.8138 16.0249 25.5887 14.2708 28.5201 14.2708ZM28.5 26.1362C32.5979 26.1362 36.0372 26.4502 36.0372 27.0133V37.9169C36.0372 38.0864 36.0171 38.1063 35.8663 38.1661C35.7204 38.2309 28.8771 40.6777 28.8771 40.6777C28.8771 40.6777 28.6006 40.7625 28.5201 40.7625C28.4346 40.7625 28.1631 40.6578 28.1631 40.6578C28.1631 40.6578 21.3198 38.211 21.174 38.1462C21.0282 38.0814 21.003 38.0615 21.003 37.897V26.9934C20.9628 26.4302 24.4021 26.1362 28.5 26.1362Z" fill="#47B7FE"/>
</svg>
