<svg width="56" height="56" viewBox="0 0 56 56" fill="none" xmlns="http://www.w3.org/2000/svg">
<path d="M14.035 18.0755C22.0238 10.051 34.9763 10.051 42.9651 18.0755L43.9266 19.0413C44.3261 19.4425 44.3261 20.093 43.9266 20.4942L40.6376 23.7979C40.4379 23.9985 40.1141 23.9985 39.9144 23.7979L38.5913 22.4689C33.0181 16.8708 23.9821 16.8708 18.4089 22.4689L16.992 23.8922C16.7922 24.0928 16.4684 24.0928 16.2687 23.8922L12.9797 20.5885C12.5803 20.1873 12.5803 19.5367 12.9797 19.1355L14.035 18.0755ZM49.7671 24.9079L52.6943 27.8482C53.0937 28.2494 53.0937 28.8999 52.6943 29.3011L39.4953 42.5593C39.0959 42.9605 38.4482 42.9605 38.0488 42.5593C38.0488 42.5593 38.0488 42.5593 38.0488 42.5593L28.681 33.1496C28.5811 33.0493 28.4192 33.0493 28.3193 33.1496C28.3193 33.1496 28.3193 33.1496 28.3193 33.1496L18.9517 42.5593C18.5522 42.9605 17.9046 42.9605 17.5052 42.5593C17.5052 42.5593 17.5052 42.5593 17.5052 42.5593L4.30581 29.3009C3.90637 28.8997 3.90637 28.2492 4.30581 27.848L7.23302 24.9077C7.63246 24.5065 8.28009 24.5065 8.67953 24.9077L18.0475 34.3175C18.1474 34.4178 18.3093 34.4178 18.4091 34.3175C18.4091 34.3175 18.4091 34.3175 18.4091 34.3175L27.7766 24.9077C28.1761 24.5065 28.8237 24.5064 29.2232 24.9077C29.2232 24.9077 29.2232 24.9077 29.2232 24.9077L38.5911 34.3175C38.691 34.4178 38.8529 34.4178 38.9528 34.3175L48.3206 24.9079C48.72 24.5066 49.3676 24.5066 49.7671 24.9079Z" fill="#3B99FC"/>
</svg>
