<svg viewBox="0 0 22 22" fill="currentColor" xmlns="http://www.w3.org/2000/svg">
    <path d="M6.875 16.5H8.25V20.625H6.875V16.5Z" />
    <path d="M14.4375 13.75H4.8125C4.26566 13.7495 3.74137 13.532 3.3547 13.1453C2.96802 12.7586 2.75055 12.2343 2.75 11.6875V4.125H1.375V11.6875C1.37609 12.5988 1.73861 13.4726 2.38303 14.117C3.02745 14.7614 3.90115 15.1239 4.8125 15.125H14.4375C14.9384 15.1272 15.4326 15.2401 15.8847 15.4557L11.6875 19.6529L12.6596 20.625L16.9957 16.2889C17.5589 16.9126 17.872 17.7222 17.875 18.5625V20.625H19.25V18.5625C19.2485 17.2866 18.741 16.0634 17.8388 15.1612C16.9366 14.259 15.7134 13.7515 14.4375 13.75Z" />
    <path d="M17.3766 2.77648L12.5641 1.40148C12.4405 1.36617 12.3095 1.36617 12.1859 1.40148L7.37344 2.77648C7.20214 2.82554 7.05658 2.9392 6.96745 3.09349C6.87831 3.24777 6.85256 3.43064 6.89562 3.60354L7.5625 6.27173V7.56217C7.5625 8.19415 7.68698 8.81995 7.92883 9.40383C8.17068 9.98771 8.52516 10.5182 8.97205 10.9651C9.41893 11.412 9.94945 11.7665 10.5333 12.0083C11.1172 12.2502 11.743 12.3747 12.375 12.3747C13.007 12.3747 13.6328 12.2502 14.2167 12.0083C14.8005 11.7665 15.3311 11.412 15.7779 10.9651C16.2248 10.5182 16.5793 9.98771 16.8212 9.40383C17.063 8.81995 17.1875 8.19415 17.1875 7.56217V6.27173L17.8544 3.60423C17.8976 3.43123 17.872 3.24819 17.7828 3.09375C17.6937 2.9393 17.548 2.82554 17.3766 2.77648ZM12.375 2.77717L16.3591 3.91567L15.9637 5.49967H13.0625V4.12467H11.6875V5.49967H8.78694L8.39093 3.91567L12.375 2.77717ZM12.375 10.9997C11.4637 10.9986 10.5899 10.6361 9.94552 9.99164C9.3011 9.34722 8.93859 8.47351 8.9375 7.56217V6.87467H15.8125V7.56217C15.8114 8.47351 15.4489 9.34722 14.8045 9.99164C14.1601 10.6361 13.2863 10.9986 12.375 10.9997Z" />
</svg>
