<svg width="24" height="24" viewBox="0 0 24 24" fill="none" xmlns="http://www.w3.org/2000/svg">
<path d="M7.97265 22.9387C6.9413 22.9387 6.03332 22.6805 5.2739 22.1641C4.24426 21.469 3.58259 20.3565 3.36061 18.9505C3.15187 17.6297 3.33756 16.07 3.89635 14.4402C4.45514 12.8103 5.37763 11.1478 6.56479 9.62C8.32098 7.36097 10.5032 5.58225 12.7089 4.61133C13.8918 4.09187 15.0171 3.8302 16.0552 3.8302C17.0866 3.8302 17.9946 4.08842 18.754 4.60487C19.504 5.11142 20.0641 5.84865 20.3962 6.75974C20.4595 6.64078 20.5121 6.51634 20.5533 6.3879L20.8948 5.2784L21.0924 6.42276C21.5001 8.7868 20.8598 10.9361 20.1469 12.4592C20.3333 12.3469 20.5081 12.2159 20.6686 12.0684L21.5078 11.2735L21.1198 12.3666C20.4905 14.1385 19.4319 15.7459 17.9689 17.1541C18.2959 17.124 18.6315 17.065 18.8961 16.9544L19.9604 16.5103L19.2133 17.3942C17.4076 19.5323 14.9108 20.6337 13.12 21.1815C12.5455 21.5527 11.9434 21.8784 11.319 22.1559C10.1361 22.6732 9.0104 22.9387 7.97265 22.9387ZM16.0518 5.67693C15.2732 5.67693 14.3959 5.8891 13.4444 6.30785C11.5119 7.15827 9.58242 8.74032 8.01064 10.7618C5.91636 13.4555 4.82909 16.4831 5.17315 18.6595C5.31488 19.5577 5.69267 20.2196 6.29543 20.6268C6.7492 20.9328 7.3144 21.0881 7.97606 21.0881C8.7547 21.0881 9.63194 20.876 10.5835 20.4572C12.516 19.6068 14.4455 18.0247 16.0172 16.0033C18.1115 13.3091 19.1988 10.2832 18.8547 8.10552C18.713 7.20733 18.3352 6.54542 17.7325 6.13829C17.2787 5.83229 16.7135 5.67693 16.0518 5.67693Z" fill="#56A4CB"/>
<path d="M19.3217 10.1782C19.9066 9.38761 20.1256 8.34267 20.2464 7.65149C19.7841 8.22604 19.4285 8.47823 19.4285 8.47823C19.4818 8.99985 19.5138 9.51113 19.3217 10.1782Z" fill="#277DAD"/>
<path d="M11.6123 5.8357C16.483 2.7254 19.5723 6.06078 19.6206 6.8858C19.4229 5.58393 18.5107 4.66939 17.4289 4.15509C16.4894 3.6649 13.6656 4.34661 13.6656 4.34661L11.6123 5.8357Z" fill="#DDEDF5"/>
<path d="M9.95808 21.9721C9.08638 22.557 6.89946 22.3237 6.45764 22.164C6.45764 21.6046 6.63736 21.0081 6.63736 21.0081H7.71054C7.71054 21.0081 7.69688 21.4483 8.82812 21.1686C9.43941 21.4845 9.95808 21.9721 9.95808 21.9721Z" fill="#277DAD"/>
<path d="M3.44172 17.2362C4.42654 13.8199 7.79592 7.25159 14.2149 4.3681C13.196 3.93299 8.8452 6.31424 6.56565 9.61864C3.76188 13.6857 3.76188 14.697 3.44172 17.2362Z" fill="#DDEDF5"/>
<path d="M17.4285 13.9728C17.4285 13.9728 18.5119 13.6048 19.1787 13.0974C19.691 12.2337 20.5593 10.1614 20.5593 8.34912C19.3068 11.2963 18.4249 11.6385 18.4249 11.6385C17.96 13.0544 17.7845 13.2653 17.4285 13.9728Z" fill="#277DAD"/>
<path d="M18.1115 17.7884C16.1052 19.3623 14.7362 19.9928 12.9655 20.5858L11.83 21.2172L11.5644 20.1124C11.5644 20.1124 15.8439 17.8263 17.2667 14.2452C17.9557 14.5753 19.8063 13.693 20.2464 13.0543C19.3926 14.6037 16.4898 17.76 16.4898 17.76L18.1115 17.7884Z" fill="#277DAD"/>
<path d="M16.0552 4.10782C17.02 4.10782 17.8831 4.34969 18.5995 4.83343C19.4562 5.41185 20.0406 6.30358 20.307 7.42729C20.5204 7.12602 20.7194 6.78603 20.8192 6.46669C21.2504 8.96673 20.4914 11.2296 19.6393 12.8526C19.6082 12.9305 19.5762 13.0088 19.5433 13.0867C20.0129 12.8715 20.5127 12.5956 20.8585 12.269C20.0701 14.4897 18.6814 16.1897 17.2198 17.458H17.3175C17.8148 17.458 18.5094 17.4149 19.0024 17.2092C17.2753 19.2535 14.9044 20.3445 13.003 20.9225C12.431 21.2942 11.8308 21.62 11.208 21.8968C10.0554 22.4038 8.96174 22.6573 7.9735 22.6573C7.00875 22.6573 6.14559 22.4154 5.42928 21.9317C4.46538 21.281 3.84512 20.2347 3.63638 18.9066C3.43489 17.631 3.61632 16.1182 4.16102 14.5319C4.70743 12.9348 5.61541 11.2963 6.78421 9.79304C8.51223 7.56974 10.6565 5.82114 12.8208 4.86829C13.9733 4.36131 15.067 4.10782 16.0552 4.10782ZM7.97606 21.3679C8.78287 21.3679 9.70408 21.1493 10.6945 20.7133C12.6684 19.8448 14.6359 18.2335 16.2358 16.1759C18.3758 13.4215 19.4844 10.3138 19.1288 8.06165C18.9743 7.08342 18.5563 6.35824 17.887 5.90592C17.3837 5.56636 16.7622 5.39722 16.0514 5.39722C15.2442 5.39722 14.3234 5.61585 13.333 6.05138C11.3591 6.92031 9.39118 8.53162 7.79165 10.5892C5.65169 13.3436 4.54308 16.4513 4.89867 18.7035C5.0532 19.6817 5.47112 20.4069 6.14047 20.8592C6.64334 21.1988 7.26531 21.3679 7.97606 21.3679ZM16.0552 3.55049C14.9786 3.55049 13.8158 3.82206 12.5975 4.35787C10.3504 5.34773 8.13017 7.15529 6.34623 9.45003C5.14114 10.9994 4.20328 12.6959 3.6351 14.349C3.06052 16.0218 2.87183 17.6284 3.08527 18.9944C3.32006 20.4805 4.02442 21.6571 5.11809 22.3943C5.92404 22.9388 6.8841 23.2146 7.97137 23.2146C9.04754 23.2146 10.2108 22.9431 11.4291 22.4073C12.0552 22.1295 12.6593 21.8039 13.2361 21.4333C14.3165 21.1046 15.3578 20.6572 16.3412 20.0992C18.5072 18.8563 19.3055 17.9774 20.8265 16.0179L18.8129 16.6794C20.8393 14.4583 21.3507 13.1116 22 10.5681L20.8363 11.521C22.1242 8.49246 21.2705 5.18935 20.9973 4.51883C20.8188 5.04948 20.5277 5.79488 20.3744 6.0204C20.0298 5.3554 19.5259 4.78765 18.9085 4.36863C18.1026 3.82421 17.1425 3.54834 16.0552 3.54834V3.55049ZM7.97606 20.8084C7.37032 20.8084 6.85678 20.669 6.44996 20.3944C5.9138 20.032 5.57656 19.4338 5.44721 18.6157C5.1151 16.512 6.18102 13.5691 8.22878 10.9344C9.77281 8.94865 11.6643 7.39673 13.5554 6.56439C14.4715 6.16113 15.3116 5.9567 16.0518 5.9567C16.6576 5.9567 17.1707 6.09614 17.5779 6.37072C18.1141 6.73309 18.4513 7.33131 18.5807 8.14945C18.9128 10.2531 17.8469 13.196 15.7991 15.8307C14.2551 17.8173 12.3636 19.3667 10.4725 20.2007C9.55596 20.604 8.71628 20.8084 7.97606 20.8084Z" fill="#083751"/>
<path d="M7.97607 20.8084C7.37032 20.8084 6.85678 20.6689 6.44996 20.3944C5.9138 20.032 5.57656 19.4338 5.44722 18.6156C5.1151 16.512 6.18103 13.5691 8.22878 10.9344C9.77282 8.94861 11.6643 7.39669 13.5554 6.56435C14.4715 6.16109 15.3116 5.95667 16.0518 5.95667C16.6576 5.95667 17.1707 6.09611 17.5779 6.37068C18.1141 6.73306 18.4513 7.33127 18.5807 8.14941C18.9128 10.2531 17.8469 13.196 15.7991 15.8307C14.2551 17.8173 12.3636 19.3666 10.4725 20.2007C9.55596 20.604 8.71628 20.8084 7.97607 20.8084Z" fill="#083751"/>
<path d="M5.16718 0.940598C5.14199 1.26123 5.16376 2.79636 5.73835 3.0576C5.34007 2.11078 5.76311 0.346254 7.76006 0.337646C7.39465 0.612224 7.11462 1.06282 6.99167 1.36365C6.85954 1.50891 6.74266 1.66756 6.64291 1.83706C6.78677 1.75099 7.25378 0.951357 9.00613 0.945762C9.47143 0.945762 9.97686 0.996977 10.3892 1.23368C9.6806 1.0568 8.92588 1.44887 8.33763 1.84782C8.75214 1.71355 9.35532 1.31115 10.204 1.47856C10.7743 1.59089 11.0086 2.12068 11.4795 2.39397C11.8637 2.61733 12.4092 2.60054 12.6607 2.18394C12.7234 2.08049 12.7547 1.96081 12.7507 1.83965C12.8585 1.95455 12.9528 2.08164 13.0316 2.21837C13.2065 2.52361 13.2795 2.87738 13.2399 3.2276C12.8246 3.18757 12.4156 3.33218 11.999 3.28354C11.5956 3.22945 11.2143 3.06581 10.8959 2.81014C11.1225 3.15227 11.4646 3.39986 11.8586 3.50691C12.3597 3.64247 12.8476 3.45311 13.3484 3.54263C13.92 3.6442 14.6401 4.01991 15.2924 3.58265C15.4079 3.50333 15.5049 3.39965 15.5767 3.27881C15.6808 3.56777 15.6889 3.883 15.5998 4.177C15.5537 4.34231 15.4677 4.49356 15.3496 4.61727C15.2425 4.72443 15.1114 4.76101 14.9885 4.83504C14.5752 4.66289 14.1129 4.60479 13.6651 4.57681C14.0677 4.70592 14.48 4.83504 14.8604 5.01881C15.2407 5.20257 15.4977 5.49221 15.7641 5.81499C15.9857 6.08355 16.2439 6.328 16.591 6.41106C16.8294 6.46829 17.079 6.45605 17.3107 6.37577C17.3726 6.72652 17.0503 7.29849 16.6008 7.37423C16.8183 7.51411 17.0525 7.62561 17.2979 7.70605C17.1271 7.86098 16.7195 7.97675 16.4574 7.99053C17.0874 8.32363 17.4046 9.21106 17.3901 9.9315C17.2889 9.71158 17.1728 9.45809 16.909 9.26615C16.9833 9.57386 16.9696 9.94958 16.9133 10.299C16.7886 10.1794 16.3156 9.6268 16.1141 9.35954C16.2119 9.05182 16.1948 8.83965 16.1274 8.52634C16.042 9.04279 15.6753 9.63541 15.4871 9.87297C15.5724 9.55149 15.5391 9.20547 15.4871 8.88312C15.4233 8.5198 15.3182 8.16512 15.1737 7.82612C14.8625 7.06049 14.8625 7.06049 14.5936 6.39384C14.4378 7.03037 14.3042 7.32732 14.0971 7.58511C14.1078 7.3812 14.094 7.17673 14.0561 6.97614C14.0416 6.89265 13.9123 6.23977 13.3065 5.3631C13.359 5.76937 13.52 6.25182 13.3292 6.7063C13.3168 6.36544 13.0935 5.3786 12.4169 4.98481C12.6065 5.31361 12.7729 6.34349 12.545 6.60774C12.5668 6.03965 12.1744 5.51589 11.7467 5.17202C11.43 4.91724 9.67377 3.9291 9.67634 3.93341C9.6789 3.93771 10.002 5.35794 9.29556 5.47027C9.51156 4.97921 8.96856 3.94589 8.35642 3.75566C8.42813 3.40921 8.40892 2.99261 8.29025 2.67973C7.98631 3.01241 7.21621 3.02661 6.79915 3.39157C6.61986 3.54736 6.42904 3.78493 6.35178 4.0608L6.12041 4.38272C6.11559 4.35503 6.10544 4.32857 6.09053 4.30482L4.93837 3.20048C4.67584 2.69695 4.60412 1.48158 5.16718 0.940598Z" fill="#E61C3F"/>
<path d="M3.85878 2.54688L4.51277 3.21223C4.47734 3.27636 4.42995 3.3478 4.35994 3.36415C4.40083 3.37373 4.44359 3.37123 4.4831 3.35696C4.52262 3.34268 4.55722 3.31724 4.58278 3.28367L4.89184 3.59827C4.82909 3.74073 4.72578 3.91546 4.56527 3.94257C4.7706 4.00196 4.9277 3.87027 5.00069 3.70931L5.39428 4.10956C5.3422 4.29849 5.22822 4.53993 4.89995 4.58297C5.2564 4.66904 5.45831 4.46117 5.52448 4.24125L5.80195 4.52357C5.89288 4.82483 5.38062 5.17516 5.07625 5.09468L3.85878 2.54688Z" fill="white"/>
<path d="M6.38763 21.2443C6.33811 21.9088 6.15242 23.1539 5.45874 23.4672C5.2453 23.3811 5.05832 23.0945 4.90977 22.7567C4.98661 22.2613 5.20858 22.1111 5.63547 21.787C5.88263 21.5998 6.05253 21.2706 6.15712 21.0081C6.2553 21.1122 6.3394 21.1966 6.38763 21.2443Z" fill="#9EA7AC"/>
<path d="M10.9967 19.797C11.0722 19.9786 11.1738 20.2274 11.2759 20.4886C11.3399 20.653 11.4039 20.8226 11.4616 20.9853C11.614 21.4126 11.7245 21.7883 11.675 21.8749C11.6255 21.9614 11.3429 21.9919 10.9672 21.9609C10.7418 21.6369 10.7487 21.3958 10.7965 20.9995C10.8029 20.9444 10.8106 20.8859 10.8182 20.8239C10.8332 20.6719 10.8219 20.5184 10.785 20.3703C10.7271 20.1406 10.641 19.9191 10.5288 19.7109C10.6875 19.7215 10.8445 19.7504 10.9967 19.797Z" fill="#9EA7AC"/>
<path d="M17.7845 12.5482C17.2542 13.7026 16.5911 14.7902 15.8089 15.7885C15.5169 16.1655 15.2134 16.5262 14.8984 16.8705C15.0017 16.0829 14.7763 15.2557 14.2764 14.8658C14.74 15.8651 14.6179 16.7069 14.2282 17.3434C13.6463 18.2864 12.5586 18.6922 11.9038 18.678C11.4075 18.6629 10.923 18.5218 10.4951 18.2679C10.4951 18.2679 8.67743 17.8173 8.55833 18.2326C8.43923 18.6479 9.06803 19.7109 9.06803 19.7109C9.06803 19.7109 9.50217 19.6903 9.54102 20.0053C9.71469 19.8602 9.92394 19.7649 10.1468 19.7294C10.3193 19.8452 10.4483 20.016 10.513 20.2145C10.6308 20.5859 10.5049 20.9977 10.4379 21.2943C10.4243 21.3491 10.4137 21.4047 10.4063 21.4608C10.3974 21.5281 10.4002 21.5964 10.4144 21.6627C10.4336 21.7475 10.4701 21.8274 10.5216 21.8972C10.3744 21.8686 10.2291 21.8315 10.0861 21.7862C9.93104 21.7375 9.7799 21.6767 9.63408 21.6046C9.4063 21.4977 9.20417 21.3423 9.04156 21.1492C8.37349 21.1953 8.14511 21.3394 7.94063 20.9637C7.87934 20.8426 7.82905 20.7161 7.79037 20.5859C7.52485 19.757 6.92722 18.9143 6.68304 18.5717C6.43886 18.2291 6.74793 17.5087 7.33233 17.2496C7.91673 16.9905 10.2928 16.3768 10.6441 15.9038C10.9954 15.4309 10.8353 14.4234 12.5424 13.7817C12.0545 13.622 10.6432 14.33 10.2928 15.5824C9.63066 16.0196 7.93807 16.5154 7.47747 16.6531C6.71634 16.8804 6.28903 17.4355 6.16566 17.7867C5.78957 17.921 5.17614 18.1349 5.1706 18.4323C5.16419 18.765 5.39898 19.2461 5.38404 19.9356C5.38404 20.044 5.49246 20.2256 5.64315 20.421C5.73792 20.5445 5.84891 20.6737 5.95691 20.7933C5.93159 21.0252 5.82376 21.24 5.6534 21.398C5.53148 21.5133 5.39701 21.6144 5.25256 21.6992C5.10955 21.7879 4.97508 21.8606 4.88288 21.9303C4.80306 21.9912 4.74001 22.0717 4.69974 22.164C4.63105 21.9315 4.58473 21.6928 4.56143 21.4513C4.19389 20.9448 4.05985 20.8058 3.99197 20.5906C3.98662 20.5713 3.98305 20.5516 3.9813 20.5316C3.95398 20.2786 4.01887 19.5216 4.05985 19.0839C4.11065 19.0778 4.21779 19.151 4.42355 19.2681L4.46624 19.2939L4.41117 19.2078C4.11235 18.7456 3.77384 18.236 3.92282 17.7734C4.00307 17.5246 4.15974 17.386 4.40776 17.2367C4.40915 17.2355 4.41074 17.2344 4.41245 17.2337C4.50765 17.1756 4.61693 17.1158 4.74072 17.0469C5.18724 16.7977 6.98613 16.2116 7.22006 15.7313C7.35315 15.4645 7.50168 15.2058 7.66487 14.9566C7.70318 15.3071 7.77845 15.6525 7.88941 15.9869C7.86294 13.5768 8.73122 12.0671 9.07315 11.5657C9.11261 12.0469 9.11332 12.5305 9.07529 13.0117C9.55254 12.5603 9.58285 10.5707 8.97454 8.95721C8.92389 8.82264 8.86853 8.69109 8.80849 8.56256C8.74445 8.42527 8.6753 8.29228 8.60102 8.16489C8.72171 7.90089 8.77441 7.61048 8.75427 7.3205C8.74506 7.18349 8.7213 7.04786 8.68341 6.91595C8.61903 6.67769 8.50428 6.45629 8.34703 6.26695C8.41447 6.57208 8.47509 6.83547 8.48235 7.09671C8.48839 7.27964 8.46356 7.46228 8.40892 7.63682C8.39356 7.68546 8.37563 7.73452 8.35514 7.78487C8.35855 7.75001 8.36111 7.71558 8.36197 7.68115C8.367 7.53528 8.35265 7.38937 8.31928 7.24734C8.29983 7.16415 8.27414 7.08258 8.24244 7.00332C8.23774 6.99213 8.22067 7.0003 8.22323 7.01149C8.24516 7.1066 8.25817 7.20357 8.26208 7.30113C8.26894 7.47941 8.24996 7.65774 8.20573 7.83049C8.18678 7.9074 8.16384 7.98325 8.137 8.05773C8.0974 8.16758 8.05223 8.27532 8.00168 8.38051C7.66572 8.79625 7.13041 8.92665 6.85507 9.42029C6.82946 9.40953 6.80043 9.39748 6.7697 9.385C6.66601 9.344 6.55942 9.31091 6.45081 9.28601C6.25744 9.24297 6.04144 9.22748 5.86343 9.29978C5.77139 9.32873 5.68397 9.37091 5.60388 9.42502C5.53082 9.47264 5.46973 9.53673 5.42544 9.61223C5.53003 9.49388 5.85233 9.39705 6.10846 9.40092C6.17934 9.40818 6.24707 9.43416 6.30482 9.47624C6.38896 9.53811 6.45383 9.62292 6.4918 9.72069C6.4918 9.72757 6.48838 9.73188 6.48795 9.73446C6.48987 9.73128 6.49158 9.72797 6.49308 9.72456V9.728C6.55156 9.87132 6.58486 10.0779 6.55967 10.3757C6.48753 10.6731 6.4188 10.9391 6.31891 11.0604C6.12852 11.2946 5.50399 11.6698 5.16846 11.7357C5.14316 11.7418 5.11749 11.7463 5.09162 11.749C5.0025 11.7541 4.91321 11.7426 4.82824 11.715C4.79878 11.7069 4.7689 11.6965 4.73902 11.6849C4.79675 11.6389 4.85673 11.5958 4.91873 11.5558C4.98435 11.5131 5.0525 11.4744 5.12278 11.44C5.20503 11.4001 5.28258 11.3617 5.35544 11.3247C5.8852 11.0596 6.16651 10.8831 6.25445 10.7196C6.33513 10.5694 6.27451 10.3607 6.14858 10.1795C6.09152 10.0957 6.02313 10.0204 5.94539 9.95567C5.90808 9.92453 5.86824 9.8966 5.82629 9.87218C5.88683 9.85565 5.95028 9.853 6.01198 9.86443C6.06737 9.87383 6.12223 9.88619 6.17633 9.90144C6.14431 9.86529 5.98167 9.8257 5.93471 9.79815C5.78104 9.70692 5.64443 9.74608 5.53985 9.86486C5.40325 10.0198 5.21584 10.569 4.89654 10.9451C4.67883 11.2033 4.26689 11.2976 4.02698 11.3324C3.68547 11.0888 3.47203 10.7549 3.44428 10.4898C3.41312 10.1743 3.48697 9.74866 3.80415 9.55241C4.04405 8.97227 4.46923 7.38377 4.49612 7.13673C4.52302 6.8897 4.2242 6.22779 4.25109 5.91835C4.27073 5.69886 4.58705 5.17467 4.67157 5.03781L4.77616 5.28097C4.77872 5.28355 4.78939 5.29603 4.80775 5.31281C4.65193 5.70015 4.63699 6.19207 4.73304 6.58284C4.75567 6.33538 4.77573 6.09093 4.84446 5.85121C4.88715 5.69929 4.94221 5.55253 4.99557 5.40534C5.14712 5.43848 5.38532 5.41567 5.73621 5.1936C5.88825 5.10524 6.00958 4.9718 6.0837 4.81143L6.33983 4.51577C6.35767 4.58796 6.38434 4.65764 6.41923 4.7232C6.41923 4.53298 6.54729 4.2158 6.69627 3.97823C6.97375 3.52892 7.50607 3.39422 7.84416 3.22766C7.70926 3.35419 7.56839 3.47383 7.43734 3.60424C7.16029 3.87881 6.99253 4.20676 7.03692 4.60184C7.19018 4.18007 7.43136 3.87021 7.77458 3.58788C7.85995 3.51644 7.98802 3.42133 8.09687 3.31158C8.04992 3.62403 8.0115 3.93648 7.80873 4.2059C7.56882 4.52739 7.15602 4.8407 7.52699 5.25687C7.42453 4.97928 7.79677 4.71417 7.95387 4.54073C8.09192 4.38761 8.2014 4.21061 8.27702 4.01826C8.96003 4.43012 9.41039 5.4699 8.73165 5.66056C9.02193 5.82754 10.2411 5.92308 10.061 4.53169C10.4025 4.74688 10.7666 4.92591 11.1282 5.13034L11.1568 5.14626C11.2646 5.20718 11.3693 5.27354 11.4705 5.34509C11.8022 5.58008 12.008 5.8185 12.1301 6.04445C12.1981 6.16714 12.2456 6.30035 12.2705 6.43867C12.3345 6.79889 12.2082 7.06916 12.1454 7.12726C12.4792 7.11866 12.8711 6.87377 12.8891 6.11589C12.8891 6.08662 12.8891 6.0565 12.8891 6.02594L12.8916 6.0324C12.8997 6.0565 12.9074 6.07974 12.9155 6.10298C13.1657 6.87334 13.1682 7.3106 13.1682 7.3106C13.3817 7.11823 13.6216 6.86861 13.6532 6.39692C13.6681 6.47568 13.8897 7.25465 13.8376 8.04181C13.99 7.98973 14.3844 7.90107 14.6111 7.28865C14.6824 7.50384 14.9056 7.96176 15.0482 8.4683C15.143 8.80442 15.2139 9.16379 15.1989 9.51497C15.1746 10.0921 14.9001 10.3757 14.8783 10.4411C14.898 10.4441 15.5361 10.4962 15.9276 9.82871C16.3067 10.5177 16.8936 11.5661 17.7845 12.5482Z" fill="#E5ECEF"/>
<path d="M5.84037 7.3123C5.98722 7.04633 6.23054 6.67276 6.54814 6.39905C6.63352 6.47436 6.68389 6.64307 6.70096 6.7498C6.76841 7.15779 6.4077 7.01233 5.84037 7.3123Z" fill="#FFCE55"/>
<path d="M3.37043 10.9025C3.37043 10.9025 3.44556 10.2178 4.06241 10.0628C3.98173 9.7392 4.22035 9.13969 4.64724 9.26364C4.7403 8.42441 4.96782 7.37 4.96782 7.37C4.96782 7.37 5.42373 7.50987 5.48008 7.2624C5.53643 7.01494 5.73621 6.22951 6.45252 6.01433C5.84165 6.01433 5.49502 6.60523 5.26067 7.01408C4.9119 7.00332 4.63144 6.65902 4.74158 6.12106C4.85171 5.58309 4.91233 5.22804 4.91233 5.22804L4.64894 4.91602C4.64894 4.91602 3.99539 5.57405 4.1051 6.01433C4.2148 6.4546 4.5085 6.99945 4.36122 7.31147C4.21395 7.62349 3.66583 9.38758 3.66583 9.38758C3.2048 9.95266 3.16382 10.3525 3.37043 10.9025Z" fill="white"/>
<path d="M13.018 13.9728C12.5023 13.9728 11.0654 14.9984 11.0654 16.067C10.2735 16.4113 8.30818 17.136 8.30818 17.136L11.3241 16.6338C11.3241 16.6338 12.1954 16.9996 12.7793 16.6338C13.3633 16.268 13.2182 15.5544 13.2182 15.5544C12.5002 16.1819 11.3429 14.9196 13.018 13.9728Z" fill="white"/>
<path d="M10.3021 6.96033C11.2814 7.90973 13.3172 10.1997 12.5023 12.2225C12.2487 10.7773 11.3429 8.69344 10.3021 6.96033Z" fill="white"/>
<path d="M3.61248 11.0893C3.61248 11.0893 3.85366 11.2756 4.06711 11.0893C4.38513 10.8117 4.12132 10.096 4.32324 9.91263C4.52515 9.72929 4.93965 9.76932 4.98191 9.84119C4.87221 9.53993 4.77872 9.20983 4.85001 9.08072C4.9213 8.95161 5.17572 8.17694 5.70377 7.83264C5.47838 8.226 5.0865 9.18487 5.25896 9.61137C5.41904 9.38758 6.15883 9.17799 6.48625 9.50249C6.81367 9.82699 6.83544 10.7338 6.48625 11.1697C6.13706 11.6057 5.22396 12.0645 4.98191 11.9999C4.26433 11.7116 3.94801 11.4745 3.61248 11.0893Z" fill="#9EA7AC"/>
<path d="M5.25938 9.61141C5.74688 8.85481 6.27494 9.17759 6.71078 8.17698C6.76707 8.32226 6.76707 8.48358 6.71078 8.62887C7.44417 8.30652 8.42856 6.90394 8.09644 5.58398C8.39526 5.99972 8.66206 7.30547 8.49131 7.91875C8.32056 8.53203 7.55217 8.96241 7.40276 9.20987C7.25335 9.45733 6.74195 9.84467 6.74195 9.84467C6.48752 9.38847 5.7678 9.49521 5.25938 9.61141Z" fill="#9EA7AC"/>
<path d="M5.53345 7.57437C5.53345 7.57437 6.33086 7.66518 6.74024 7.45602C7.14962 7.24686 7.36904 6.563 7.36904 6.32629C7.24994 6.64907 6.84611 6.86985 6.84611 6.86985C6.69995 7.02078 6.5209 7.13528 6.32318 7.20425C6.00216 7.31228 5.66151 7.41298 5.66151 7.41298L5.53345 7.57437Z" fill="#9EA7AC"/>
<path d="M5.25938 4.50797C5.25938 4.50797 5.4566 4.30871 5.41135 4.03714C5.33964 4.26051 5.18681 4.30354 5.11851 4.30354C5.05021 4.30354 4.78213 3.87317 4.78213 3.87317C4.78213 3.87317 5.07198 3.59687 4.98234 3.41267C4.89227 3.60075 4.64724 3.76773 4.64724 3.76773L4.35994 3.36662C4.35994 3.36662 4.70145 3.20825 4.64724 3.05762C4.54094 3.05762 5.75713 4.15291 5.75713 4.15291L6.00173 4.55316C6.00173 4.55316 6.00173 4.78987 5.63547 5.02055C5.35116 4.69561 5.25938 4.50797 5.25938 4.50797Z" fill="#9EA7AC"/>
<path d="M8.58565 7.33775C8.96301 7.13462 8.09473 5.89514 8.09473 5.58398C9.4821 6.85573 10.6774 8.89785 10.1438 10.6671C10.0157 10.3013 9.65285 9.55417 9.65285 9.55417C9.65285 9.55417 10.2727 11.2541 9.25842 12.4161C9.35404 10.9098 8.73292 8.64092 8.43624 8.34913C8.70304 7.88217 8.58565 7.33775 8.58565 7.33775Z" fill="#9EA7AC"/>
<path d="M12.1207 13.7955C11.4377 13.7361 10.2292 14.2237 9.90899 15.1921C9.92863 14.834 9.87014 14.4247 10.3154 13.9728C9.71775 13.9728 8.94936 14.8336 8.94936 15.5544C7.94576 16.0278 4.89398 17.4945 4.64809 17.7097C4.40221 17.9249 4.44191 18.1526 4.85129 19.1368C4.59473 19.8616 4.21523 20.2907 5.177 21.1312C5.57315 21.4755 5.75841 21.5185 5.75841 21.5185L6.16822 20.6698C6.16822 20.6698 5.19962 18.8558 5.47881 18.3983C6.13748 17.9464 6.38764 17.8819 6.38764 17.8819C6.38764 17.8819 6.622 17.1718 7.81727 16.8275C9.01254 16.4832 10.5305 15.7731 10.5305 15.7731C10.8481 14.1807 11.83 13.9797 12.1207 13.7955Z" fill="#9EA7AC"/>
<path d="M14.6687 17.0642C14.6687 17.0642 14.8395 15.1275 13.9225 14.3313C14.1565 14.8262 14.264 15.8161 13.9225 16.311C13.9272 15.8709 13.7758 15.4435 13.4957 15.106C13.4957 15.106 13.9584 16.849 12.6637 17.2686C11.643 17.4945 11.2332 17.0211 11.2332 17.0211C10.1446 17.4085 8.58651 17.5591 8.13828 17.6667C7.83946 18.3553 7.83946 19.7454 8.87508 20.7348C8.79891 20.4909 8.73817 20.2424 8.69323 19.9907C8.69323 19.9907 9.02321 20.5287 9.38051 20.4426C9.73781 20.3565 10.2462 19.8663 10.8247 20.6388C10.595 19.8401 10.3252 19.5388 10.3252 19.5388L9.58883 19.5818L9.07657 19.3021L8.71372 18.3338L10.3252 18.4844C10.3252 18.4844 11.9141 19.3912 12.9185 18.7857C13.923 18.1801 14.6687 17.0642 14.6687 17.0642Z" fill="#9EA7AC"/>
<path d="M5.69481 10.0383C5.72478 10.0377 5.75469 10.0414 5.7836 10.0495C5.77421 10.3133 5.45661 10.6485 5.45661 10.6485C5.70633 10.5061 5.8758 10.3852 5.97484 10.1713C6.02717 10.2274 6.06553 10.2952 6.08676 10.3692C6.10798 10.4432 6.11147 10.5213 6.09693 10.5969C6.05083 10.7987 5.23164 11.1392 4.85043 11.2963C5.39812 10.9386 5.42587 10.0456 5.69481 10.0383Z" fill="white"/>
<path d="M16.3336 9.91958L15.9921 9.38764C15.9921 9.38764 15.5396 10.0706 15.245 10.1998C15.5114 9.03775 15.0102 7.67992 14.5833 6.96034C14.5461 7.14674 14.4674 7.32216 14.3529 7.4733C14.2385 7.62444 14.0915 7.74735 13.923 7.83271C13.923 7.83271 13.9349 7.07783 13.765 6.47531C13.722 6.3067 13.6523 6.14614 13.5588 5.99975C13.5423 6.20986 13.5013 6.41728 13.4367 6.61776C13.4008 6.73916 13.3486 6.85501 13.2814 6.96206C13.2814 6.96206 13.2566 6.86523 13.2169 6.72278C13.1742 6.57344 13.117 6.37331 13.0534 6.18137C12.9655 5.91368 12.8673 5.66234 12.7904 5.58573C12.7798 5.73937 12.8246 6.02299 12.7781 6.31736C12.7509 6.52202 12.6653 6.7143 12.5318 6.87082L12.5027 6.83037C12.4867 6.71877 12.4646 6.60814 12.4366 6.49898C12.3572 6.18438 12.1941 5.72431 11.8859 5.4747C11.8534 5.44844 11.8167 5.42047 11.7766 5.39206C11.6323 5.28835 11.4441 5.17171 11.2438 5.05465C10.6676 4.71939 9.99009 4.38542 9.95979 4.37036C10.3342 4.60925 10.6815 4.88879 10.9954 5.20399C11.1272 5.33841 11.2492 5.48224 11.3604 5.63436C11.6921 6.09142 11.821 6.50845 11.847 6.84715C11.8583 6.98881 11.851 7.13135 11.8253 7.27107C11.4338 6.93323 10.9553 6.57042 10.595 6.45681C10.7884 6.64014 11.2353 7.17467 11.649 7.68638L11.6426 7.69283C11.6609 7.70919 11.6784 7.72726 11.6963 7.74448C11.9 7.99582 12.0938 8.23855 12.2436 8.42705C13.0282 9.66265 13.4209 11.5481 12.9616 12.6326C13.4419 12.5573 13.9678 11.7013 13.9114 10.9757C13.8687 10.4162 13.6468 9.72118 13.5132 9.3403C16.3011 12.1037 16.5363 14.0559 16.6115 14.2465C16.2332 13.7172 14.8984 12.4575 14.8566 12.4183C14.8805 12.4614 15.9323 14.3244 16.2845 15.177C16.9927 14.1699 17.5574 13.1332 17.9561 12.127L16.3336 9.91958Z" fill="#9EA7AC"/>
<path d="M7.47576 4.95994C7.79848 4.87731 8.23348 4.72323 8.3402 4.48653C8.59633 4.59412 9.17262 5.15275 9.01254 5.58398C9.34038 5.18502 9.03986 4.19818 8.25781 3.87325C8.25781 3.7011 8.18012 3.05554 8.18012 3.05554C8.18012 3.05554 6.60065 4.16848 7.13426 5.1067C7.21963 4.69311 7.51845 4.27134 7.51845 4.27134L7.47576 4.95994Z" fill="#9EA7AC"/>
<path d="M4.79921 3.25045C4.79921 3.25045 4.73816 2.15171 5.0246 1.79321C5.0246 2.12288 5.20176 2.74347 5.73835 3.05721C5.38745 2.30966 5.31147 0.62561 5.31147 0.62561C4.43849 1.4175 4.37019 2.18915 4.79921 3.25045Z" fill="#F0ABAB"/>
<path d="M5.51851 2.72538C5.51851 2.72538 5.27945 0.94665 6.63737 0.47324C7.99528 -0.000169054 8.09474 0.186182 8.09474 0.186182C8.09474 0.186182 6.79915 1.48462 6.45124 2.16589C6.45124 1.80739 6.58443 1.12439 7.02412 0.788703C6.27494 0.874778 5.59108 1.95372 5.51851 2.72538Z" fill="#F0ABAB"/>
<path d="M7.11633 1.34484C7.71055 1.19851 8.83111 1.0651 9.65969 1.36292C8.72055 1.53507 8.14426 1.90088 7.956 2.21634C8.90582 1.78597 10.0541 1.6418 10.6112 2.09455C11.1683 2.5473 11.8137 3.4287 12.7785 2.5473C12.7785 2.86922 12.8664 3.11281 12.7785 3.38567C13.298 3.53673 13.4875 3.38567 13.4875 3.38567C13.4875 3.38567 13.5439 1.99384 12.7051 1.64954C12.6965 2.11736 12.1783 2.42421 11.7514 2.30931C11.3245 2.1944 10.595 1.37712 10.595 1.37712C10.595 1.37712 10.5403 0.59212 8.72012 0.745763C7.71055 0.725966 7.11633 1.34484 7.11633 1.34484Z" fill="#F0ABAB"/>
<path d="M10.8972 2.81238C11.068 3.2264 11.4095 3.82418 12.0152 3.93135C12.621 4.03851 13.1772 3.75446 13.4897 3.93135C13.8021 4.10823 14.7554 4.43144 15.1972 4.03808C15.3539 4.2184 14.9552 4.87816 14.6282 4.80672C13.7317 4.57346 13.9494 4.5868 13.0487 4.5769C14.0254 4.90614 14.7818 5.36535 15.038 5.76688C15.2941 6.16842 15.6821 6.96031 16.5747 6.86993C16.4753 7.11524 16.3045 7.23919 15.8777 7.20433C16.0057 7.4165 16.3613 7.71432 16.7028 7.71432C16.5043 7.83267 15.9771 7.83267 15.9771 7.83267C15.9771 7.83267 16.8347 8.69342 16.9444 9.33166C17.2044 10.0314 17.4755 10.1614 17.4755 10.1614C17.4755 10.1614 17.7986 8.89784 17.0016 8.1051C17.6279 7.83267 17.7132 7.72508 17.7132 7.72508L16.9308 7.31235C16.9308 7.31235 17.8951 6.77568 17.4857 6.15422C16.76 6.32637 16.5393 6.32895 16.0514 5.95668C15.5635 5.58441 15.1806 5.01847 15.1806 5.01847C15.1806 5.01847 16.2759 4.47577 15.5652 3.05554C15.0243 3.54831 14.6841 3.65505 13.9148 3.45277C13.1456 3.2505 12.1928 3.54875 11.9648 3.45277C11.7369 3.3568 10.8972 2.81238 10.8972 2.81238Z" fill="#F0ABAB"/>
<path d="M8.23689 15.4644C8.09474 14.5176 8.39654 13.0647 8.82812 12.4161C8.82812 12.911 9.14359 13.6569 9.14359 13.6569C9.14359 13.6569 10.2906 12.2909 10.1438 11.2963C10.5305 12.2224 9.81507 13.7145 9.17902 14.3312C8.54296 14.948 8.23689 15.4644 8.23689 15.4644Z" fill="white"/>
<path d="M7.66786 17.3653C7.24994 17.4084 6.71079 18.0324 6.89947 18.4628C7.08815 18.8932 7.66786 19.7969 7.66786 19.7969L7.27214 18.5811C7.27214 18.5811 7.66786 18.3229 7.66786 17.9894C7.66786 17.6558 8.08535 17.3223 7.66786 17.3653Z" fill="white"/>
<path d="M11.6421 7.69153C12.624 9.00115 12.9685 10.0276 13.053 10.7067C13.0957 11.0579 13.1059 11.5614 13.1362 11.7676C13.3115 11.4784 13.3887 11.1396 13.3561 10.8023C13.1926 8.9551 11.7083 7.73801 11.6421 7.69153Z" fill="#083751"/>
<path d="M4.35525 9.74174C4.16102 9.83255 4.21267 10.2152 4.24042 10.4915L4.27756 10.4484C4.32238 10.0563 4.38898 9.8403 4.59473 9.81663C4.59473 9.8149 4.54991 9.65093 4.35525 9.74174Z" fill="#083751"/>
<path d="M6.79915 7.39199C6.57119 7.50733 6.21731 7.54563 6.00387 7.59556C6.27067 7.701 6.66169 7.64376 6.87172 7.53358C7.14706 7.39199 7.26146 7.06706 7.27384 6.75891C7.12358 7.01498 7.0493 7.2646 6.79915 7.39199Z" fill="#082E44"/>
<path d="M17.1169 10.7187C17.151 10.5978 17.2364 10.4175 17.195 10.0882C17.2935 10.2764 17.3548 10.482 17.3756 10.6938C18.1709 9.72025 17.3884 8.32671 17.277 8.22901C17.5813 8.14294 17.7892 7.89375 18.0027 7.54042C17.7039 7.54988 17.528 7.53224 17.2616 7.4367C17.8012 7.15351 17.6825 6.3797 17.5813 5.94804C17.2625 6.17097 16.7353 6.11287 16.3976 5.905C15.9908 5.65366 15.9255 5.3382 15.4294 5.02446C15.5772 4.96729 15.7044 4.86649 15.7944 4.73525C15.8929 4.58856 15.9571 4.42125 15.9822 4.24592C16.0625 3.75701 15.9195 3.16181 15.6091 2.77189C15.0051 3.59648 13.7864 3.28102 13.7006 3.25993C13.7748 2.72412 13.3894 1.40933 12.4831 1.39298C12.5727 2.1216 12.0229 2.34453 11.5124 1.96322C11.3156 1.52855 11.0385 1.12098 10.6338 0.877823C10.1685 0.597651 9.55809 0.542133 9.02747 0.559348C8.59376 0.571828 8.17627 0.691042 7.83861 0.809824C7.94277 0.512437 8.33593 0.21505 8.40636 0.185785C7.38184 -0.338839 5.6645 0.297681 5.44124 1.46657C5.39855 0.895899 5.40879 0.410869 5.42459 0.349756C4.38769 0.787875 4.36165 2.16679 4.37403 2.65913L3.13095 1.46571L4.39794 4.41591C4.36507 4.51016 4.32067 4.62249 4.26987 4.74127C4.1845 4.94011 4.08845 5.15788 4.00606 5.34767C3.93687 5.49347 3.87768 5.64388 3.8289 5.79784C3.78024 6.02206 4.12174 6.84235 4.08503 7.12941C4.04697 7.4125 3.99209 7.69304 3.92068 7.9695C3.82335 8.36243 3.70255 8.75536 3.59668 9.05705C3.55058 9.18874 3.50661 9.30322 3.46861 9.39231C3.04259 9.74392 3.03319 10.3206 3.02807 10.5905C3.01953 11.0398 3.69998 11.5515 3.96465 11.7142C4.00734 11.74 4.05686 11.7693 4.11107 11.8002C4.29703 11.9068 4.49066 11.9992 4.69035 12.0765C4.81845 12.1287 4.95384 12.1603 5.09162 12.1704C5.50783 12.1785 6.53064 11.5605 6.66767 11.3836C6.8047 11.2068 6.9302 10.2388 7.07406 9.89541C7.3208 9.30451 7.50094 9.55112 8.28812 8.64346C8.44478 8.94816 8.79354 9.71552 8.98052 10.8194C8.00893 11.7606 7.66316 12.9919 7.62858 14.0855C7.52932 14.1838 7.43636 14.2883 7.35025 14.3984C7.14309 14.6571 6.96686 14.9395 6.82519 15.2398C6.63864 15.6392 6.16993 15.9 5.65596 16.1173C5.49673 16.1844 5.33281 16.2464 5.17187 16.3097C4.93453 16.4014 4.7023 16.49 4.49954 16.5847C3.82122 16.9019 3.54161 17.2982 3.42763 17.7501C3.33842 18.1052 3.53094 18.6242 3.6176 18.8308C3.5685 19.231 3.43916 20.3862 3.54844 20.6745C3.68163 21.0257 3.71364 21.1019 4.17852 21.6713C4.34543 22.5514 4.77146 23.7267 5.61669 24C6.35775 23.8821 6.82007 21.9192 6.83287 21.1522L6.77226 21.0197C6.77226 21.0197 5.9091 20.069 5.87025 19.7496C5.83141 19.4303 5.87965 19.2009 5.63803 18.4891C5.81055 18.4098 5.98987 18.3466 6.17377 18.3002C6.1981 18.5085 6.28945 18.8549 6.59297 19.29C7.10224 20.0186 7.41856 21.3894 7.75622 21.6045C8.09388 21.8197 8.73805 21.6231 8.73805 21.6231C8.73805 21.6231 10.5079 23.1857 12.1749 22.3181C12.2393 21.9148 12.0976 21.2801 11.9158 20.7158C11.859 20.5389 11.7975 20.3694 11.7378 20.2153C11.5922 19.8417 11.4534 19.5642 11.3962 19.5138C11.3962 19.5138 10.9036 19.2057 9.80653 19.432C9.73396 19.3559 9.41551 19.2823 9.29428 19.265C9.19353 19.0684 9.00229 18.5235 9.09578 18.4667C9.19567 18.406 9.75147 18.5097 10.1203 18.5915C10.5301 18.6819 11.0001 19.2074 11.8765 19.2237C12.8156 19.2418 14.2026 18.564 14.6418 17.7174C15.1357 16.7676 14.968 15.4007 14.2794 14.8628C14.7426 15.8621 14.6209 16.7039 14.2312 17.3404C13.6489 18.2851 12.5612 18.6905 11.9064 18.678C11.4101 18.6631 10.9255 18.5222 10.4977 18.2683C10.4977 18.2683 8.67743 17.8173 8.5579 18.2326C8.50454 18.4211 8.60401 18.7409 8.72866 19.0352C8.82908 19.2671 8.94312 19.4927 9.07016 19.7109C9.07016 19.7109 9.5043 19.6894 9.54315 20.0049C9.65 19.9147 9.77145 19.8438 9.90216 19.7953C9.98203 19.7655 10.0645 19.7433 10.1485 19.729C10.3113 19.8393 10.4353 19.9987 10.5028 20.1843C10.5771 20.3939 10.5698 20.619 10.5369 20.8299C10.4989 21.0748 10.4255 21.2998 10.4059 21.4604C10.3856 21.6155 10.427 21.7724 10.5211 21.8968C9.96832 21.7875 9.35959 21.5525 9.04113 21.1496C8.20957 21.2065 8.05717 21.4152 7.79037 20.5859C7.52357 19.7565 6.92721 18.9143 6.68304 18.5717C6.61191 18.4611 6.58379 18.3279 6.60406 18.1977C6.62932 18.0107 6.70097 17.833 6.81238 17.6813C6.9438 17.4923 7.12346 17.3427 7.33233 17.2483C7.91715 16.9901 10.2928 16.3751 10.6437 15.9025C10.9945 15.43 10.8349 14.4221 12.542 13.78C12.0541 13.6203 10.6432 14.3282 10.2928 15.5811C9.63023 16.0179 7.93807 16.5141 7.47747 16.6514C7.08067 16.7667 6.72507 16.9945 6.45295 17.3077C6.33259 17.4454 6.23709 17.6033 6.17078 17.7742C6.17078 17.779 6.16694 17.7837 6.16566 17.7884C5.78915 17.9223 5.17572 18.137 5.17017 18.434C5.16376 18.7667 5.39855 19.2478 5.38361 19.9373C5.38019 20.1146 5.67816 20.4864 5.95648 20.7955C5.89501 21.4565 5.177 21.7117 4.88501 21.9325C4.80459 21.9925 4.74068 22.0722 4.69932 22.164C4.63052 21.9315 4.58434 21.6929 4.56143 21.4513C4.19389 20.9448 4.05942 20.8058 3.99155 20.5906C3.94117 20.4305 4.0146 19.5637 4.05942 19.0843C4.11406 19.0778 4.23316 19.1622 4.46837 19.2939C4.15931 18.811 3.76829 18.2657 3.92452 17.7742C4.03637 17.4299 4.29506 17.297 4.74243 17.0478C4.87348 16.9746 5.1215 16.8722 5.41221 16.7525C5.56546 16.6893 5.73024 16.6208 5.89629 16.549C6.48753 16.2942 7.09156 15.9968 7.22219 15.7313C7.42026 15.325 7.5637 15.1287 7.66657 14.9566C7.70517 15.3069 7.78058 15.6522 7.89154 15.9865C7.86465 13.5764 8.73293 12.0662 9.07571 11.5653C9.11443 12.0463 9.11443 12.5298 9.07571 13.0109C9.63621 12.4819 9.58157 9.83688 8.60145 8.16446C8.9643 7.36827 8.62151 6.57208 8.34532 6.26651C8.46997 6.83202 8.57199 7.25637 8.353 7.78444C8.37919 7.51873 8.34065 7.2506 8.24073 7.00331C8.23646 6.99126 8.21896 6.99944 8.22152 7.01106C8.30306 7.36267 8.25653 7.71945 8.13614 8.05729C8.09644 8.16661 8.05077 8.27506 8.0004 8.38007C7.66444 8.79581 7.12956 8.92665 6.85422 9.41985C6.64718 9.33033 6.18999 9.16593 5.86129 9.29935C5.76997 9.32862 5.68329 9.37094 5.60388 9.42502C5.5306 9.47251 5.46935 9.53662 5.42502 9.61223C5.53003 9.49388 5.8519 9.39704 6.10803 9.40092C6.15072 9.40393 6.37141 9.43448 6.49222 9.72111C6.49222 9.72714 6.48923 9.7323 6.48881 9.73445L6.49393 9.72412C6.55284 9.86787 6.58656 10.0757 6.56138 10.3753C6.49094 10.6709 6.42264 10.9382 6.32232 11.0609C6.13193 11.295 5.50783 11.6707 5.1723 11.7357C5.02686 11.7597 4.87764 11.741 4.74243 11.6819C4.86104 11.5856 4.9899 11.5029 5.12663 11.4353C5.80964 11.1035 6.15968 10.9008 6.25872 10.7148C6.39361 10.4626 6.13065 10.0452 5.83183 9.87088C5.95136 9.83387 6.08455 9.87562 6.18188 9.90015C6.0457 9.74564 5.65511 9.65957 5.5074 9.80374C5.14712 10.1554 5.15096 10.9378 4.53155 11.1977C4.3712 11.2629 4.20343 11.3077 4.0321 11.3311L4.02868 11.3286C3.68291 11.0871 3.46947 10.7544 3.44471 10.4902C3.41696 10.2104 3.47288 9.84463 3.70596 9.62944C3.73625 9.60108 3.76929 9.57585 3.80457 9.55413C3.88098 9.36907 3.97532 9.08072 4.07223 8.76612C4.27499 8.0956 4.47819 7.30672 4.49655 7.13888C4.52344 6.89228 4.2242 6.22993 4.25194 5.92006C4.26603 5.75566 4.44703 5.42083 4.57296 5.20522C4.61565 5.13334 4.65065 5.0761 4.672 5.03995L4.72621 5.16433L4.77658 5.28096C4.78643 5.29211 4.79698 5.3026 4.80817 5.31238C4.65193 5.69971 4.63742 6.19206 4.73347 6.58284C4.75609 6.33537 4.77615 6.09135 4.84446 5.85121C4.88714 5.69928 4.94178 5.55296 4.996 5.40534C5.14754 5.43848 5.38574 5.41567 5.73664 5.19403C5.88465 5.10673 6.00354 4.97699 6.07815 4.82132C6.07939 4.81795 6.08081 4.81464 6.08241 4.81143L6.33854 4.51576C6.35597 4.58802 6.38251 4.65774 6.41752 4.7232C6.41752 4.57601 6.49478 4.35308 6.59852 4.14994C6.62882 4.09012 6.66169 4.03202 6.69499 3.97779C6.97374 3.52892 7.50564 3.39378 7.84373 3.22766C7.70969 3.35375 7.56796 3.4734 7.43734 3.60337C7.31433 3.72152 7.21238 3.86011 7.13596 4.01308C7.05108 4.1884 7.01592 4.38396 7.03436 4.57816V4.6014C7.03778 4.5928 7.04119 4.58376 7.04418 4.57515C7.12956 4.34478 7.2536 4.13092 7.41087 3.94293C7.51997 3.81332 7.64088 3.6943 7.77201 3.58745C7.85739 3.51601 7.98546 3.42089 8.09431 3.31158C8.07443 3.47351 8.04406 3.63395 8.00338 3.79187C7.96393 3.9409 7.89719 4.08117 7.80659 4.20546C7.7511 4.27949 7.68706 4.35265 7.62517 4.4271C7.41813 4.67629 7.23884 4.9358 7.52442 5.25686C7.4224 4.97927 7.79464 4.71373 7.9513 4.53986C8.01971 4.46513 8.08089 4.384 8.13401 4.29756C8.18883 4.20862 8.23582 4.11502 8.27445 4.01782C8.36133 4.07064 8.44309 4.13159 8.51863 4.19987C9.05181 4.67758 9.32245 5.49357 8.72908 5.66012C9.01979 5.82667 10.239 5.92222 10.0584 4.53125C10.4101 4.75031 10.7841 4.93494 11.1551 5.14582C12.6675 6.00657 12.2714 7.00546 12.1437 7.12941C12.4903 7.1208 12.8993 6.85655 12.8873 6.02723C12.8873 6.02938 12.8895 6.03196 12.8903 6.03454C13.164 6.84795 13.1665 7.31189 13.1665 7.31189C13.3825 7.11994 13.6203 6.8699 13.6515 6.39864C13.6668 6.4774 13.888 7.25594 13.8363 8.04352C13.9883 7.99188 14.3827 7.90279 14.6094 7.29037C14.6807 7.50556 14.9044 7.96347 15.0469 8.47002C15.1417 8.80614 15.2121 9.1655 15.1976 9.51669C15.1729 10.0938 14.8988 10.3774 14.877 10.4428C14.8967 10.4459 15.5353 10.4979 15.9259 9.83086C16.3101 10.5306 16.9111 11.604 17.8281 12.6007C17.858 12.6334 17.9036 12.6808 17.9561 12.7333C18.0206 12.5224 18.0876 12.3124 18.1589 12.1037C17.8281 11.7985 17.4546 11.3518 17.1169 10.7187ZM10.5305 19.7109C10.6887 19.7216 10.8451 19.7505 10.9967 19.797C11.0722 19.9786 11.1738 20.2274 11.2759 20.4886C11.3399 20.653 11.4039 20.8226 11.4616 20.9852C11.614 21.4126 11.7245 21.7883 11.675 21.8748C11.6255 21.9613 11.3429 21.9919 10.9672 21.9609C10.7418 21.6368 10.7487 21.3958 10.7965 20.9994C10.8029 20.9444 10.8106 20.8858 10.8182 20.8239C10.8332 20.6718 10.8219 20.5184 10.7849 20.3702C10.7276 20.1407 10.6421 19.9192 10.5305 19.7109ZM5.63419 21.787C5.88135 21.5998 6.05125 21.2706 6.15584 21.0081C6.2553 21.1122 6.3394 21.1966 6.38764 21.2443C6.33812 21.9088 6.15242 23.1539 5.45874 23.4672C5.2453 23.3811 5.05832 23.0945 4.90977 22.7567C4.98661 22.2613 5.20773 22.1111 5.63419 21.787ZM5.69481 10.0379C5.72478 10.0373 5.75469 10.041 5.7836 10.0491C5.77421 10.3129 5.4566 10.6481 5.4566 10.6481C5.70633 10.5057 5.8758 10.3847 5.97484 10.1709C6.02717 10.227 6.06553 10.2948 6.08676 10.3688C6.10798 10.4428 6.11147 10.5209 6.09693 10.5965C6.05083 10.7983 5.23164 11.1388 4.85043 11.2958C5.39812 10.9386 5.42587 10.0456 5.69481 10.0383V10.0379ZM5.59918 4.94226C5.44337 5.06319 5.23292 5.13593 5.07711 5.09461L5.069 5.07697L4.83891 4.59624L3.85708 2.54681L4.51277 3.21216C4.47734 3.27629 4.43038 3.34773 4.35994 3.36451C4.40094 3.37397 4.44376 3.37137 4.48333 3.35703C4.5229 3.34269 4.55756 3.3172 4.5832 3.2836L4.89227 3.59864C4.82909 3.74066 4.72536 3.91539 4.56527 3.94293C4.77061 4.00233 4.9277 3.87063 5.00069 3.70967L5.39428 4.11035C5.35159 4.26528 5.26622 4.45465 5.05704 4.54072C5.00675 4.56186 4.95394 4.57632 4.89995 4.58376C5.13388 4.63971 5.30165 4.56956 5.40794 4.45465C5.46171 4.39409 5.50138 4.32219 5.52405 4.24419L5.6662 4.38837L5.80153 4.52652C5.84635 4.66983 5.74731 4.82821 5.59918 4.94269V4.94226ZM16.9116 10.3008C16.7869 10.1816 16.3139 9.62815 16.1124 9.36132C16.2102 9.05361 16.1927 8.841 16.1257 8.52769C16.0403 9.04414 15.674 9.63719 15.4853 9.87519C15.5707 9.55327 15.5374 9.20725 15.4853 8.88318C15.4218 8.51986 15.3168 8.16518 15.1724 7.82618C14.8612 7.06012 14.8612 7.06012 14.5923 6.3939C14.4365 7.03043 14.3033 7.32738 14.0958 7.58474C14.107 7.38102 14.0936 7.1767 14.0561 6.9762C14.0412 6.89228 13.9127 6.23983 13.3061 5.36273C13.3595 5.76943 13.5196 6.25145 13.3292 6.70635C13.3164 6.3655 13.0935 5.37866 12.4173 4.98487C12.6065 5.31367 12.7729 6.34398 12.5454 6.6078C12.5676 6.03971 12.1753 5.51638 11.7476 5.17165C11.4317 4.9173 9.68317 3.9339 9.67719 3.9339C9.68018 3.9382 10.0029 5.358 9.29641 5.47033C9.44795 5.12603 9.22512 4.51232 8.86697 4.1125C8.71585 3.94336 8.5404 3.81124 8.35855 3.75572C8.36239 3.73722 8.36581 3.71871 8.3688 3.69977C8.42771 3.36494 8.40465 2.97589 8.29238 2.68108C7.98631 3.01247 7.21664 3.02667 6.79915 3.39163C6.6173 3.54785 6.42691 3.78714 6.34964 4.06086L6.21646 4.24635L6.11827 4.38277C6.11345 4.35509 6.1033 4.32863 6.08839 4.30488L6.06705 4.28422L4.93837 3.20054C4.67584 2.69701 4.60412 1.48164 5.16718 0.940657C5.14199 1.26128 5.16376 2.79728 5.73835 3.05551C5.34007 2.10869 5.76311 0.346313 7.76049 0.335554C7.39465 0.610562 7.11462 1.06073 6.9921 1.36199C6.86009 1.50745 6.74309 1.66607 6.64291 1.8354C6.7872 1.74933 7.25421 0.949265 9.00656 0.9441C9.47186 0.9441 9.97729 0.995315 10.3897 1.23202C9.68103 1.05514 8.92588 1.44721 8.33763 1.84616C8.75256 1.71188 9.35532 1.30949 10.2044 1.4769C10.7747 1.58923 11.0091 2.11902 11.4799 2.39273C11.8641 2.61567 12.4097 2.59931 12.6611 2.18271C12.7235 2.07912 12.7548 1.95954 12.7512 1.83841C12.8589 1.95374 12.953 2.08127 13.0316 2.21843C13.2064 2.52371 13.2796 2.8774 13.2404 3.22766C13.0399 3.21493 12.8386 3.22445 12.6402 3.25606C12.4267 3.28231 12.2133 3.30814 11.9999 3.2836C11.7006 3.24594 11.4123 3.14599 11.1533 2.99009C11.0642 2.93665 10.9787 2.87742 10.8972 2.81278C10.946 2.88377 10.9995 2.95135 11.0573 3.01505C11.2715 3.25508 11.5506 3.4268 11.8603 3.50912C12.361 3.64512 12.8494 3.45575 13.3497 3.54484C13.6728 3.60208 14.0429 3.74711 14.4216 3.7837C14.7135 3.81167 15.0102 3.77509 15.2941 3.58486C15.4092 3.50517 15.5059 3.40157 15.578 3.28102C15.6769 3.55542 15.6893 3.85397 15.6134 4.13574L15.6006 4.17878C15.5555 4.33771 15.4739 4.48369 15.3624 4.60485L15.35 4.61776C15.242 4.72492 15.1114 4.7615 14.9885 4.83553C14.5752 4.66338 14.1129 4.60485 13.6651 4.5773C14.0672 4.70641 14.4796 4.83553 14.8604 5.01887C15.2412 5.2022 15.4973 5.49227 15.7637 5.81505C15.9852 6.08447 16.2435 6.32849 16.5905 6.41155C16.8289 6.46857 17.0785 6.45633 17.3103 6.37626C17.3726 6.72701 17.0499 7.29898 16.6004 7.37472C16.8179 7.51451 17.0522 7.626 17.2975 7.70654C17.1267 7.8619 16.719 7.97724 16.4565 7.99102C17.087 8.32412 17.4038 9.21155 17.3897 9.93242C17.2889 9.71207 17.1724 9.45902 16.9081 9.26664C16.9833 9.5778 16.9696 9.95394 16.9133 10.3013L16.9116 10.3008Z" fill="#083751"/>
<path d="M6.90928 6.7137C6.88111 6.55791 6.82391 6.38576 6.71548 6.26956C6.87451 6.15575 7.05738 6.08036 7.24994 6.04921C6.77354 5.93387 6.45337 6.11549 6.09052 6.47097C5.86385 6.69305 5.59406 7.25124 5.53899 7.41478C5.47368 7.60845 5.02673 7.45007 5.02673 7.45007C5.11979 7.56885 5.31317 7.72034 5.51893 7.72422C5.67303 7.72723 5.67688 7.64374 5.74774 7.49569C6.16736 7.30159 6.62114 7.29901 6.79275 7.15742C6.9238 7.04939 6.93789 6.88585 6.90928 6.7137ZM5.84208 7.31192C5.98893 7.04595 6.23225 6.67239 6.54985 6.39867C6.63523 6.47399 6.6856 6.64269 6.70267 6.74942C6.76841 7.15785 6.4077 7.01238 5.84037 7.31235L5.84208 7.31192Z" fill="#083751"/>
<path d="M4.32836 9.21713C3.9177 9.52054 3.92196 10.284 4.09144 10.5513C4.04661 10.1906 4.14181 9.43791 4.48374 9.43232C4.70743 9.42758 4.82055 9.49644 4.87263 9.54464L4.9102 9.58983C4.91496 9.55496 4.91322 9.51949 4.90507 9.48525C4.9008 9.04369 5.1548 8.64646 5.31147 8.22986C5.05705 8.51287 4.84297 8.83024 4.67541 9.1728C4.57936 9.12073 4.45898 9.12073 4.32836 9.21713Z" fill="#083751"/>
</svg>
