<svg width="28" height="28" viewBox="0 0 28 28" fill="none" xmlns="http://www.w3.org/2000/svg">
<path d="M17.6265 9.71996L11.9065 15.4533L9.70651 13.2533C9.58698 13.1137 9.43989 13.0004 9.27447 12.9203C9.10905 12.8403 8.92887 12.7953 8.74525 12.7882C8.56162 12.7811 8.37851 12.8121 8.20741 12.8791C8.03631 12.9461 7.88092 13.0478 7.75098 13.1778C7.62104 13.3077 7.51936 13.4631 7.45233 13.6342C7.38529 13.8053 7.35435 13.9884 7.36145 14.172C7.36854 14.3557 7.41351 14.5358 7.49354 14.7013C7.57357 14.8667 7.68693 15.0138 7.82651 15.1333L10.9598 18.28C11.0844 18.4035 11.2322 18.5013 11.3946 18.5677C11.5571 18.634 11.731 18.6676 11.9065 18.6666C12.2563 18.6652 12.5915 18.5263 12.8398 18.28L19.5065 11.6133C19.6315 11.4893 19.7307 11.3419 19.7984 11.1794C19.8661 11.0169 19.9009 10.8426 19.9009 10.6666C19.9009 10.4906 19.8661 10.3163 19.7984 10.1539C19.7307 9.99138 19.6315 9.84391 19.5065 9.71996C19.2567 9.47163 18.9188 9.33224 18.5665 9.33224C18.2143 9.33224 17.8763 9.47163 17.6265 9.71996ZM13.9998 0.666626C11.3628 0.666626 8.7849 1.44861 6.59224 2.9137C4.39958 4.37878 2.69062 6.46116 1.68145 8.89751C0.672281 11.3339 0.408237 14.0148 0.922706 16.6012C1.43718 19.1876 2.70705 21.5634 4.57175 23.4281C6.43645 25.2928 8.81223 26.5626 11.3986 27.0771C13.9851 27.5916 16.6659 27.3275 19.1023 26.3184C21.5386 25.3092 23.621 23.6002 25.0861 21.4076C26.5512 19.2149 27.3332 16.637 27.3332 14C27.3332 12.249 26.9883 10.5152 26.3182 8.89751C25.6482 7.27984 24.666 5.80998 23.4279 4.57187C22.1898 3.33375 20.72 2.35163 19.1023 1.68157C17.4846 1.0115 15.7508 0.666626 13.9998 0.666626ZM13.9998 24.6666C11.8902 24.6666 9.82788 24.041 8.07376 22.869C6.31964 21.6969 4.95246 20.031 4.14513 18.0819C3.33779 16.1328 3.12656 13.9881 3.53813 11.919C3.94971 9.84987 4.96561 7.94925 6.45737 6.45749C7.94913 4.96573 9.84975 3.94983 11.9189 3.53825C13.988 3.12667 16.1327 3.33791 18.0818 4.14524C20.0309 4.95258 21.6968 6.31975 22.8689 8.07388C24.0409 9.828 24.6665 11.8903 24.6665 14C24.6665 16.8289 23.5427 19.542 21.5423 21.5424C19.5419 23.5428 16.8288 24.6666 13.9998 24.6666Z" fill="currentColor"/>
</svg>
