<svg width="10" height="12" viewBox="0 0 10 12" fill="none" xmlns="http://www.w3.org/2000/svg">
<path d="M5.71 6.53994C5.61704 6.44621 5.50643 6.37182 5.38458 6.32105C5.26272 6.27028 5.13201 6.24414 5 6.24414C4.86799 6.24414 4.73728 6.27028 4.61542 6.32105C4.49356 6.37182 4.38296 6.44621 4.29 6.53994L1.29 9.53994C1.09639 9.72824 0.985516 9.98574 0.981765 10.2558C0.978014 10.5258 1.0817 10.7863 1.27 10.9799C1.4583 11.1735 1.7158 11.2844 1.98586 11.2882C2.25591 11.2919 2.51639 11.1882 2.71 10.9999L5 8.65994L7.29 10.9999C7.38296 11.0937 7.49356 11.1681 7.61542 11.2188C7.73728 11.2696 7.86799 11.2957 8 11.2957C8.13201 11.2957 8.26272 11.2696 8.38458 11.2188C8.50643 11.1681 8.61704 11.0937 8.71 10.9999C8.80373 10.907 8.87812 10.7964 8.92889 10.6745C8.97966 10.5527 9.0058 10.422 9.0058 10.2899C9.0058 10.1579 8.97966 10.0272 8.92889 9.90536C8.87812 9.7835 8.80373 9.6729 8.71 9.57994L5.71 6.53994ZM2.71 5.45994L5 3.15994L7.29 5.45994C7.38296 5.55367 7.49356 5.62806 7.61542 5.67883C7.73728 5.7296 7.86799 5.75574 8 5.75574C8.13201 5.75574 8.26272 5.7296 8.38458 5.67883C8.50643 5.62806 8.61704 5.55367 8.71 5.45994C8.80373 5.36698 8.87812 5.25637 8.92889 5.13452C8.97966 5.01266 9.0058 4.88195 9.0058 4.74994C9.0058 4.61793 8.97966 4.48722 8.92889 4.36536C8.87812 4.2435 8.80373 4.1329 8.71 4.03994L5.71 1.03994C5.61704 0.946211 5.50643 0.871816 5.38458 0.821048C5.26272 0.770279 5.13201 0.744141 5 0.744141C4.86799 0.744141 4.73728 0.770279 4.61542 0.821048C4.49356 0.871816 4.38296 0.946211 4.29 1.03994L1.29 4.03994C1.10169 4.22824 0.995907 4.48364 0.995907 4.74994C0.995907 5.01624 1.10169 5.27164 1.29 5.45994C1.4783 5.64824 1.7337 5.75403 2 5.75403C2.2663 5.75403 2.5217 5.64824 2.71 5.45994Z" fill="white" fill-opacity="0.5"/>
</svg>
