<svg width="37" height="34" viewBox="0 0 37 34" fill="none" xmlns="http://www.w3.org/2000/svg">
<path d="M27.7112 20.8627C28.6158 19.2497 30.0756 19.2497 30.9803 20.8627L36.6139 31.0712C37.5186 32.6841 36.7784 34 34.969 34H23.6196C21.8308 34 21.0906 32.6841 21.9747 31.0712L27.7112 20.8627ZM16.814 1.20974C17.7187 -0.403246 19.1579 -0.403246 20.0626 1.20974L21.3168 3.54432L24.2775 8.91386C24.9972 10.4419 24.9972 12.2459 24.2775 13.774L14.3468 31.5381C13.4421 32.9813 11.9412 33.8939 10.2758 34H2.03095C0.221621 34 -0.518561 32.7054 0.386106 31.0712L16.814 1.20974Z" fill="#47B7FE"/>
</svg>
