<svg width="40" height="40" viewBox="0 0 40 40" fill="none" xmlns="http://www.w3.org/2000/svg">
<path d="M9.28341 20.0003L4.87229 24.3613L0.450073 20.0003L4.86118 15.6393L9.28341 20.0003ZM20.0056 9.39995L27.5723 16.8806L31.9834 12.5196L20.0056 0.666992L8.01674 12.5196L12.4278 16.8806L20.0056 9.39995ZM35.139 15.6393L30.7278 20.0003L35.139 24.3613L39.5501 20.0003L35.139 15.6393ZM20.0056 30.6007L12.439 23.12L8.02785 27.481L20.0056 39.3337L31.9834 27.481L27.5723 23.12L20.0056 30.6007ZM20.0056 24.3613L24.4167 20.0003L20.0056 15.6393L15.5834 20.0003L20.0056 24.3613Z" fill="#47B7FE"/>
</svg>
