<svg width="26" height="44" viewBox="0 0 26 44" fill="none" xmlns="http://www.w3.org/2000/svg">
<path fill-rule="evenodd" clip-rule="evenodd" d="M15.6 15.2563L23.4 10.6131V19.8995L15.6 15.2563ZM23.4 35.1558L13 41.3467L2.6 35.1558V24.3216L13 30.5126L23.4 24.3216V35.1558ZM2.6 10.6131L10.4 15.2563L2.6 19.8995V10.6131ZM14.3 17.4673L22.1 22.1106L14.3 26.7538V17.4673ZM11.7 26.7538L3.9 22.1106L11.7 17.4673V26.7538ZM22.1 8.40201L13 13.7085L3.9 8.40201L13 2.87437L22.1 8.40201ZM0 7.51759V36.4824L13 44L26 36.4824V7.51759L13 0L0 7.51759Z" fill="#47B7FE"/>
</svg>
