<svg width="44" height="42" viewBox="0 0 44 42" fill="none" xmlns="http://www.w3.org/2000/svg">
<g clip-path="url(#clip0)">
<path d="M42.2754 12.7685C41.1666 10.2737 39.5826 8.0225 37.5674 6.0989C35.5522 4.1753 33.1938 2.6633 30.5802 1.6049C27.8698 0.512896 24.9922 -0.0415039 22.0266 -0.0415039C19.061 -0.0415039 16.1834 0.512896 13.473 1.6049C10.8506 2.6633 8.50099 4.1753 6.48579 6.0989C4.46179 8.0309 2.87779 10.2737 1.76899 12.7685C0.62499 15.3557 0.0441895 18.1025 0.0441895 20.9333C0.0441895 23.7641 0.62499 26.5109 1.76899 29.0981C2.87779 31.6013 4.46179 33.8441 6.47699 35.7677C8.49219 37.6913 10.8506 39.2033 13.4642 40.2617C16.1746 41.3537 19.0522 41.9081 22.0178 41.9081C24.9834 41.9081 27.861 41.3537 30.5714 40.2617C33.185 39.2033 35.5434 37.6913 37.5586 35.7677C39.5738 33.8441 41.1578 31.5929 42.2666 29.0981C43.4106 26.5109 43.9914 23.7641 43.9914 20.9333C44.0002 18.1109 43.4194 15.3557 42.2754 12.7685ZM22.0178 1.6049C23.241 1.6049 24.429 1.7057 25.5906 1.9073C22.8538 2.2685 19.413 4.1501 15.5938 9.4505L15.5498 9.5177C7.84099 10.7105 4.18899 13.6169 2.55219 15.5741C4.99859 7.5101 12.8042 1.6049 22.0178 1.6049ZM1.76899 20.9333C1.76899 19.4801 1.93619 18.0605 2.26179 16.6997C6.23939 13.6169 12.3466 13.2137 13.5698 13.1633C10.877 18.5309 7.26899 27.4097 7.46259 34.3565C3.93379 30.8789 1.76899 26.1497 1.76899 20.9333ZM22.0178 40.2701C16.509 40.2701 11.5018 38.1617 7.84979 34.7345C9.33699 30.3161 12.6106 20.2277 17.7058 12.8105C29.6122 12.2897 35.4642 16.2713 35.4642 16.2629C32.5426 8.6777 22.4314 8.7869 20.8826 8.8457C24.0594 5.5445 27.7818 3.5201 32.0498 4.1333C38.157 7.4765 42.2754 13.7597 42.2754 20.9333C42.2754 31.6013 33.1938 40.2701 22.0178 40.2701ZM24.5522 21.9581C22.1322 21.9581 20.161 23.8229 20.161 26.1245C20.161 28.4261 22.1234 30.2909 24.5522 30.2909C26.9722 30.2909 28.9434 28.4261 28.9434 26.1245C28.9434 23.8229 26.9722 21.9581 24.5522 21.9581Z" fill="#47B7FE"/>
</g>
<defs>
<clipPath id="clip0">
<rect width="44" height="42" fill="white"/>
</clipPath>
</defs>
</svg>
