<svg width="29" height="44" viewBox="0 0 29 44" fill="none" xmlns="http://www.w3.org/2000/svg">
<path d="M20 13.5383C20 7.22313 16.7337 1.78437 14.2461 0.0191102C14.2461 0.0191102 14.0547 -0.0803413 14.0745 0.174503C13.87 12.376 7.25163 15.6827 3.61584 20.1332C-4.7775 30.414 3.02197 41.6831 10.9798 43.7653C15.414 44.9339 9.95043 41.7017 9.24439 34.8831C8.37998 26.6535 20 20.3632 20 13.5383Z" fill="#89C8F0"/>
<path d="M23.6443 17.0303C23.5946 16.9984 23.5263 16.9729 23.4828 17.0557C23.3524 18.629 21.7876 21.9921 19.8006 25.0878C13.0632 35.572 16.9007 40.6295 19.0616 43.3493C20.316 44.9226 19.0616 43.3493 22.1913 41.7378C26.0598 39.3301 28.5685 35.1644 28.941 30.5401C29.5558 23.0877 25.1967 18.3933 23.6443 17.0303Z" fill="#47B7FE"/>
</svg>
