<svg width="34" height="26" viewBox="0 0 34 26" fill="none" xmlns="http://www.w3.org/2000/svg">
<path d="M0 3.18506L16.6574 12.7407V19.1112L5.55246 12.7407V25.4817L0 22.2964V3.18506Z" fill="#A5D8F8"/>
<path d="M5.55225 25.4816V12.7407L11.1047 15.926V22.2964L5.55225 25.4816Z" fill="#52AAE2"/>
<path d="M0 3.18523L5.55246 0L22.2099 9.55569L16.6574 12.7409L0 3.18523Z" fill="#47B7FE"/>
<path d="M16.6572 12.7409L22.2097 9.55566V15.9261L16.6572 19.1114V12.7409Z" fill="#52AAE2"/>
<path d="M22.21 3.18506V22.2964L27.7625 25.4817V6.37029L22.21 3.18506Z" fill="#A5D8F8"/>
<path d="M33.3147 3.18506L27.7622 6.37029V25.4817L33.3147 22.2964V3.18506Z" fill="#52AAE2"/>
<path d="M27.7625 0L33.3149 3.18523L27.7625 6.37046L22.21 3.18523L27.7625 0Z" fill="#47B7FE"/>
</svg>
