<svg id="Layer_1" data-name="Layer 1" xmlns="http://www.w3.org/2000/svg" xmlns:xlink="http://www.w3.org/1999/xlink" viewBox="0 0 600 600"><defs><style>.cls-1{fill:url(#linear-gradient);}.cls-2{fill:#fff;}</style><linearGradient id="linear-gradient" x1="600.01" y1="1544.52" x2="594.53" y2="1539.9" gradientTransform="matrix(80, 0, 0, -80, -47481.11, 123676.3)" gradientUnits="userSpaceOnUse"><stop offset="0" stop-color="#b6509e"/><stop offset="1" stop-color="#30bac6"/></linearGradient></defs><title>MediaKit</title><g id="Group_16085" data-name="Group 16085"><circle id="Ellipse_991" data-name="Ellipse 991" class="cls-1" cx="300" cy="300" r="295"/><path id="Path_2434" data-name="Path 2434" class="cls-2" d="M429.09,417.54,329.32,176.4a26.85,26.85,0,0,0-25-18.58h-8.85a26.83,26.83,0,0,0-25,18.58l-43.37,105H194.24a18,18,0,0,0-17.9,17.83v.25a18,18,0,0,0,17.9,17.83h17.64L170.45,417.54a21,21,0,0,0-1.22,6.84,18.81,18.81,0,0,0,4.9,13.44A17.22,17.22,0,0,0,187.41,443a17.9,17.9,0,0,0,10.32-3.42,21.74,21.74,0,0,0,7-9.08l45.58-113.12H282a18,18,0,0,0,17.89-17.83V299A18,18,0,0,0,282,281.21H265.1l34.81-86.73,94.87,236a21.74,21.74,0,0,0,7.11,9,17.93,17.93,0,0,0,10.33,3.42,17.18,17.18,0,0,0,13.27-5.16,18.86,18.86,0,0,0,4.91-13.44A16.2,16.2,0,0,0,429.09,417.54Z"/></g></svg>