<?xml version="1.0" encoding="UTF-8"?>
<svg width="50px" height="50px" viewBox="0 0 50 50" version="1.1" xmlns="http://www.w3.org/2000/svg" xmlns:xlink="http://www.w3.org/1999/xlink">
    <!-- Generator: Sketch 57.1 (83088) - https://sketch.com -->
    <title>Group</title>
    <desc>Created with Sketch.</desc>
    <g id="Page-2" stroke="none" stroke-width="1" fill="none" fill-rule="evenodd">
        <g id="Group">
            <circle id="Oval" fill="#00D395" cx="25" cy="25" r="25"></circle>
            <g id="compound-logo-dark" transform="translate(12.000000, 9.000000)" fill="#FFFFFF">
                <path d="M1.24412185,24.1602519 C0.472144926,23.6880185 0,22.8472296 0,21.9442111 L0,16.9022333 C0,16.7092296 0.0516947963,16.5232296 0.148191481,16.3577815 C0.448021185,15.8407704 1.11316063,15.6651037 1.6301063,15.9683296 L13.0098963,22.6024444 C13.6750185,22.9918963 14.085137,23.7019111 14.085137,24.4738111 L14.085137,29.6984593 C14.085137,29.9362407 14.0195778,30.1740222 13.8955778,30.3773593 C13.5199037,30.9908148 12.7203333,31.1838185 12.1068778,30.8081444 L1.24412185,24.1602519 Z M18.2068741,14.5863037 C18.8719963,14.9757556 19.2821148,15.6857704 19.2821148,16.4576704 L19.2821148,27.0585222 C19.2821148,27.3721963 19.1132222,27.6616444 18.8409963,27.8133148 L16.3492852,29.2160074 C16.3182852,29.2332296 16.2838407,29.2470074 16.2493963,29.2573407 L16.2493963,23.3710148 C16.2493963,22.6093333 15.8496111,21.9028778 15.1948222,21.5099815 L5.20049111,15.5306556 L5.20049111,8.88615 C5.20049111,8.6931463 5.25219222,8.50705444 5.34868259,8.34162926 C5.64851,7.82467556 6.31365519,7.64891704 6.83059741,7.95218889 L18.2068741,14.5863037 Z M23.1868519,6.7563237 C23.8554185,7.14230815 24.265537,7.85914296 24.265537,8.63112333 L24.265537,24.1154741 C24.265537,24.4324778 24.0897556,24.7253704 23.8106407,24.8770407 L21.4498185,26.1521741 L21.4498185,15.3720963 C21.4498185,14.6105296 21.0501481,13.9074037 20.3988037,13.5145074 L10.1838674,7.38700148 L10.1838674,1.08368422 C10.1838674,0.890690852 10.235557,0.704589815 10.3286144,0.539165778 C10.6284419,0.0222188481 11.2935756,-0.153543 11.8105407,0.146286704 L23.1868519,6.7563237 Z" id="Shape"></path>
            </g>
        </g>
    </g>
</svg>