<?xml version="1.0" encoding="UTF-8"?>
<svg width="50px" height="50px" viewBox="0 0 50 50" version="1.1" xmlns="http://www.w3.org/2000/svg" xmlns:xlink="http://www.w3.org/1999/xlink">
    <!-- Generator: Sketch 57.1 (83088) - https://sketch.com -->
    <title>Group 3</title>
    <desc>Created with Sketch.</desc>
    <g id="Page-2" stroke="none" stroke-width="1" fill="none" fill-rule="evenodd">
        <g id="Group-3">
            <circle id="Oval" fill="#21262B" cx="25" cy="25" r="25"></circle>
            <g id="download" transform="translate(17.000000, 11.000000)" fill="#FFFFFF">
                <path d="M11.6092018,1.18788771 C12.6334829,1.41189974 13.8280345,1.84584681 15.1943756,2.49083432 L14.4258716,3.91912427 C13.1736662,3.30269703 12.1068215,2.8687662 11.2249416,2.61655152 C10.3430616,2.39253951 9.44647095,2.28052538 8.53596216,2.28052538 C7.31278173,2.28052538 6.3593132,2.56092645 5.67671228,3.12096462 C4.96470654,3.68100279 4.60986765,4.42353735 4.60986765,5.347788 C4.60986765,6.24422625 4.89389397,7.0145733 5.46349854,7.6588131 C6.06057623,8.27524035 7.38397404,9.17130465 9.43253628,10.3477701 C11.2818195,11.4126114 12.619152,12.322769 13.4437578,13.0790066 C14.2977849,13.8634469 14.9238711,14.7038862 15.3220661,15.6003243 C15.6919953,16.4967626 15.87696,17.5753233 15.87696,18.8359902 C15.87696,21.3291216 15.1796649,23.3037467 13.7858342,24.7606131 C12.3916238,26.1892932 10.4421232,26.9032512 7.93848823,26.9032512 C5.51999672,26.9032512 3.58519029,26.2171058 2.13408548,24.8452049 C0.711229743,23.4999624 0,21.6937406 0,19.4234834 C0,17.2945646 0.61178834,15.5584511 1.83534851,14.2139727 C3.03027986,12.8413077 4.95075536,11.818746 7.59717126,11.1463199 C5.83301507,10.166054 4.60983464,9.241413 3.92647424,8.37278745 C3.24349359,7.47672315 2.90219313,6.482364 2.90219313,5.38971 C2.90219313,4.04560547 3.41452355,2.95257768 4.43880467,2.11213844 C5.49171461,1.27207305 6.84298178,0.851861565 8.49336564,0.851861565 C9.57457421,0.851861565 10.6131697,0.96385944 11.6092018,1.18788771 Z M5.34473833,13.2450938 C4.49016354,13.664903 3.80680782,14.1688136 3.29351419,14.7560787 C2.78099742,15.3159489 2.39632884,15.9880788 2.14026879,16.7709746 C1.85515158,17.5546335 1.71297313,18.4360997 1.71297313,19.4149994 C1.71297313,21.2350278 2.28243072,22.68968 3.42212272,23.7816191 C4.56103789,24.8720318 6.08541499,25.4181962 7.994064,25.4181962 C9.95927364,25.4181962 11.4832706,24.8590893 12.5656251,23.7389919 C13.6479796,22.5910934 14.1895536,20.9408106 14.1895536,18.7862438 C14.1895536,17.3308284 13.7905382,16.0718067 12.9929208,15.0083996 C12.2239638,13.9450085 10.8990861,12.9512501 9.01949425,12.0275301 C7.39594593,12.4195707 6.17065264,12.8253008 5.34473833,13.2450938 Z" id="Shape"></path>
            </g>
        </g>
    </g>
</svg>