<?xml version="1.0" encoding="UTF-8"?>
<svg width="100px" height="100px" viewBox="0 0 100 100" version="1.1" xmlns="http://www.w3.org/2000/svg" xmlns:xlink="http://www.w3.org/1999/xlink">
    <!-- Generator: Sketch 54.1 (76490) - https://sketchapp.com -->
    <title>uniswap</title>
    <desc>Created with Sketch.</desc>
    <g id="Page-1" stroke="none" stroke-width="1" fill="none" fill-rule="evenodd">
        <g id="uniswap">
            <circle id="Oval" fill="#FFFFFF" cx="50" cy="50" r="50"></circle>
            <path d="M43.3000928,76.4344589 C42.7814898,75.994021 42.313033,75.4963472 41.9037108,74.9507397 C41.7395914,74.7695903 41.5726303,74.5909181 41.3985659,74.4187381 C40.5338834,73.5065241 39.5134853,72.7574406 38.3861237,72.2070886 C37.6085158,71.8637586 36.7950109,71.6101627 35.9606468,71.4511775 C35.5410393,71.3633943 35.1165566,71.2999953 34.6920982,71.24635 C34.49806,71.2268426 33.5472731,71.0146998 33.4138719,71.1390594 C34.7258123,69.9249687 36.1558977,68.8464542 37.6827354,67.9203413 C39.2503211,66.9849623 40.933602,66.2612384 42.6889196,65.7672139 C44.5089975,65.252219 46.4125117,65.105426 48.2893457,65.3356131 C49.2554131,65.4521697 50.2015916,65.6982066 51.1028988,66.0671399 C52.047137,66.4463147 52.9188534,66.9876445 53.6787552,67.6667453 C54.4308956,68.3790086 55.0387201,69.2312374 55.4687572,70.1758824 C55.8568335,71.0602983 56.1464354,71.9851921 56.3322269,72.9337386 C56.8852357,75.7696243 56.6814956,80.1661006 60.3754968,80.8147211 C60.5680797,80.8522728 60.7623604,80.879827 60.9576113,80.8976275 L61.561555,80.912258 C61.9767967,80.8825092 62.3893703,80.8230117 62.7961227,80.7342531 C63.6387334,80.535034 64.4602424,80.2531523 65.2482798,79.8929973 C64.9062876,80.1661006 64.5642954,80.4562729 64.1883465,80.7098689 C63.8099721,80.9605388 63.4136492,81.1821914 63.0022883,81.3731199 C62.1460949,81.7930163 61.2045248,82.0075975 60.2517975,81.9997946 C57.6710902,81.9510261 55.8471316,80.0197952 54.7799217,77.8374068 C54.0522787,76.3499689 53.550205,74.7430483 52.6867352,73.3263246 C51.4521675,71.2999953 49.3395772,69.6686904 46.8655908,69.9710548 C45.8565924,70.0978528 44.9106564,70.5538379 44.3503713,71.4341085 C42.8756813,73.7335412 44.9931226,76.9546978 47.6926784,76.4987127 C47.922371,76.4635994 48.1469702,76.4014196 48.36211,76.3133926 C48.5765221,76.221464 48.776624,76.0992991 48.9563518,75.9500676 C49.3335135,75.6342918 49.6177794,75.221223 49.7785885,74.7552404 C49.9558908,74.2692627 49.9954261,73.7432949 49.8925859,73.236103 C49.7817416,72.7059899 49.4705529,72.2400073 49.0242652,71.9364236 C49.5430747,72.1805098 49.9474017,72.617719 50.1521119,73.155635 C50.3643411,73.709157 50.4191569,74.3112036 50.3097679,74.8942305 C50.2037746,75.5016416 49.9374572,76.0693065 49.5384663,76.5377275 C49.3264796,76.7786436 49.0815064,76.9881042 48.8108232,77.1595253 C48.5425655,77.3289957 48.2551465,77.4655474 47.9546299,77.5667419 C47.3453501,77.7759586 46.6967776,77.8435029 46.057907,77.7642541 C45.1607231,77.6357493 44.3144742,77.2668159 43.6081753,76.696225 C43.5022794,76.6120463 43.3998216,76.5245683 43.3000928,76.4344589 Z M42.4545198,75.5676197 C42.2899305,75.3912669 42.1293183,75.2111202 41.9728197,75.0273287 C42.1342048,75.2068495 42.2934029,75.3882358 42.4545198,75.5676197 Z M45.8350056,42.7411873 C47.4042892,45.5185509 43.8946242,46.3793142 42.2477254,46.5378116 C39.7519097,46.7816539 39.2352831,45.3356692 39.722804,43.5190442 C39.8826429,42.8687168 40.2377327,42.2834954 40.7398064,41.8431162 C41.2416376,41.4024932 41.8664404,41.127683 42.5290807,41.0562372 C43.1820191,40.996252 43.8383531,41.1223184 44.4231356,41.4202937 C45.007918,41.7185128 45.4973793,42.1762048 45.8350056,42.7411873 Z M55.6312641,37.6058689 C59.6041952,41.8706704 67.8944751,39.7077894 74.2565009,43.6604727 C81.3971047,48.0935254 80.3541497,56.7060348 77.9286728,59.8759844 C78.3967899,48.7128848 53.8073055,51.6316769 55.6312641,37.6058689 Z M69.7984744,32.3169298 C69.638393,32.168186 69.4734605,32.0218807 69.3133791,31.8755753 C69.475886,32.0243191 69.638393,32.1803781 69.7984744,32.3169298 Z M75.5080469,42.5339214 L75.4934941,42.5119756 C75.2715629,42.0974437 75.0185857,41.7004685 74.7367453,41.3244637 C73.9077173,40.1954739 72.7187486,39.3864052 71.3677579,39.0323462 C70.4686337,38.7989892 69.5491354,38.6536592 68.6221182,38.598307 C67.6834586,38.5300311 66.7253952,38.4910164 65.75763,38.4398095 C63.8172485,38.3325189 61.830783,38.1325682 59.8904015,37.5766078 C59.4053061,37.4376177 58.9202107,37.2864355 58.4520937,37.1035538 C58.209546,37.0157706 57.9839767,36.9206721 57.7438545,36.8182583 C57.5037322,36.7158446 57.2587591,36.5988003 57.0162114,36.4744407 C56.1039896,35.9721256 55.2587109,35.3549608 54.5009919,34.6383083 C53.0068982,33.2410921 51.8329674,31.6561172 50.6566111,30.1199109 C49.5476831,28.5778523 48.3575016,27.0965104 47.0911601,25.6820301 C45.841797,24.2964207 44.3651667,23.13678 42.7253018,22.2536076 C41.027468,21.3938685 39.1833779,20.8643894 37.2898081,20.693017 C39.2542018,20.4786065 41.2411525,20.7222537 43.0963997,21.4050365 C44.9686253,22.1357343 46.6802843,23.2284403 48.1341152,24.6213162 C49.0834468,25.5163393 49.9748095,26.4717865 50.8021397,27.4815374 C56.9628509,26.262326 61.9593332,27.3449857 65.7988631,29.4469062 L65.8861803,29.4907978 C67.108378,30.1572187 68.2536882,30.9570214 69.3012517,31.8755753 C69.4686096,32.0218807 69.633542,32.168186 69.786347,32.3169298 C70.6042178,33.0723532 71.365575,33.8875179 72.0638698,34.7553526 L72.1172303,34.8260669 C74.3850512,37.7131595 75.5056215,40.714858 75.5080469,42.5339214 Z M37.6024521,22.5070329 C39.1741611,22.7362447 40.7774013,23.3653578 41.8106545,24.5650618 C42.8439076,25.7647658 43.2247075,27.3254783 43.5230411,28.8104778 C43.7655888,29.9614134 43.9572015,31.1342948 44.4083402,32.2242697 C44.6266331,32.7558459 44.946796,33.2215847 45.2135985,33.7238998 C45.4343169,34.1408701 45.836946,34.5161433 45.9921765,34.9623747 C46.0200695,35.0265052 46.0302565,35.0969757 46.0222525,35.1662269 C46.0142484,35.2357219 45.9878107,35.3015593 45.9460925,35.3576431 C45.3979347,35.9672488 43.9183938,35.2893672 43.3605342,35.0162639 C42.3961646,34.5356507 41.5324523,33.8733751 40.8162089,33.0655256 C38.5774938,30.5661422 37.4205413,26.9694686 37.4908802,23.6945448 C37.5064032,23.29696 37.5437556,22.9005212 37.6024521,22.5070329 Z M63.8926808,50.6880073 C67.8995686,53.460494 74.254318,55.3453948 76.4032904,60.5172896 C78.8602985,66.4085191 76.0491708,73.8335166 70.1285818,76.2914468 C75.8987913,66.6060314 60.4970132,60.2149252 63.8926808,50.6880073 Z M43.5208582,63.1483478 C44.4461776,62.4470574 45.457844,61.8693951 46.530875,61.4292597 C47.6162759,60.9922944 48.7424248,60.6655457 49.8925859,60.4538906 C52.1749596,60.0174129 54.4330786,59.9101223 56.3298015,59.1420191 C57.2670057,58.7740611 58.1292627,58.2368766 58.8741267,57.5570443 C59.5949784,56.8835519 60.1470169,56.0479044 60.4846433,55.1186215 C60.8305163,54.1381317 60.9709514,53.0961936 60.8969744,52.0584009 C60.811355,50.943554 60.5603182,49.8479706 60.152353,48.8079833 C60.9978742,49.6919115 61.6134602,50.771889 61.9445378,51.9520856 C62.275858,53.1325261 62.3124827,54.3766094 62.0515014,55.5746066 C61.754623,56.8425864 61.1140545,58.0032757 60.2008625,58.9274379 C59.2968873,59.8228268 58.2066354,60.5055852 57.008935,60.9269446 C55.8658077,61.3300159 54.6739284,61.5760528 53.4653133,61.6584715 C52.3010844,61.7560084 51.1756631,61.782831 50.0696457,61.8486685 C47.833356,61.9430354 45.6249594,62.38122 43.5208582,63.1483478 Z M40.4671828,36.7792436 C40.3325689,37.2988715 40.0977827,37.7870437 39.7759219,38.2154746 C39.1768291,38.9972329 38.3836982,39.6068386 37.4765699,39.9833311 C36.6603969,40.3369024 35.7961995,40.5653827 34.9127681,40.6612127 C34.7211554,40.6855969 34.5222905,40.7002274 34.3306779,40.714858 C33.7711204,40.7363161 33.2330768,40.9372421 32.7953025,41.2881312 C32.3575525,41.6392641 32.0430651,42.1218279 31.8979003,42.6655962 C31.8314423,42.9360173 31.7820353,43.2105837 31.7499705,43.4873447 C31.6626533,44.204241 31.6481005,44.9503984 31.5704852,45.8526148 C31.3804248,47.3878458 30.9386485,48.8808921 30.2631289,50.271037 C29.3851063,52.1291151 28.400387,53.6263068 28.6283818,55.767242 C28.7787614,57.157143 29.4869763,58.0886205 30.4280614,59.0493591 C32.1258952,60.7952698 35.9266902,61.5755651 35.0777005,65.8769429 C34.5659249,68.4446022 30.3310423,71.1390594 24.3789221,72.0802906 C24.9707384,71.9900689 23.6197478,69.7003899 23.5348561,69.5540845 C22.8969557,68.5494543 22.1984426,67.6033463 21.691518,66.5133713 C20.6970725,64.3992587 20.2362076,61.9535206 20.6436877,59.637019 C21.0729971,57.1985962 22.8678743,55.3307643 24.3595425,53.4678093 C26.1349916,51.2512829 27.9977335,48.3471214 28.4100646,45.4697825 C28.5070837,44.7723935 28.574997,43.8994382 28.7302276,43.0313596 C28.8782302,42.0696457 29.1778978,41.1379243 29.6179521,40.271065 C29.9183231,39.7026687 30.3137971,39.190356 30.7870319,38.7568045 C31.0337757,38.5266173 31.1965737,38.2198638 31.2493278,37.885556 C31.3021062,37.5514921 31.2418088,37.2091375 31.0780892,36.9133568 L21.5896237,19.7565895 L35.2184509,36.6646377 C35.3736814,36.860443 35.56966,37.019672 35.7930464,37.1308641 C36.0161902,37.2420562 36.2611634,37.3025291 36.5102599,37.3076498 C36.7593564,37.3130143 37.0065124,37.2632705 37.2342647,37.1618321 C37.462017,37.0603937 37.6647869,36.9096992 37.828264,36.7207214 C38.000958,36.5183323 38.0987047,36.2622979 38.1052535,35.9957783 C38.1120448,35.7292587 38.0269106,35.4685913 37.8646462,35.2576677 C36.9744962,34.1140474 36.0334111,32.9484813 35.1214318,31.8024226 L31.6917591,27.5351827 L24.8082315,19.0153334 L11,2 L25.6911051,18.2520827 L33.0184706,26.3964392 L36.673737,30.478359 C37.8864754,31.8511911 39.0992139,33.1801315 40.3119523,34.6236778 L40.5108414,34.8675201 L40.5545,35.2454756 C40.6134391,35.7580321 40.5840908,36.2769285 40.4671828,36.7792436 Z" id="Combined-Shape" fill="#FF007A" fill-rule="nonzero"></path>
        </g>
    </g>
</svg>