<svg width="24" height="24" viewBox="0 0 24 24" fill="none" xmlns="http://www.w3.org/2000/svg">
<circle cx="12" cy="12" r="12" fill="white"/>
<path d="M21 16.5997C21 18.2419 16.9704 19.5762 11.9926 19.5762C7.02963 19.5909 3 18.2566 3 16.5997C3 15.4266 5.04444 14.4149 8.00741 13.931C9.19259 14.195 10.5556 14.3416 12.0074 14.3416C13.4593 14.3416 14.837 14.195 16.0074 13.931C18.9704 14.4149 21 15.4413 21 16.5997Z" fill="black"/>
<path d="M12.0074 8.91646C15.0184 8.91646 17.4593 8.12212 17.4593 7.14225C17.4593 6.16238 15.0184 5.36804 12.0074 5.36804C8.99645 5.36804 6.55557 6.16238 6.55557 7.14225C6.55557 8.12212 8.99645 8.91646 12.0074 8.91646Z" fill="black"/>
<path d="M19.2222 11.2771C19.2222 12.5821 15.9925 13.6231 12.0074 13.6231C8.02217 13.6231 4.79254 12.5674 4.79254 11.2771C4.79254 10.368 6.37772 9.5762 8.70365 9.1803C9.6518 9.4149 10.7925 9.54687 12.0074 9.54687C13.2222 9.54687 14.3481 9.4149 15.2962 9.1803C17.6222 9.5762 19.2222 10.3533 19.2222 11.2771Z" fill="black"/>
</svg>
