<svg width="24" height="24" viewBox="0 0 24 24" fill="none" xmlns="http://www.w3.org/2000/svg">
<circle cx="12" cy="12" r="12" fill="#152642"/>
<path d="M18 12.8449C18 14.513 18 16.1211 18 17.762C16.2375 18.8304 14.4597 19.9043 12.6511 21C12.6511 19.3428 12.6511 17.7347 12.6511 16.083C14.4033 15.02 16.1812 13.9461 18 12.8449Z" fill="white"/>
<path d="M16.6423 11.9237C15.3256 12.7305 14.0037 13.5318 12.6511 14.3604C12.6511 12.6978 12.6511 11.0842 12.6511 9.44339C13.9627 8.64205 15.2846 7.83527 16.6423 7.00667C16.6423 8.6584 16.6423 10.272 16.6423 11.9237Z" fill="white"/>
<path d="M11.0014 9.43799C11.0014 11.0679 11.0014 12.6815 11.0014 14.355C9.65394 13.5319 8.33209 12.7251 7.00512 11.9183C7.00512 10.2938 7.00512 8.67482 7.00512 7.00128C8.35258 7.82442 9.67955 8.63121 11.0014 9.43799Z" fill="white"/>
<path d="M7 13.6354C8.35771 14.4639 9.67956 15.2707 11.0014 16.0775C11.0014 17.7074 11.0014 19.321 11.0014 20.9945C9.6437 20.1714 8.32185 19.3646 7 18.5578C7 16.9225 7 15.3089 7 13.6354Z" fill="white"/>
<path d="M7.84022 5.45852C9.18769 4.61902 10.4788 3.81769 11.7904 3C13.1122 3.80679 14.4392 4.61902 15.8174 5.45852C14.4495 6.29801 13.1225 7.10479 11.7904 7.91703C10.4839 7.10479 9.18256 6.29801 7.84022 5.45852Z" fill="white"/>
</svg>
