<svg width="24" height="24" viewBox="0 0 24 24" fill="none" xmlns="http://www.w3.org/2000/svg">
<path d="M1 14L2 16L9 19L11 18.5L18 22L23 19V15.5L22 13.5L23 11V5L15 1L1 8V14Z" fill="white"/>
<path d="M23.9822 8.05957C23.9644 9.66432 24.2133 11.3404 23.1111 12.749C22.9155 12.9986 23.1644 13.1948 23.2888 13.3731C23.7511 14.0863 23.9822 14.8709 23.9822 15.7089C23.9822 16.7966 23.9644 17.9021 23.9644 18.9897C23.9466 20.1844 23.4311 21.1651 22.6133 21.9853C20.0177 24.5885 14.7555 24.6599 12.0711 22.1636C11.4311 21.5752 10.9333 20.8798 10.7022 20.0239C10.6133 19.6673 10.4533 19.5603 10.0977 19.6673C8.88883 20.0239 7.76884 19.7386 6.68439 19.1859C5.3155 18.4905 3.92884 17.8486 2.57773 17.1175C0.835503 16.226 -0.0356082 14.7639 -5.2613e-05 12.749C0.0177252 11.483 -5.2613e-05 10.1992 -5.2613e-05 8.93327C-5.2613e-05 7.82777 0.46217 7.00756 1.4755 6.5083C5.59995 4.42212 9.74217 2.35377 13.8844 0.285422C14.6488 -0.106851 15.4133 -0.0711898 16.1777 0.303253C18.3288 1.37309 20.4977 2.46076 22.6488 3.54842C23.5199 3.97636 23.9999 4.67175 23.9822 5.67027C23.9822 6.45481 23.9822 7.25719 23.9822 8.05957ZM1.7955 9.78914C1.38661 10.7877 1.61773 11.8397 1.58217 12.8738C1.54661 14.2111 2.15106 15.1918 3.35995 15.7981C4.49773 16.3686 5.65328 16.8857 6.7555 17.5276C8.26661 18.4192 9.70661 18.4726 11.2533 17.5633C11.8399 17.2067 12.1066 16.9035 12.0355 16.226C11.8577 14.5499 12.7288 13.4622 14.1333 12.7668C15.9466 11.8575 17.8488 11.7148 19.6977 12.4994C20.6577 12.9095 21.2266 12.642 21.7244 11.9466C22.8977 10.3597 22.5244 8.61232 22.1511 6.86492C22.7022 5.50979 22.6311 5.34932 21.3866 4.72524C19.5199 3.78022 17.6355 2.85303 15.7866 1.87235C15.2355 1.58706 14.7911 1.56923 14.2222 1.87235C10.3644 3.83371 6.47106 5.77725 2.5955 7.70295C1.43995 8.27353 1.36884 8.50533 1.7955 9.78914ZM17.2444 12.749C16.0355 12.8382 14.8799 13.07 13.8844 13.7832C12.4444 14.8174 12.3911 16.4756 13.7422 17.6168C15.5022 19.0967 19.0222 19.0789 20.7644 17.5989C22.0444 16.5113 22.0088 14.9065 20.6933 13.8723C19.6799 13.07 18.4711 12.8382 17.2444 12.749Z" fill="#292F32"/>
<path d="M1.79556 9.78909C1.35112 8.50529 1.44001 8.27349 2.59556 7.68508C6.47112 5.74154 10.3645 3.81584 14.2222 1.85447C14.7911 1.56918 15.2356 1.56918 15.7867 1.85447C17.6356 2.83515 19.52 3.76235 21.3867 4.70737C22.6311 5.33144 22.7022 5.49192 22.1511 6.84704C18.0445 8.89756 13.92 10.9481 9.81334 13.0164C9.42223 13.2126 9.03112 13.4444 8.5689 13.1947C6.3289 12.0536 4.07112 10.9303 1.79556 9.78909Z" fill="#9F2020"/>
<path opacity="0.8" d="M3.00001 8.5C2.20269 8.10015 2.59557 7.68508 2.59557 7.68508C6.47112 5.74154 10.3645 3.81584 14.2222 1.85447C14.7911 1.56918 15.2356 1.56918 15.7867 1.85447C17.6356 2.83515 19.52 3.76235 21.3867 4.70737L22 5C17.8933 7.05052 13.92 8.94808 9.81335 11.0164C9.42224 11.2126 9.03113 11.4444 8.5689 11.1947C6.3289 10.0536 5.27556 9.64116 3.00001 8.5Z" fill="#DB3044"/>
<path d="M17.1733 14.2644C17.7422 14.2288 18.2756 14.3179 18.7733 14.6389C19.7867 15.2808 19.7511 16.3863 18.6667 16.939C18.2222 17.1708 17.7245 17.2778 17.2089 17.1887C17.1911 16.208 17.1911 15.2451 17.1733 14.2644Z" fill="#77B255"/>
<path opacity="0.8" d="M17.1733 14.2645C17.1733 15.2452 17.1911 16.2081 17.2089 17.1887C15.9466 17.1709 15.1111 16.6538 15.04 15.8515C14.9689 14.9956 15.68 14.4785 17.1733 14.2645Z" fill="#EF9135"/>
<path d="M6 7.5C6 7.22386 6.22386 7 6.5 7C6.77614 7 7 7.22386 7 7.5V8.5C7 8.77614 6.77614 9 6.5 9C6.22386 9 6 8.77614 6 8.5V7.5Z" fill="#EB596B"/>
<path d="M10 5.5C10 5.22386 10.2239 5 10.5 5C10.7761 5 11 5.22386 11 5.5V9.5C11 9.77614 10.7761 10 10.5 10C10.2239 10 10 9.77614 10 9.5V5.5Z" fill="#EB596B"/>
<path d="M14 3.5C14 3.22386 14.2239 3 14.5 3C14.7761 3 15 3.22386 15 3.5V7.5C15 7.77614 14.7761 8 14.5 8C14.2239 8 14 7.77614 14 7.5V3.5Z" fill="#EB596B"/>
<path d="M18 4.5C18 4.22386 18.2239 4 18.5 4C18.7761 4 19 4.22386 19 4.5V5.5C19 5.77614 18.7761 6 18.5 6C18.2239 6 18 5.77614 18 5.5V4.5Z" fill="#EB596B"/>
</svg>
