<?xml version="1.0" encoding="UTF-8" standalone="no"?>
<svg
   xmlns:dc="http://purl.org/dc/elements/1.1/"
   xmlns:cc="http://creativecommons.org/ns#"
   xmlns:rdf="http://www.w3.org/1999/02/22-rdf-syntax-ns#"
   xmlns:svg="http://www.w3.org/2000/svg"
   xmlns="http://www.w3.org/2000/svg"
   xmlns:sodipodi="http://sodipodi.sourceforge.net/DTD/sodipodi-0.dtd"
   xmlns:inkscape="http://www.inkscape.org/namespaces/inkscape"
   width="26"
   height="26"
   viewBox="0 0 26 26"
   fill="none"
   version="1.1"
   id="svg4"
   sodipodi:docname="ghost.svg"
   inkscape:version="0.92.1 r15371">
  <metadata
     id="metadata10">
    <rdf:RDF>
      <cc:Work
         rdf:about="">
        <dc:format>image/svg+xml</dc:format>
        <dc:type
           rdf:resource="http://purl.org/dc/dcmitype/StillImage" />
        <dc:title></dc:title>
      </cc:Work>
    </rdf:RDF>
  </metadata>
  <defs
     id="defs8" />
  <sodipodi:namedview
     pagecolor="#ffffff"
     bordercolor="#666666"
     borderopacity="1"
     objecttolerance="10"
     gridtolerance="10"
     guidetolerance="10"
     inkscape:pageopacity="0"
     inkscape:pageshadow="2"
     inkscape:window-width="1920"
     inkscape:window-height="1001"
     id="namedview6"
     showgrid="false"
     inkscape:zoom="3.2091769"
     inkscape:cx="-29.854927"
     inkscape:cy="5.2429257"
     inkscape:window-x="-9"
     inkscape:window-y="-9"
     inkscape:window-maximized="1"
     inkscape:current-layer="svg4" />
  <g
     id="zAwxcp.tif"
     transform="matrix(0.09946112,0,0,0.11442052,-2.3475534,-3.8938014)">
    <path
       d="m 226,112.48 c 5.66,0 10.82,-0.77 15.63,0.19 7.14,1.42 10.38,7.59 7.81,14.45 a 70.2,70.2 0 0 1 -7.46,14 c -4.41,6.61 -9.44,12.81 -13.95,19.36 a 11.14,11.14 0 0 0 -1.72,5.9 c -0.13,14.61 0.06,29.22 -0.09,43.83 -0.15,14.42 -5.62,26.8 -15.38,37.27 a 23.34,23.34 0 0 1 -6.35,4.7 c -4.74,2.43 -8.49,0.8 -10,-4.37 a 37.31,37.31 0 0 1 -1.22,-8.32 c -0.5,-8.13 -4.94,-12.78 -13.05,-13.42 -9.13,-0.72 -16.24,3.92 -17.66,11.7 -0.53,2.94 -0.54,6 -1,8.9 -1.12,6.63 -5.88,11.37 -11.27,11.44 -5.39,0.07 -10.25,-4.72 -11.47,-11.27 a 52,52 0 0 1 -0.43,-5.45 18.91,18.91 0 0 0 -22.08,-17 c -5.65,1 -9.09,5 -9.63,11.06 -0.33,3.63 -0.4,7.35 -1.29,10.85 -1.72,6.75 -6.85,8.91 -12.38,4.73 A 45.13,45.13 0 0 1 82.6,239.8 51.12,51.12 0 0 1 74.53,211 c 0.09,-14.78 0.17,-29.56 -0.07,-44.33 a 15,15 0 0 0 -2.67,-7.54 C 66.38,151 60.64,143 55.05,135 a 21.33,21.33 0 0 1 -1.69,-3 C 50.96,126.91 48.88,121.6 53.03,116.59 57.18,111.58 63,111 69,112 a 53,53 0 0 1 5.55,1.58 c 2.2,-20.93 11,-38.46 27,-52 A 73.17,73.17 0 0 1 145.07,44 c 20.62,-1.32 39,4.77 54.72,18.25 15.72,13.48 24.03,30.88 26.21,50.23 z m -76.39,47.45 c 5.69,0.32 10.55,-3.57 10.81,-8.65 0.25,-4.9 -3.92,-9.1 -9.47,-9.54 -5.71,-0.45 -11,3.83 -11.16,8.95 -0.14,4.8 4.21,8.93 9.78,9.24 z m 34.84,-45.19 c 0,-6.25 -2.25,-9.16 -7.14,-9.2 -4.89,-0.04 -7.39,3.15 -7.37,9.09 0.02,5.94 2.49,9.22 7.25,9.25 4.76,0.03 7.21,-2.97 7.22,-9.14 z m -53,-1.4 c -0.11,-5.93 -2.72,-9 -7.63,-8.82 -4.65,0.12 -7.14,3.48 -7,9.44 0.14,5.96 2.8,9 7.62,8.87 4.5,-0.15 7.03,-3.56 6.93,-9.49 z"
       style="fill:#ffffff"
       id="path2"
       inkscape:connector-curvature="0" />
    <path
       d="m 149.57,159.93 c -5.53,-0.31 -9.92,-4.44 -9.82,-9.24 0.12,-5.12 5.45,-9.4 11.16,-8.95 5.55,0.44 9.72,4.64 9.47,9.54 -0.26,5.08 -5.12,8.97 -10.81,8.65 z"
       id="path4"
       inkscape:connector-curvature="0" />
    <path
       d="m 184.41,114.74 c 0,6.17 -2.39,9.17 -7.26,9.14 -4.87,-0.03 -7.23,-3.18 -7.25,-9.25 -0.02,-6.07 2.57,-9.13 7.37,-9.09 4.8,0.04 7.14,2.95 7.14,9.2 z"
       id="path6"
       inkscape:connector-curvature="0" />
    <path
       d="m 131.37,113.34 c 0.1,5.93 -2.43,9.34 -7,9.49 -4.82,0.16 -7.5,-3 -7.62,-8.87 -0.12,-5.87 2.37,-9.32 7,-9.44 4.9,-0.14 7.51,2.89 7.62,8.82 z"
       id="path8"
       inkscape:connector-curvature="0" />
  </g>
</svg>
