<svg width="14" height="13" viewBox="0 0 14 13" fill="none" xmlns="http://www.w3.org/2000/svg">
<path d="M6.08254 1.11573C6.4307 0.312853 7.5693 0.312852 7.91745 1.11573L8.93758 3.46823C9.08248 3.80238 9.3976 4.03133 9.76017 4.06588L12.3128 4.30911C13.1839 4.39212 13.5358 5.47499 12.8798 6.05421L10.9577 7.75137C10.6846 7.99244 10.5643 8.36288 10.6435 8.71839L11.2009 11.2212C11.3912 12.0754 10.47 12.7446 9.71645 12.2997L7.50839 10.9961C7.19475 10.811 6.80525 10.811 6.49161 10.9961L4.28355 12.2997C3.52997 12.7446 2.60882 12.0754 2.79908 11.2212L3.35654 8.71839C3.43573 8.36288 3.31536 7.99244 3.04234 7.75137L1.12022 6.05421C0.464223 5.47499 0.816068 4.39212 1.68724 4.30911L4.23983 4.06588C4.6024 4.03133 4.91752 3.80238 5.06242 3.46823L6.08254 1.11573Z" fill="currentColor"/>
</svg>
