<svg width="24" height="25" viewBox="0 0 24 25" fill="currentColor" xmlns="http://www.w3.org/2000/svg">
    <path d="M16.6948 13.474L17.2391 10.047L13.8307 10.047V7.83127C13.807 7.57537 13.8433 7.3176 13.9371 7.07709C14.0308 6.83657 14.1795 6.61949 14.3722 6.44195C14.5649 6.26441 14.7966 6.13097 15.0501 6.05153C15.3036 5.97209 15.5724 5.94869 15.8365 5.98307H17.385V3.07487C16.4744 2.93134 15.554 2.85234 14.6313 2.83853C13.9974 2.7919 13.3606 2.88028 12.766 3.09739C12.1715 3.31451 11.6338 3.65505 11.191 4.09486C10.7483 4.53467 10.4114 5.06298 10.2042 5.64233C9.99694 6.22168 9.92451 6.83787 9.992 7.44722L9.992 10.047H6.87418L6.87418 13.474H9.992L9.992 21.746H13.8295L13.8295 13.474H16.6948Z" />
</svg>
