<svg width="24" height="25" viewBox="0 0 24 25" fill="currentColor" xmlns="http://www.w3.org/2000/svg">
    <path d="M12.3564 7.5775C11.3827 7.5775 10.4309 7.86633 9.62127 8.40748C8.81168 8.94862 8.18068 9.71777 7.80806 10.6177C7.43545 11.5175 7.33795 12.5078 7.52791 13.4631C7.71787 14.4184 8.18675 15.2959 8.87525 15.9846C9.56375 16.6734 10.441 17.1424 11.3959 17.3325C12.3509 17.5225 13.3408 17.425 14.2404 17.0522C15.1399 16.6795 15.9088 16.0482 16.4498 15.2384C16.9907 14.4285 17.2794 13.4763 17.2794 12.5023C17.2794 11.1962 16.7608 9.94351 15.8375 9.01994C14.9143 8.09636 13.6621 7.5775 12.3564 7.5775ZM12.3564 15.7082C11.7232 15.7073 11.1045 15.5186 10.5785 15.166C10.0525 14.8134 9.64283 14.3128 9.40118 13.7273C9.15953 13.1419 9.0968 12.4979 9.22091 11.8768C9.34502 11.2557 9.65039 10.6853 10.0984 10.2378C10.5465 9.79023 11.1171 9.4856 11.7382 9.36238C12.3593 9.23916 13.0029 9.30288 13.5878 9.54549C14.1727 9.7881 14.6725 10.1987 15.0242 10.7254C15.3759 11.2521 15.5636 11.8713 15.5636 12.5047C15.562 13.3538 15.2241 14.1677 14.6239 14.7682C14.0236 15.3686 13.21 15.7066 12.3612 15.7082H12.3564ZM18.6327 7.3757C18.6332 7.60321 18.5661 7.82574 18.4401 8.01512C18.3141 8.2045 18.1347 8.35221 17.9247 8.43955C17.7147 8.52688 17.4835 8.54992 17.2604 8.50574C17.0373 8.46156 16.8323 8.35215 16.6714 8.19136C16.5105 8.03057 16.401 7.82564 16.3566 7.60251C16.3122 7.37938 16.335 7.14809 16.422 6.93792C16.5091 6.72776 16.6566 6.54817 16.8458 6.4219C17.035 6.29562 17.2573 6.22835 17.4848 6.22858C17.7889 6.22858 18.0806 6.34944 18.2956 6.56456C18.5107 6.77969 18.6315 7.07147 18.6315 7.3757H18.6327ZM21.8951 8.54204C21.9268 7.04818 21.3695 5.60187 20.3437 4.51572C19.2558 3.49305 17.8115 2.93614 16.3188 2.96381C14.7327 2.87372 9.9789 2.87372 8.39391 2.96381C6.90056 2.933 5.45451 3.48834 4.36541 4.51091C3.34071 5.59829 2.78327 7.04436 2.81284 8.53843C2.72279 10.1252 2.72279 14.8806 2.81284 16.4662C2.78119 17.96 3.33846 19.4063 4.36421 20.4925C5.45255 21.5145 6.89662 22.0713 8.38911 22.0444C9.9753 22.1345 14.7291 22.1345 16.314 22.0444C17.8074 22.076 19.2532 21.5186 20.3389 20.4925C21.3613 19.4042 21.918 17.9593 21.8903 16.4662C21.984 14.877 21.984 10.1288 21.8939 8.54204H21.8951ZM19.8454 18.1694C19.6824 18.5829 19.4362 18.9584 19.122 19.2727C18.8078 19.587 18.4324 19.8333 18.0191 19.9964C16.7547 20.4985 13.754 20.382 12.3564 20.382C10.9587 20.382 7.95324 20.4937 6.69366 19.9964C6.28034 19.8333 5.90494 19.587 5.59076 19.2727C5.27659 18.9584 5.03035 18.5829 4.86732 18.1694C4.36541 16.9046 4.48188 13.9029 4.48188 12.5047C4.48188 11.1065 4.37021 8.10001 4.86732 6.83998C5.03035 6.42652 5.27659 6.05098 5.59076 5.7367C5.90494 5.42241 6.28034 5.17609 6.69366 5.013C7.95804 4.51091 10.9587 4.62742 12.3564 4.62742C13.754 4.62742 16.7595 4.51572 18.0191 5.013C18.4324 5.17609 18.8078 5.42241 19.122 5.7367C19.4362 6.05098 19.6824 6.42652 19.8454 6.83998C20.3473 8.10481 20.2309 11.1065 20.2309 12.5047C20.2309 13.9029 20.3461 16.9094 19.8454 18.1694Z" />
</svg>
