<svg width="24" height="25" viewBox="0 0 24 25" fill="currentColor" xmlns="http://www.w3.org/2000/svg">
    <path d="M7.24791 21.1751H3.56112V9.30579H7.24791V21.1751ZM5.40229 7.68573C4.97816 7.68771 4.56296 7.56386 4.2092 7.32987C3.85545 7.09587 3.57902 6.76223 3.41489 6.37113C3.25075 5.98004 3.20628 5.54905 3.28708 5.13268C3.36789 4.7163 3.57035 4.33324 3.86886 4.03193C4.16737 3.73062 4.54853 3.5246 4.96413 3.43991C5.37974 3.35522 5.81112 3.39568 6.20373 3.55616C6.59634 3.71664 6.93254 3.98994 7.16983 4.3415C7.40712 4.69306 7.53482 5.10708 7.53681 5.53122C7.53741 6.09936 7.31336 6.6447 6.9135 7.0483C6.51364 7.45191 5.97042 7.68104 5.40229 7.68573ZM21.0461 21.1751H17.3682V15.3971C17.3682 14.0204 17.3405 12.2537 15.4515 12.2537C13.5348 12.2537 13.2414 13.7493 13.2414 15.2971V21.1751H9.55576V9.30579H13.0914V10.9247H13.1425C13.4961 10.3196 14.0073 9.8217 14.6215 9.48415C15.2357 9.14661 15.93 8.98204 16.6304 9.008C20.3606 9.008 21.0461 11.4647 21.0461 14.6548V21.1751Z" />
</svg>
