<svg width="24" height="25" viewBox="0 0 24 25" fill="currentColor" xmlns="http://www.w3.org/2000/svg">
    <path d="M19.9632 8.55384C19.9759 8.72175 19.9759 8.88966 19.9759 9.05758C19.986 10.5078 19.7034 11.9456 19.1446 13.2874C18.5857 14.6292 17.7618 15.8482 16.7206 16.8737C15.6794 17.8992 14.4417 18.7106 13.0793 19.2609C11.717 19.8113 10.2573 20.0895 8.78489 20.0794C6.64365 20.085 4.54636 19.4812 2.74518 18.3408C3.06056 18.375 3.37769 18.391 3.69497 18.3887C5.46536 18.3932 7.18566 17.8102 8.57837 16.7336C7.75767 16.7188 6.96214 16.452 6.30286 15.9704C5.64358 15.4887 5.15347 14.8163 4.90096 14.047C5.14686 14.0852 5.39532 14.105 5.64424 14.1065C5.99332 14.1056 6.3409 14.0614 6.67878 13.975C5.78798 13.7977 4.987 13.322 4.41198 12.6288C3.83695 11.9356 3.52336 11.0677 3.5245 10.1725V10.1245C4.06953 10.424 4.67869 10.5923 5.30231 10.6158C4.46758 10.0673 3.8768 9.22582 3.65051 8.26295C3.42422 7.30008 3.57949 6.28845 4.08463 5.43449C5.07244 6.63239 6.30486 7.61239 7.70195 8.31094C9.09905 9.00948 10.6296 9.41097 12.1944 9.48935C12.1313 9.19755 12.0986 8.90016 12.097 8.60181C12.0974 7.82458 12.3349 7.0654 12.7787 6.42277C13.2226 5.78014 13.8523 5.28373 14.5861 4.99794C15.3199 4.71216 16.124 4.65019 16.894 4.82008C17.664 4.98998 18.3644 5.38389 18.9043 5.95071C19.7853 5.78368 20.6301 5.46714 21.4011 5.01519C21.1077 5.91041 20.4929 6.66949 19.6719 7.15008C20.453 7.06252 21.2164 6.86038 21.9368 6.55039C21.3981 7.32283 20.7309 8.00016 19.9632 8.55384Z" />
</svg>
