<svg width="37" height="41" viewBox="0 0 37 41" fill="currentColor" xmlns="http://www.w3.org/2000/svg">
    <path d="M18.3279 0.150879C8.4764 0.150879 0.461578 8.03643 0.461578 17.729C0.461578 18.8031 0.461578 27.1124 0.461578 27.2603C0.461578 29.1988 2.06454 30.7759 4.03484 30.7759H5.43079C5.92247 32.1398 7.2464 33.1196 8.79918 33.1196C10.7695 33.1196 12.3724 31.5425 12.3724 29.604V20.0728C12.3724 18.1342 10.7695 16.5571 8.79918 16.5571C7.2464 16.5571 5.92247 17.537 5.43079 18.9009H4.03484C3.61724 18.9009 3.21656 18.9724 2.84375 19.1024V17.729C2.84375 9.32877 9.78993 2.49463 18.3279 2.49463C26.8658 2.49463 33.812 9.32877 33.812 17.729V19.1024C33.4392 18.9724 33.0385 18.9009 32.6209 18.9009H31.225C30.7333 17.537 29.4093 16.5571 27.8566 16.5571C25.8863 16.5571 24.2833 18.1342 24.2833 20.0728V29.604C24.2833 31.5425 25.8863 33.1196 27.8566 33.1196C28.2171 33.1196 28.5653 33.0663 28.8937 32.9681C28.4481 34.4105 27.0841 35.4634 25.4744 35.4634H21.6963C21.2046 34.0995 19.8807 33.1196 18.3279 33.1196C16.3576 33.1196 14.7546 34.6967 14.7546 36.6353C14.7546 38.5738 16.3576 40.1509 18.3279 40.1509C19.8807 40.1509 21.2046 39.171 21.6963 37.8071H25.4744C28.7582 37.8071 31.4298 35.1786 31.4298 31.9478V30.7759H32.6209C34.5912 30.7759 36.1942 29.1988 36.1942 27.2603C36.1942 27.1146 36.1942 18.8023 36.1942 17.729C36.1942 8.03643 28.1793 0.150879 18.3279 0.150879ZM7.6081 20.0728C7.6081 19.4266 8.14242 18.9009 8.79918 18.9009C9.45595 18.9009 9.99027 19.4266 9.99027 20.0728V29.604C9.99027 30.2502 9.45595 30.7759 8.79918 30.7759C8.14242 30.7759 7.6081 30.2502 7.6081 29.604V20.0728ZM4.03484 21.2446H5.22592V28.4321H4.03484C3.37807 28.4321 2.84375 27.9064 2.84375 27.2603V22.4165C2.84375 21.7703 3.37807 21.2446 4.03484 21.2446ZM18.3279 37.8071C17.6711 37.8071 17.1368 37.2814 17.1368 36.6353C17.1368 35.9891 17.6711 35.4634 18.3279 35.4634C18.9846 35.4634 19.519 35.9891 19.519 36.6353C19.519 37.2814 18.9846 37.8071 18.3279 37.8071ZM29.0476 29.604C29.0476 30.2502 28.5133 30.7759 27.8566 30.7759C27.1998 30.7759 26.6655 30.2502 26.6655 29.604V20.0728C26.6655 19.4266 27.1998 18.9009 27.8566 18.9009C28.5133 18.9009 29.0476 19.4266 29.0476 20.0728V29.604ZM33.812 27.2603C33.812 27.9064 33.2777 28.4321 32.6209 28.4321H31.4298V21.2446H32.6209C33.2777 21.2446 33.812 21.7703 33.812 22.4165V27.2603Z" />
</svg>
