<svg width="56" height="56" viewBox="0 0 56 56" fill="none" xmlns="http://www.w3.org/2000/svg">
<g clip-path="url(#clip0)">
<path d="M31.1729 46C23.4848 46 15.9594 40.4678 15.9594 27.9797C15.9594 15.4508 23.4848 10 31.1729 10C34.956 10 37.9255 10.9763 40.0407 12.3593L37.7221 17.4441C36.2983 16.4271 34.1831 15.7763 32.0678 15.7763C27.4305 15.7763 23.2 19.4373 23.2 27.8983C23.2 36.3593 27.5526 40.1017 32.0678 40.1017C34.1831 40.1017 36.2983 39.4508 37.7221 38.4339L40.0407 43.6407C37.8441 45.1051 34.956 46 31.1729 46Z" fill="#47B7FE"/>
</g>
<defs>
<clipPath id="clip0">
<rect width="36" height="36" fill="white" transform="translate(10 10)"/>
</clipPath>
</defs>
</svg>
