<svg width="18" height="18" viewBox="0 0 18 18" fill="none" xmlns="http://www.w3.org/2000/svg">
<path d="M11.3235 9.4755L9.75 8.56725V5.25C9.75 5.05109 9.67099 4.86032 9.53033 4.71967C9.38968 4.57902 9.19892 4.5 9 4.5C8.80109 4.5 8.61033 4.57902 8.46967 4.71967C8.32902 4.86032 8.25 5.05109 8.25 5.25V9C8.25001 9.13165 8.28466 9.26098 8.35049 9.37499C8.41632 9.489 8.51099 9.58368 8.625 9.6495L10.5735 10.7745C10.6588 10.8245 10.7532 10.8572 10.8512 10.8706C10.9492 10.884 11.0489 10.8779 11.1445 10.8526C11.2401 10.8273 11.3298 10.7833 11.4084 10.7233C11.487 10.6632 11.5529 10.5882 11.6023 10.5025C11.6518 10.4168 11.6838 10.3222 11.6966 10.2242C11.7093 10.1261 11.7025 10.0264 11.6766 9.93098C11.6507 9.83553 11.6062 9.74614 11.5456 9.66797C11.485 9.5898 11.4095 9.52439 11.3235 9.4755ZM9 1.5C7.51664 1.5 6.0666 1.93987 4.83323 2.76398C3.59986 3.58809 2.63856 4.75943 2.07091 6.12987C1.50325 7.50032 1.35472 9.00832 1.64411 10.4632C1.9335 11.918 2.64781 13.2544 3.6967 14.3033C4.7456 15.3522 6.08197 16.0665 7.53683 16.3559C8.99168 16.6453 10.4997 16.4968 11.8701 15.9291C13.2406 15.3614 14.4119 14.4001 15.236 13.1668C16.0601 11.9334 16.5 10.4834 16.5 9C16.4978 7.01155 15.7069 5.10516 14.3009 3.69911C12.8948 2.29306 10.9885 1.50218 9 1.5ZM9 15C7.81332 15 6.65328 14.6481 5.66658 13.9888C4.67989 13.3295 3.91085 12.3925 3.45673 11.2961C3.0026 10.1997 2.88378 8.99334 3.11529 7.82946C3.3468 6.66557 3.91825 5.59647 4.75736 4.75736C5.59648 3.91824 6.66558 3.3468 7.82946 3.11529C8.99335 2.88378 10.1997 3.0026 11.2961 3.45672C12.3925 3.91085 13.3295 4.67988 13.9888 5.66658C14.6481 6.65327 15 7.81331 15 9C14.998 10.5907 14.3652 12.1157 13.2405 13.2404C12.1157 14.3652 10.5907 14.998 9 15Z" fill="#D3D6E8"/>
</svg>
