<svg width="32" height="32" viewBox="0 0 32 32" fill="currentColor" xmlns="http://www.w3.org/2000/svg">
    <path d="M26.6666 16C26.6666 16.0533 26.6666 16.0933 26.6533 16.1333C26.5866 16.44 26.32 16.6666 26 16.6666H25.3066C25.32 16.44 25.3333 16.2266 25.3333 16C25.3333 15.7733 25.32 15.56 25.3066 15.3333H26C26.32 15.3333 26.5866 15.56 26.6533 15.8666C26.6666 15.9066 26.6666 15.9466 26.6666 16Z" />
    <path d="M22.6666 16C22.6666 15.7733 22.6533 15.5466 22.6133 15.3333H25.3066C25.3199 15.56 25.3333 15.7733 25.3333 16C25.3333 16.2266 25.3199 16.44 25.3066 16.6666H22.6133C22.6533 16.4533 22.6666 16.2266 22.6666 16Z" />
    <path d="M24.32 10.3467C25.7467 11.76 26.56 13.6133 26.6533 15.8667C26.5867 15.56 26.32 15.3333 26 15.3333H25.3067C25.1733 14.0267 24.6667 12.8 23.8267 11.7733L24.32 11.28C24.5867 11.0267 24.5867 10.6 24.32 10.3467Z" />
    <path d="M26 16.6666C26.32 16.6666 26.5867 16.44 26.6533 16.1333C26.6267 18.2133 25.8133 20.1733 24.32 21.6533C24.5867 21.4 24.5867 20.9733 24.32 20.72L23.8267 20.2266C24.6667 19.2 25.1733 17.9733 25.3067 16.6666H26Z" />
    <path d="M24.32 10.3467C24.5866 10.6 24.5866 11.0267 24.32 11.28L23.8266 11.7733C23.6933 11.6 23.5466 11.44 23.3866 11.28C23.2266 11.12 23.0666 10.9733 22.8933 10.84L23.3866 10.3467C23.64 10.08 24.0666 10.08 24.32 10.3467Z" />
    <path d="M22.8933 21.16C23.0666 21.0266 23.2266 20.88 23.3866 20.72C23.5466 20.56 23.6933 20.4 23.8266 20.2266L24.32 20.72C24.5866 20.9733 24.5866 21.4 24.32 21.6533C24.2 21.7866 24.0266 21.8533 23.8533 21.8533C23.68 21.8533 23.5066 21.7866 23.3866 21.6533L22.8933 21.16Z" />
    <path d="M20.9867 19.2533C21.1734 19.1333 21.3334 18.9867 21.4934 18.8267C21.6534 18.6667 21.8 18.4933 21.92 18.32L23.8267 20.2267C23.6934 20.4 23.5467 20.56 23.3867 20.72C23.2267 20.88 23.0667 21.0267 22.8934 21.16L20.9867 19.2533Z" />
    <path d="M21.3334 16C21.3334 15.6266 21.6267 15.3333 22 15.3333H22.6134C22.6534 15.5466 22.6667 15.7733 22.6667 16C22.6667 16.2266 22.6534 16.4533 22.6134 16.6666H22C21.6267 16.6666 21.3334 16.3733 21.3334 16Z" />
    <path d="M22.8933 10.84C21.6399 9.95997 20.8399 9.62664 19.3333 9.35997V8.66664C19.3333 8.34664 19.1066 8.07997 18.7999 8.01331C20.8799 8.03997 22.8399 8.85331 24.3199 10.3466C24.0666 10.08 23.6399 10.08 23.3866 10.3466L22.8933 10.84Z" />
    <path d="M19.3333 23.3334V22.64C20.6399 22.5067 21.8666 22 22.8933 21.16L23.3866 21.6534C23.5066 21.7867 23.6799 21.8534 23.8533 21.8534C24.0266 21.8534 24.1999 21.7867 24.3199 21.6534C22.8399 23.1467 20.8799 23.96 18.7999 23.9867C19.1066 23.92 19.3333 23.6534 19.3333 23.3334Z" />
    <path d="M23.8267 11.7733L21.92 13.68C21.8 13.5066 21.6534 13.3333 21.4934 13.1733C21.3334 13.0133 21.1734 12.88 20.9867 12.7466L22.8934 10.84C23.0667 10.9733 23.2267 11.12 23.3867 11.28C23.5467 11.44 23.6934 11.6 23.8267 11.7733Z" />
    <path d="M22.6134 16.6667C22.5067 17.2667 22.2801 17.8267 21.9201 18.32L21.4934 17.8933C21.2401 17.6267 20.8134 17.6267 20.5601 17.8933C21.0534 17.3867 21.3334 16.72 21.3334 16C21.3334 16.3733 21.6267 16.6667 22.0001 16.6667H22.6134Z" />
    <path d="M21.9201 13.68C22.2801 14.1733 22.5067 14.7333 22.6134 15.3333H22.0001C21.6267 15.3333 21.3334 15.6267 21.3334 16C21.3334 15.28 21.0534 14.6133 20.5601 14.1067C20.6801 14.24 20.8534 14.3067 21.0267 14.3067C21.2001 14.3067 21.3601 14.24 21.4934 14.1067L21.9201 13.68Z" />
    <path d="M21.92 13.68L21.4933 14.1066C21.36 14.24 21.2 14.3066 21.0266 14.3066C20.8533 14.3066 20.68 14.24 20.56 14.1066C20.2933 13.8533 20.2933 13.4266 20.56 13.1733L20.9866 12.7466C21.1733 12.88 21.3333 13.0133 21.4933 13.1733C21.6533 13.3333 21.8 13.5066 21.92 13.68Z" />
    <path d="M21.4933 17.8934L21.92 18.32C21.8 18.4934 21.6533 18.6667 21.4933 18.8267C21.3333 18.9867 21.1733 19.1334 20.9866 19.2534L20.56 18.8267C20.2933 18.5734 20.2933 18.1467 20.56 17.8934C20.8133 17.6267 21.24 17.6267 21.4933 17.8934Z" />
    <path d="M18.6666 18.64C19.36 18.64 20.0666 18.3866 20.56 17.8933C20.2933 18.1466 20.2933 18.5733 20.56 18.8266L20.9866 19.2533C20.4933 19.6133 19.92 19.84 19.3333 19.9466V19.3333C19.3333 18.96 19.04 18.6666 18.6666 18.6666V18.64Z" />
    <path d="M20.56 14.1067C20.0666 13.6134 19.3733 13.3334 18.6666 13.3334C19.04 13.3334 19.3333 13.04 19.3333 12.6667V12.1067C19.9333 12.2 20.5066 12.4134 20.9866 12.7467L20.56 13.1734C20.2933 13.4267 20.2933 13.8534 20.56 14.1067Z" />
    <path d="M19.3333 23.3333C19.3333 23.6533 19.1067 23.92 18.8 23.9866C18.76 24 18.72 24 18.6667 24C18.6133 24 18.5733 24 18.5333 23.9866C18.2267 23.92 18 23.6533 18 23.3333V22.64C18.2267 22.6533 18.44 22.6666 18.6667 22.6666C18.8933 22.6666 19.1067 22.6533 19.3333 22.64V23.3333Z" />
    <path d="M19.3333 19.3334V19.9467C19.1067 19.9867 18.8933 20 18.6667 20C18.44 20 18.2267 19.9867 18 19.9467V19.3334C18 18.96 18.2933 18.6667 18.6667 18.6667C19.04 18.6667 19.3333 18.96 19.3333 19.3334Z" />
    <path d="M19.3333 12.1066C18.8933 12.04 18.44 12.04 18 12.1066V9.35998C18.2267 9.34665 18.44 9.33331 18.6667 9.33331L19.3333 9.35998V12.1066Z" />
    <path d="M19.3333 12.6666C19.3333 13.04 19.04 13.3333 18.6667 13.3333C18.2933 13.3333 18 13.04 18 12.6666V12.1066C18.44 12.04 18.8933 12.04 19.3333 12.1066V12.6666Z" />
    <path d="M18.8 8.01333C19.1067 8.08 19.3333 8.34667 19.3333 8.66667V9.36L18.6667 9.33333C18.44 9.33333 18.2267 9.34667 18 9.36V8.66667C18 8.34667 18.2267 8.08 18.5333 8.01333C18.5733 8 18.6133 8 18.6667 8C18.72 8 18.76 8 18.8 8.01333Z" />
    <path d="M18.6667 22.6667C18.44 22.6667 18.2267 22.6533 18 22.64V19.9467C18.2267 19.9867 18.44 20 18.6667 20C18.8933 20 19.1067 19.9867 19.3333 19.9467V22.64C19.1067 22.6533 18.8933 22.6667 18.6667 22.6667Z" />
    <path d="M18.6667 13.3334C17.96 13.3334 17.2667 13.6134 16.7733 14.1067C17.04 13.8534 17.04 13.4267 16.7733 13.1734L16.3467 12.7467C16.8267 12.4134 17.4 12.2 18 12.1067V12.6667C18 13.04 18.2934 13.3334 18.6667 13.3334Z" />
    <path d="M16.7733 17.8933C17.2667 18.3866 17.9734 18.64 18.6667 18.64V18.6666C18.2934 18.6666 18 18.96 18 19.3333V19.9466C17.4133 19.84 16.84 19.6133 16.3467 19.2533L16.7733 18.8266C17.04 18.5733 17.04 18.1466 16.7733 17.8933Z" />
    <path d="M16.7733 13.1733C17.04 13.4266 17.04 13.8533 16.7733 14.1066C16.6533 14.24 16.48 14.3066 16.3067 14.3066C16.1333 14.3066 15.96 14.24 15.84 14.1066L15.4133 13.68C15.5333 13.5066 15.68 13.3333 15.84 13.1733C16 13.0133 16.16 12.88 16.3467 12.7466L16.7733 13.1733Z" />
    <path d="M16.7733 17.8934C17.04 18.1467 17.04 18.5734 16.7733 18.8267L16.3467 19.2534C16.16 19.1334 16 18.9867 15.84 18.8267C15.68 18.6667 15.5333 18.4934 15.4133 18.32L15.84 17.8934C16.0933 17.6267 16.52 17.6267 16.7733 17.8934Z" />
    <path d="M16.3467 19.2533L14.44 21.16C14.2667 21.0267 14.1067 20.88 13.9467 20.72C13.7867 20.56 13.64 20.4 13.5067 20.2267L15.4134 18.32C15.5334 18.4933 15.68 18.6667 15.84 18.8267C16 18.9867 16.16 19.1333 16.3467 19.2533Z" />
    <path d="M14.72 16.6666C14.68 16.4533 14.6666 16.2266 14.6666 16C14.6666 15.7733 14.68 15.5466 14.72 15.3333H15.3333C15.7066 15.3333 16 15.6266 16 16C16 16.3733 15.7066 16.6666 15.3333 16.6666H14.72Z" />
    <path d="M15.4134 13.68L13.5067 11.7733C13.64 11.6 13.7867 11.44 13.9467 11.28C14.1067 11.12 14.2667 10.9733 14.44 10.84L16.3467 12.7466C16.16 12.88 16 13.0133 15.84 13.1733C15.68 13.3333 15.5334 13.5066 15.4134 13.68Z" />
    <path d="M13.0133 10.3466C14.4933 8.85331 16.4533 8.03997 18.5333 8.01331C18.2266 8.07997 18 8.34664 18 8.66664V9.35997C16.6933 9.4933 15.4666 9.99997 14.44 10.84L13.9466 10.3466C13.6933 10.08 13.2666 10.08 13.0133 10.3466Z" />
    <path d="M14.7201 15.3333C14.8268 14.7333 15.0534 14.1733 15.4134 13.68L15.8401 14.1067C15.9601 14.24 16.1334 14.3067 16.3068 14.3067C16.4801 14.3067 16.6534 14.24 16.7734 14.1067C16.2801 14.6133 16.0001 15.28 16.0001 16C16.0001 15.6267 15.7068 15.3333 15.3334 15.3333H14.7201Z" />
    <path d="M15.4134 18.32C15.0534 17.8267 14.8268 17.2667 14.7201 16.6667H15.3334C15.7068 16.6667 16.0001 16.3733 16.0001 16C16.0001 16.72 16.2801 17.3867 16.7734 17.8933C16.5201 17.6267 16.0934 17.6267 15.8401 17.8933L15.4134 18.32Z" />
    <path d="M13.9466 21.6534L14.44 21.16C15.4666 22 16.6933 22.5067 18 22.64V23.3334C18 23.6534 18.2266 23.92 18.5333 23.9867C16.4533 23.96 14.4933 23.1467 13.0133 21.6534C13.1333 21.7867 13.3066 21.8534 13.48 21.8534C13.6533 21.8534 13.8266 21.7867 13.9466 21.6534Z" />
    <path d="M14.6667 16C14.6667 16.2266 14.68 16.4533 14.72 16.6666H12.0267C12.0133 16.44 12 16.2266 12 16C12 15.7733 12.0133 15.56 12.0267 15.3333H14.72C14.68 15.5466 14.6667 15.7733 14.6667 16Z" />
    <path d="M14.44 10.84C14.2667 10.9733 14.1067 11.12 13.9467 11.28C13.7867 11.44 13.64 11.6 13.5067 11.7733L13.0134 11.28C12.7467 11.0267 12.7467 10.6 13.0134 10.3467C13.2667 10.08 13.6934 10.08 13.9467 10.3467L14.44 10.84Z" />
    <path d="M14.44 21.16L13.9467 21.6533C13.8267 21.7866 13.6534 21.8533 13.48 21.8533C13.3067 21.8533 13.1334 21.7866 13.0134 21.6533C12.7467 21.4 12.7467 20.9733 13.0134 20.72L13.5067 20.2266C13.64 20.4 13.7867 20.56 13.9467 20.72C14.1067 20.88 14.2667 21.0266 14.44 21.16Z" />
    <path d="M13.0133 10.3467C12.7466 10.6 12.7466 11.0267 13.0133 11.28L13.5066 11.7733C12.6666 12.8 12.1599 14.0267 12.0266 15.3333H11.3333C11.0133 15.3333 10.7466 15.56 10.6799 15.8667C10.7066 13.7867 11.5199 11.8267 13.0133 10.3467Z" />
    <path d="M13.0133 20.72C12.7466 20.9733 12.7466 21.4 13.0133 21.6533C11.5199 20.1733 10.7066 18.2133 10.6799 16.1333C10.7466 16.44 11.0133 16.6666 11.3333 16.6666H12.0266C12.1599 17.9733 12.6666 19.2 13.5066 20.2266L13.0133 20.72Z" />
    <path d="M12.0266 15.3333C12.0133 15.56 12 15.7733 12 16C12 16.2266 12.0133 16.44 12.0266 16.6666H11.3333C11.0133 16.6666 10.7466 16.44 10.68 16.1333C10.6666 16.0933 10.6666 16.04 10.6666 16C10.6666 15.96 10.6666 15.9066 10.68 15.8666C10.7466 15.56 11.0133 15.3333 11.3333 15.3333H12.0266Z" />
    <path d="M4.00004 20H6.00004C6.37337 20 6.66671 20.2933 6.66671 20.6667V24.6667C6.66671 25.04 6.37337 25.3333 6.00004 25.3333H4.00004V24.6667C4.00004 24.2933 3.70671 24 3.33337 24H5.33337V21.3333H3.33337C3.70671 21.3333 4.00004 21.04 4.00004 20.6667V20Z" />
    <path d="M4.00004 6.66669H6.00004C6.37337 6.66669 6.66671 6.96002 6.66671 7.33335V11.3334C6.66671 11.7067 6.37337 12 6.00004 12H4.00004V11.3334C4.00004 10.96 3.70671 10.6667 3.33337 10.6667H5.33337V8.00002H3.33337C3.70671 8.00002 4.00004 7.70669 4.00004 7.33335V6.66669Z" />
    <path d="M3.99996 24.6667V25.3333H2.66663V24.6667C2.66663 24.2933 2.95996 24 3.33329 24C3.70663 24 3.99996 24.2933 3.99996 24.6667Z" />
    <path d="M3.99996 20V20.6667C3.99996 21.04 3.70663 21.3333 3.33329 21.3333C2.95996 21.3333 2.66663 21.04 2.66663 20.6667V20H3.99996Z" />
    <path d="M2.66663 12H3.99996V20H2.66663V12Z" />
    <path d="M3.99996 11.3334V12H2.66663V11.3334C2.66663 10.96 2.95996 10.6667 3.33329 10.6667C3.70663 10.6667 3.99996 10.96 3.99996 11.3334Z" />
    <path d="M3.99996 6.66669V7.33335C3.99996 7.70669 3.70663 8.00002 3.33329 8.00002C2.95996 8.00002 2.66663 7.70669 2.66663 7.33335V6.66669H3.99996Z" />
    <path d="M5.99996 30.6667H28.6666C29.7733 30.6667 30.6666 29.7733 30.6666 28.6667V3.33333C30.6666 2.22667 29.7733 1.33333 28.6666 1.33333H5.99996C4.89329 1.33333 3.99996 2.22667 3.99996 3.33333V6.66667H2.66663V3.33333C2.66663 1.49333 4.15996 0 5.99996 0H28.6666C30.5066 0 32 1.49333 32 3.33333V28.6667C32 30.5067 30.5066 32 28.6666 32H5.99996C4.15996 32 2.66663 30.5067 2.66663 28.6667V25.3333H3.99996V28.6667C3.99996 29.7733 4.89329 30.6667 5.99996 30.6667Z" />
    <path d="M2.66667 12H0.666667C0.293333 12 0 11.7067 0 11.3334V7.33335C0 6.96002 0.293333 6.66669 0.666667 6.66669H2.66667V7.33335C2.66667 7.70669 2.96 8.00002 3.33333 8.00002H1.33333V10.6667H3.33333C2.96 10.6667 2.66667 10.96 2.66667 11.3334V12Z" />
    <path d="M1.33333 21.3333V24H3.33333C2.96 24 2.66667 24.2933 2.66667 24.6667V25.3333H0.666667C0.293333 25.3333 0 25.04 0 24.6667V20.6667C0 20.2933 0.293333 20 0.666667 20H2.66667V20.6667C2.66667 21.04 2.96 21.3333 3.33333 21.3333H1.33333Z" />
</svg>