<svg width="32" height="33" viewBox="0 0 32 33" fill="currentColor" xmlns="http://www.w3.org/2000/svg">
    <g clip-path="url(#clip0)">
        <path d="M19 6.15088H7C6.448 6.15088 6 6.59888 6 7.15088C6 7.70288 6.448 8.15088 7 8.15088H19C19.552 8.15088 20 7.70288 20 7.15088C20 6.59888 19.552 6.15088 19 6.15088Z" />
        <path d="M15 10.1509H7C6.448 10.1509 6 10.5989 6 11.1509C6 11.7029 6.448 12.1509 7 12.1509H15C15.552 12.1509 16 11.7029 16 11.1509C16 10.5989 15.552 10.1509 15 10.1509Z" />
        <path d="M22 0.150879H4C1.794 0.150879 0 1.94488 0 4.15088V24.1509C0 24.5389 0.224 24.8929 0.576 25.0569C0.71 25.1189 0.856 25.1509 1 25.1509C1.23 25.1509 1.458 25.0709 1.64 24.9189L7.362 20.1509H22C24.206 20.1509 26 18.3569 26 16.1509V4.15088C26 1.94488 24.206 0.150879 22 0.150879ZM24 16.1509C24 17.2529 23.104 18.1509 22 18.1509H7C6.766 18.1509 6.54 18.2329 6.36 18.3829L2 22.0169V4.15088C2 3.04888 2.896 2.15088 4 2.15088H22C23.104 2.15088 24 3.04888 24 4.15088V16.1509Z" />
        <path d="M28 8.15088C27.448 8.15088 27 8.59888 27 9.15088C27 9.70288 27.448 10.1509 28 10.1509C29.104 10.1509 30 11.0489 30 12.1509V29.0689L26.624 26.3689C26.448 26.2289 26.226 26.1509 26 26.1509H12C10.896 26.1509 10 25.2529 10 24.1509V23.1509C10 22.5989 9.552 22.1509 9 22.1509C8.448 22.1509 8 22.5989 8 23.1509V24.1509C8 26.3569 9.794 28.1509 12 28.1509H25.648L30.374 31.9329C30.556 32.0769 30.778 32.1509 31 32.1509C31.146 32.1509 31.294 32.1189 31.434 32.0529C31.78 31.8849 32 31.5349 32 31.1509V12.1509C32 9.94488 30.206 8.15088 28 8.15088Z" />
    </g>
    <defs>
        <clipPath id="clip0">
            <rect width="32" height="32" transform="translate(0 0.150879)" />
        </clipPath>
    </defs>
</svg>
