<svg width="32" height="33" viewBox="0 0 32 33" fill="currentColor" xmlns="http://www.w3.org/2000/svg">
    <g clip-path="url(#clip0)">
        <path d="M26.032 11.7382C25.8147 11.5603 25.5291 11.489 25.2537 11.5439C19.3755 12.7197 15.125 17.8891 15.125 23.8989V26.5258H4.6875C4.16968 26.5258 3.75 26.9455 3.75 27.4633C3.75 27.9811 4.16968 28.4008 4.6875 28.4008H16.0625C16.5803 28.4008 17 27.9811 17 27.4633V26.333C19.3379 25.7172 21.4231 24.4582 23.0676 22.6621C23.2974 22.4111 23.373 22.0554 23.2654 21.7324L22.9883 20.9008H23.8875C24.2229 20.9008 24.5327 20.7216 24.7 20.4309C25.7959 18.5258 26.375 16.3549 26.375 14.1525V12.4633C26.375 12.1826 26.249 11.9165 26.032 11.7382ZM24.5 14.1528C24.5 15.8486 24.0967 17.5222 23.3296 19.0258H21.6875C21.3862 19.0258 21.103 19.1706 20.927 19.4152C20.7507 19.6596 20.7029 19.9738 20.7981 20.2597L21.3074 21.7878C20.0903 22.9912 18.624 23.8732 17 24.3823V23.8989C17 19.194 20.092 15.0622 24.5 13.6706V14.1528Z" />
        <path d="M29.1875 0.150879H2.8125C1.26172 0.150879 0 1.4126 0 2.96338V29.3384C0 30.8892 1.26172 32.1509 2.8125 32.1509H29.1875C30.7383 32.1509 32 30.8892 32 29.3384V2.96338C32 1.4126 30.7383 0.150879 29.1875 0.150879ZM2.8125 2.02588H29.1875C29.7043 2.02588 30.125 2.44653 30.125 2.96338V7.65088H1.875V2.96338C1.875 2.44653 2.29565 2.02588 2.8125 2.02588ZM29.1875 30.2759H2.8125C2.29565 30.2759 1.875 29.8552 1.875 29.3384V9.52588H30.125V29.3384C30.125 29.8552 29.7043 30.2759 29.1875 30.2759Z" />
        <path d="M5.62332 4.83838C5.62332 5.3562 5.2034 5.77588 4.68582 5.77588C4.168 5.77588 3.74832 5.3562 3.74832 4.83838C3.74832 4.32056 4.168 3.90088 4.68582 3.90088C5.2034 3.90088 5.62332 4.32056 5.62332 4.83838Z" />
        <path d="M9.37332 4.83838C9.37332 5.3562 8.9534 5.77588 8.43582 5.77588C7.918 5.77588 7.49832 5.3562 7.49832 4.83838C7.49832 4.32056 7.918 3.90088 8.43582 3.90088C8.9534 3.90088 9.37332 4.32056 9.37332 4.83838Z" />
        <path d="M13.1233 4.83838C13.1233 5.3562 12.7034 5.77588 12.1858 5.77588C11.668 5.77588 11.2483 5.3562 11.2483 4.83838C11.2483 4.32056 11.668 3.90088 12.1858 3.90088C12.7034 3.90088 13.1233 4.32056 13.1233 4.83838Z" />
        <path d="M17.9375 5.77588H27.3125C27.8303 5.77588 28.25 5.3562 28.25 4.83838C28.25 4.32056 27.8303 3.90088 27.3125 3.90088H17.9375C17.4197 3.90088 17 4.32056 17 4.83838C17 5.3562 17.4197 5.77588 17.9375 5.77588Z" />
    </g>
    <defs>
        <clipPath id="clip0">
            <rect width="32" height="32" transform="translate(0 0.150879)" />
        </clipPath>
    </defs>
</svg>
