<svg width="32" height="33" viewBox="0 0 32 33" fill="currentColor" xmlns="http://www.w3.org/2000/svg">
    <path d="M27.3125 16.9105H24.1801C23.7538 16.9105 23.3411 16.9687 22.9482 17.0759C22.1734 15.5526 20.5914 14.506 18.7684 14.506H13.2316C11.4086 14.506 9.82662 15.5526 9.05175 17.0759C8.65894 16.9687 8.24619 16.9105 7.81987 16.9105H4.6875C2.10281 16.9105 0 19.0133 0 21.598V26.6054C0 28.1562 1.26169 29.4179 2.8125 29.4179H29.1875C30.7383 29.4179 32 28.1562 32 26.6054V21.598C32 19.0133 29.8972 16.9105 27.3125 16.9105ZM8.54406 19.1936V27.5429H2.8125C2.29556 27.5429 1.875 27.1224 1.875 26.6054V21.598C1.875 20.0472 3.13669 18.7855 4.6875 18.7855H7.81987C8.07438 18.7855 8.32081 18.8201 8.55544 18.8838C8.54869 18.9864 8.54406 19.0895 8.54406 19.1936ZM21.5809 27.5429H10.4191V19.1935C10.4191 17.6427 11.6807 16.381 13.2316 16.381H18.7684C20.3193 16.381 21.5809 17.6427 21.5809 19.1935V27.5429ZM30.125 26.6054C30.125 27.1224 29.7044 27.5429 29.1875 27.5429H23.4559V19.1935C23.4559 19.0894 23.4513 18.9862 23.4446 18.8837C23.6792 18.8201 23.9256 18.7855 24.1801 18.7855H27.3125C28.8633 18.7855 30.125 20.0472 30.125 21.598V26.6054Z" />
    <path d="M6.25382 8.0575C3.957 8.0575 2.08844 9.92606 2.08844 12.2229C2.08838 14.5197 3.957 16.3882 6.25382 16.3882C8.55057 16.3882 10.4192 14.5197 10.4192 12.2229C10.4192 9.92606 8.55063 8.0575 6.25382 8.0575ZM6.25375 14.5132C4.99082 14.5132 3.96338 13.4858 3.96338 12.2229C3.96338 10.9599 4.99082 9.9325 6.25375 9.9325C7.51669 9.9325 8.54413 10.9599 8.54413 12.2229C8.54413 13.4858 7.51669 14.5132 6.25375 14.5132Z" />
    <path d="M16 2.88391C12.9315 2.88391 10.4351 5.38029 10.4351 8.44879C10.4351 11.5173 12.9315 14.0137 16 14.0137C19.0685 14.0137 21.5649 11.5173 21.5649 8.44879C21.5649 5.38035 19.0685 2.88391 16 2.88391ZM16 12.1387C13.9654 12.1387 12.3101 10.4834 12.3101 8.44879C12.3101 6.41422 13.9654 4.75891 16 4.75891C18.0346 4.75891 19.6899 6.41416 19.6899 8.44879C19.6899 10.4834 18.0346 12.1387 16 12.1387Z" />
    <path d="M25.7462 8.0575C23.4495 8.0575 21.5808 9.92606 21.5808 12.2229C21.5809 14.5197 23.4495 16.3882 25.7462 16.3882C28.043 16.3882 29.9116 14.5197 29.9116 12.2229C29.9116 9.92606 28.043 8.0575 25.7462 8.0575ZM25.7462 14.5132C24.4833 14.5132 23.4558 13.4858 23.4558 12.2229C23.4559 10.9599 24.4833 9.9325 25.7462 9.9325C27.0092 9.9325 28.0366 10.9599 28.0366 12.2229C28.0366 13.4858 27.0092 14.5132 25.7462 14.5132Z" />
</svg>
