<svg width="24" height="24" viewBox="0 0 24 24" fill="currentColor" xmlns="http://www.w3.org/2000/svg">
    <path d="M12 0C5.37258 0 0 5.37258 0 12C0 18.6274 5.37258 24 12 24C18.6274 24 24 18.6274 24 12C24 5.37258 18.6274 0 12 0ZM8.20752 5.22656C11.3398 5.24059 13.7625 7.94666 17.1363 6.87862C17.8918 6.63945 18.7881 7.12609 18.7881 7.91856V12.9261C18.7881 13.1913 18.6852 13.4503 18.4834 13.6224C15.3048 16.3335 12.2587 11.7597 7.7632 12.4189C7.31683 12.4843 7.01366 12.8887 7.01366 13.3399V17.8726C7.01366 18.3701 6.61032 18.7734 6.11278 18.7734C5.61524 18.7734 5.2119 18.3701 5.2119 17.8726V6.65791C5.2119 6.30065 5.4001 5.96523 5.72231 5.81089C6.61121 5.38512 7.43116 5.22309 8.20752 5.22656Z" />
</svg>
