<svg viewBox="0 0 24 24" fill="currentColor" xmlns="http://www.w3.org/2000/svg">
    <path d="M19.2 6.99963H18.81C18.9298 6.67955 18.9941 6.34135 19 5.99963C18.979 5.18622 18.637 4.41415 18.0487 3.85206C17.4603 3.28996 16.6735 2.98351 15.86 2.99963C15.0605 3.01689 14.2804 3.24878 13.6013 3.67101C12.9222 4.09325 12.3691 4.69029 12 5.39963C11.6308 4.69029 11.0777 4.09325 10.3986 3.67101C9.71954 3.24878 8.93942 3.01689 8.13996 2.99963C7.32644 2.98351 6.53959 3.28996 5.95126 3.85206C5.36293 4.41415 5.02093 5.18622 4.99996 5.99963C5.00587 6.34135 5.07013 6.67955 5.18996 6.99963H4.79996C4.53682 7.02461 4.28124 7.10151 4.048 7.22588C3.81475 7.35025 3.60848 7.51962 3.4411 7.7242C3.27372 7.92877 3.14855 8.1645 3.07283 8.41775C2.99711 8.671 2.97234 8.93675 2.99996 9.19963V12.7996C2.95324 13.2839 3.07774 13.7692 3.35179 14.1711C3.62585 14.5731 4.03212 14.8662 4.49996 14.9996V19.3696C4.53083 19.8232 4.737 20.247 5.07484 20.5512C5.41267 20.8554 5.85563 21.0163 6.30996 20.9996H17.69C18.1508 21.0159 18.5995 20.8496 18.9384 20.5369C19.2774 20.2242 19.4792 19.7903 19.5 19.3296V14.9996C19.9678 14.8662 20.3741 14.5731 20.6481 14.1711C20.9222 13.7692 21.0467 13.2839 21 12.7996V9.19963C21.0276 8.93675 21.0028 8.671 20.9271 8.41775C20.8514 8.1645 20.7262 7.92877 20.5588 7.7242C20.3914 7.51962 20.1852 7.35025 19.9519 7.22588C19.7187 7.10151 19.4631 7.02461 19.2 6.99963ZM19 9.19963V12.7996C19.012 12.8658 19.012 12.9335 19 12.9996H13V8.99963H19C19.012 9.06575 19.012 9.1335 19 9.19963ZM15.86 4.99963C16.1432 4.98312 16.4217 5.07877 16.635 5.2659C16.8483 5.45303 16.9794 5.7166 17 5.99963C16.9794 6.28266 16.8483 6.54623 16.635 6.73336C16.4217 6.92049 16.1432 7.01614 15.86 6.99963H13.4C13.5749 6.4654 13.8999 5.99278 14.3361 5.63816C14.7723 5.28354 15.3013 5.06188 15.86 4.99963ZM6.99996 5.99963C7.0205 5.7166 7.15161 5.45303 7.36493 5.2659C7.57826 5.07877 7.85667 4.98312 8.13996 4.99963C8.69687 5.06369 9.22372 5.28617 9.65798 5.64068C10.0922 5.99518 10.4157 6.46682 10.59 6.99963H8.13996C7.85667 7.01614 7.57826 6.92049 7.36493 6.73336C7.15161 6.54623 7.0205 6.28266 6.99996 5.99963ZM4.99996 9.19963C4.98796 9.1335 4.98796 9.06575 4.99996 8.99963H11V12.9996H4.99996C4.98796 12.9335 4.98796 12.8658 4.99996 12.7996V9.19963ZM6.49996 14.9996H11V18.9996H6.49996V14.9996ZM13 18.9996V14.9996H17.5V18.9996H13Z" />
</svg>
