<svg id="Layer_1" xmlns="http://www.w3.org/2000/svg" viewBox="0 0 990.07 990.07"><defs><style>.cls-1{fill:#142533;}</style></defs><title>02</title><path class="cls-1" d="M834.71,5H382.15V615.53h611V163c0-86.68-71.34-158-158-158Z" transform="translate(-5.1 -5)"/><path class="cls-1" d="M241.07,5h-78C76.44,5,5.1,76.34,5.1,163v78h236Z" transform="translate(-5.1 -5)"/><path class="cls-1" d="M5.1,382.05h236V618H5.1Z" transform="translate(-5.1 -5)"/><path class="cls-1" d="M759.21,993.08h78c86.69,0,158-71.33,158-158v-76h-236Z" transform="translate(-5.1 -5)"/><path class="cls-1" d="M382.15,759.1h236v236h-236Z" transform="translate(-5.1 -5)"/><path class="cls-1" d="M5.1,759.1v78c0,86.63,71.34,158,158,158h78v-236Z" transform="translate(-5.1 -5)"/></svg>