<svg width="56" height="56" viewBox="0 0 56 56" fill="none" xmlns="http://www.w3.org/2000/svg">
<g clip-path="url(#clip0)">
<g clip-path="url(#clip1)">
<path d="M40.2311 9H23.7395V30.7388H45.9944V14.6296C45.9944 11.5104 43.4244 9 40.2311 9ZM18.5994 9H15.7633C12.57 9 10 11.5104 10 14.6296V17.4H18.5994V9ZM10 22.4208H18.5994V30.8208H10V22.4208ZM37.486 44.1596H40.3221C43.5154 44.1596 46.0854 41.6492 46.0854 38.53V35.8485H37.486V44.1596ZM23.7395 35.8485H32.3389V44.2485H23.7395V35.8485ZM10 35.8485V38.6189C10 41.7381 12.57 44.2485 15.7633 44.2485H18.5994V35.8485H10ZM67.9832 11.2505H64.6148V41.9912H82.437V39.0498H67.9832V11.2505ZM93.2493 19.3906C86.6877 19.3906 82.0798 24.1515 82.0798 30.9919V31.7785C82.1709 34.7199 83.5014 37.4971 85.7143 39.5697C87.8431 41.4782 90.5882 42.6 93.5154 42.6H93.9566C97.0588 42.6 99.986 41.4713 102.29 39.5697L102.381 39.4808L100.875 37.0593L100.7 37.1482C98.8375 38.7967 96.5336 39.7476 94.0546 39.7476C89.979 39.7476 85.8123 37.1482 85.5462 31.3476H102.57V31.1765C102.57 31.1765 102.661 30.1368 102.661 29.6169C102.64 23.3785 98.9216 19.3906 93.2493 19.3906ZM85.6232 28.5704C86.3305 24.6713 89.2577 22.1609 93.0672 22.1609C95.9034 22.1609 99.0056 23.8094 99.2717 28.5704H85.6232ZM122.15 21.9899V23.1186C120.728 20.7792 118.074 19.3085 115.322 19.3085H115.056C109.027 19.3085 104.86 23.9873 104.86 30.8277C104.86 37.757 108.852 42.429 114.79 42.429C119.489 42.429 121.618 39.6586 122.325 38.4479V41.827H125.518V11.2505H122.241V21.9899H122.15ZM115.231 39.5697C111.064 39.5697 108.319 36.1085 108.319 30.9098C108.319 25.8889 111.246 22.3388 115.322 22.3388C118.782 22.3388 122.234 25.0202 122.234 30.9098C122.234 37.3192 118.599 39.5697 115.231 39.5697ZM144.93 22.4208V22.5919C144.307 21.5521 142.36 19.3016 137.661 19.3016C131.723 19.3016 127.822 23.7205 127.822 30.472C127.822 37.2235 131.898 41.8134 137.927 41.8134C141.204 41.8134 143.424 40.6847 144.93 38.3521V41.3824C144.93 45.6235 142.185 48.0518 137.304 48.0518C135.266 48.0518 133.137 47.5319 131.275 46.5811L131.099 46.4922L129.86 49.1736L130.035 49.2625C132.339 50.3912 134.909 50.9932 137.395 50.9932C142.626 50.9932 148.207 48.3938 148.207 41.2046V19.9104H144.93V22.4208ZM138.368 38.9609C134.027 38.9609 131.19 35.6707 131.19 30.5609C131.19 25.3622 133.669 22.4208 137.927 22.4208C142.626 22.4208 144.839 25.1023 144.839 30.5609C144.93 35.9306 142.626 38.9609 138.368 38.9609ZM161.597 19.3906C155.035 19.3906 150.518 24.1515 150.518 30.9098V31.6896C150.609 34.6309 151.94 37.4081 154.153 39.4808C156.282 41.3893 159.027 42.5111 161.954 42.5111H162.395C165.497 42.5111 168.424 41.3824 170.728 39.4808L170.819 39.3919L169.223 36.9704L169.048 37.0593C167.185 38.7078 164.881 39.6586 162.402 39.6586C158.326 39.6586 154.16 37.0593 153.894 31.2586H170.994V31.0876C170.994 31.0876 171.085 30.0479 171.085 29.528C171.085 23.3785 167.36 19.3906 161.597 19.3906ZM154.062 28.5704C154.769 24.6713 157.696 22.1609 161.506 22.1609C164.342 22.1609 167.444 23.8094 167.71 28.5704H154.062ZM184.916 19.8215C184.475 19.7326 184.118 19.7326 183.676 19.6505C180.574 19.6505 178.004 21.559 176.674 24.7603V19.8215H173.396L173.487 41.7313V41.9023H176.856V32.6404C176.856 31.2518 177.031 29.7811 177.479 28.4814C178.543 25.1023 180.938 22.9407 183.775 22.9407C184.132 22.9407 184.482 22.9407 184.839 23.0296H185.014V19.8283L184.916 19.8215Z" fill="#47B7FE"/>
</g>
</g>
<defs>
<clipPath id="clip0">
<rect width="56" height="56" fill="white"/>
</clipPath>
<clipPath id="clip1">
<rect width="175" height="42" fill="white" transform="translate(10 9)"/>
</clipPath>
</defs>
</svg>
