<svg width="30" height="36" viewBox="0 0 30 36" fill="none" xmlns="http://www.w3.org/2000/svg">
<path fill-rule="evenodd" clip-rule="evenodd" d="M10.3469 17.9806L15.919 35.9819L28.4277 17.9806H10.3469Z" fill="#F99200"/>
<path fill-rule="evenodd" clip-rule="evenodd" d="M10.6305 17.9993L15.9191 35.9819L3.62015 17.9993H10.6305Z" fill="#FFBD7C"/>
<path fill-rule="evenodd" clip-rule="evenodd" d="M10.3469 18.117L15.919 0.115723L28.4277 18.117H10.3469Z" fill="#FC7876"/>
<path fill-rule="evenodd" clip-rule="evenodd" d="M10.6305 18.1356L15.9191 0.115723L3.62015 18.1356H10.6305Z" fill="#FE4A48"/>
<path d="M12.4306 10.0119C20.1879 6.45028 27.5047 5.7339 28.7729 8.41186C30.0412 11.0898 24.7807 16.1481 17.0234 19.7097C9.26601 23.2714 1.94928 23.9878 0.681015 21.3098C-0.587252 18.6318 4.6732 13.5736 12.4306 10.0119Z" stroke="white" stroke-width="0.5733"/>
<path fill-rule="evenodd" clip-rule="evenodd" d="M10.3469 17.9806L15.919 35.9819L28.4277 17.9806H10.3469Z" fill="#FFAFAE"/>
<path fill-rule="evenodd" clip-rule="evenodd" d="M10.6305 17.9993L15.9191 35.9819L3.62015 17.9993H10.6305Z" fill="white"/>
<path fill-rule="evenodd" clip-rule="evenodd" d="M10.3469 18.1169L23.7959 11.6226L28.4277 18.1169H10.3469Z" fill="#FC7876"/>
<path fill-rule="evenodd" clip-rule="evenodd" d="M10.6304 18.1357L12.8674 10.3198L3.62007 18.1357H10.6304Z" fill="#FE4A48"/>
<path fill-rule="evenodd" clip-rule="evenodd" d="M20.7748 28.98L25.4266 22.2764L23.4317 20.4141L18.4493 18.0424L12.4008 22.0294L20.7748 28.98Z" fill="url(#paint0_linear)"/>
<path fill-rule="evenodd" clip-rule="evenodd" d="M27.2172 26.8829L26.715 34.4051L20.189 28.4667L27.2172 26.8829Z" fill="#F8A794"/>
<path fill-rule="evenodd" clip-rule="evenodd" d="M27.1197 26.9079L26.7263 34.3926L29.8422 26.2942L27.1197 26.9079Z" fill="white"/>
<path fill-rule="evenodd" clip-rule="evenodd" d="M27.2483 26.954L23.4186 20.408L20.2201 28.5378L27.2483 26.954Z" fill="#FE4A48"/>
<path fill-rule="evenodd" clip-rule="evenodd" d="M27.1493 26.9738L23.4315 20.4004L29.8718 26.3601L27.1493 26.9738Z" fill="#FC7876"/>
<g style="mix-blend-mode:hue">
<path fill-rule="evenodd" clip-rule="evenodd" d="M10.3469 17.9802L15.9189 35.9815L28.4276 17.9802H10.3469Z" fill="#47B7FE"/>
<path fill-rule="evenodd" clip-rule="evenodd" d="M10.6304 17.9988L15.9189 35.9815L3.62003 17.9988H10.6304Z" fill="#47B7FE"/>
<path fill-rule="evenodd" clip-rule="evenodd" d="M10.3469 18.1165L15.9189 0.115234L28.4276 18.1165H10.3469Z" fill="#47B7FE"/>
<path fill-rule="evenodd" clip-rule="evenodd" d="M10.6304 18.1351L15.9189 0.115234L3.62003 18.1351H10.6304Z" fill="#47B7FE"/>
<path d="M12.4305 10.0116C20.1879 6.44992 27.5046 5.73353 28.7729 8.4115C30.0411 11.0895 24.7807 16.1477 17.0233 19.7094C9.26595 23.271 1.94923 23.9874 0.680961 21.3094C-0.587307 18.6315 4.67315 13.5733 12.4305 10.0116Z" fill="#47B7FE"/>
<path fill-rule="evenodd" clip-rule="evenodd" d="M10.3469 17.9802L15.9189 35.9815L28.4276 17.9802H10.3469Z" fill="#47B7FE"/>
<path fill-rule="evenodd" clip-rule="evenodd" d="M10.6304 17.9988L15.9189 35.9815L3.62003 17.9988H10.6304Z" fill="#47B7FE"/>
<path fill-rule="evenodd" clip-rule="evenodd" d="M10.3469 18.1165L23.7958 11.6221L28.4276 18.1165H10.3469Z" fill="#47B7FE"/>
<path fill-rule="evenodd" clip-rule="evenodd" d="M10.6304 18.1351L12.8674 10.3194L3.62003 18.1351H10.6304Z" fill="#47B7FE"/>
<path fill-rule="evenodd" clip-rule="evenodd" d="M20.7748 28.9795L25.4265 22.2759L23.4316 20.4136L18.4493 18.0419L12.4007 22.0289L20.7748 28.9795Z" fill="#47B7FE"/>
<path fill-rule="evenodd" clip-rule="evenodd" d="M27.2357 26.8827L26.7091 34.3923L20.1888 28.4846L27.2357 26.8827Z" fill="#47B7FE"/>
<path fill-rule="evenodd" clip-rule="evenodd" d="M27.1269 26.915L26.7091 34.3923L29.8592 26.2939L27.1269 26.915Z" fill="#47B7FE"/>
<path fill-rule="evenodd" clip-rule="evenodd" d="M27.2482 26.9358L23.4316 20.4136L20.2012 28.5377L27.2482 26.9358Z" fill="#47B7FE"/>
<path fill-rule="evenodd" clip-rule="evenodd" d="M27.1394 26.9681L23.4316 20.4136L29.8716 26.347L27.1394 26.9681Z" fill="#47B7FE"/>
</g>
<defs>
<linearGradient id="paint0_linear" x1="25.4266" y1="25.2912" x2="17.3207" y2="20.0126" gradientUnits="userSpaceOnUse">
<stop stop-color="#950101"/>
<stop offset="1" stop-color="#C9C9C9" stop-opacity="0.098066"/>
</linearGradient>
</defs>
</svg>
