<svg width="56" height="56" viewBox="0 0 56 56" fill="none" xmlns="http://www.w3.org/2000/svg">
<path d="M14.0603 30.7119L15.099 30.2667L27.8182 24.7339L41.576 30.7119L36.4036 41.3959L23.7692 43.1766L14.2723 32.9165L14.0603 30.7119Z" fill="#124E6B"/>
<path d="M38.7143 24.1398C36.446 21.4051 33.2239 19.6245 29.7049 19.1581C29.6201 19.1581 29.5565 19.1369 29.4717 19.1369C28.3694 19.0097 27.2671 19.0097 26.1647 19.1369C26.0799 19.1369 26.0163 19.1581 25.9316 19.1581C22.4126 19.6245 19.1904 21.4051 16.9222 24.1398L16.3498 25.0937L15.3959 26.6836L14.6963 27.8495C14.6963 27.8919 14.6751 27.9131 14.6539 27.9343V27.9555L16.1802 28.867L25.9316 34.633L27.8182 35.7354V21.9563L25.9316 22.8042V20.748L27.8182 19.9L29.7049 20.748L39.2866 25.0937L38.7143 24.1398Z" fill="#C42370"/>
<path d="M41.9998 34.1451C41.9786 38.6604 39.9435 42.9213 36.4458 45.7831C35.1103 46.8642 33.6052 47.7122 31.9729 48.2633C30.6374 48.7085 29.2383 48.9417 27.8392 48.9417C19.9957 48.9417 13.6573 41.9674 13.6573 34.1451C13.6573 32.9792 13.8057 31.8345 14.0813 30.7109L27.8392 38.8512L41.597 30.7109C41.8514 31.8345 41.9998 32.9792 41.9998 34.1451Z" fill="#3B769A"/>
<path d="M26.1647 19.1156L27.8182 19.8787L25.9315 20.7266V19.0308L26.1647 19.1156Z" fill="#164DA0"/>
<path d="M25.9315 22.8052L27.8182 21.936V35.7151L25.9315 34.6128V22.8052Z" fill="#164DA0"/>
<path d="M27.8179 21.936V35.7151L41.0034 27.9352L27.8179 21.936Z" fill="#1D4259"/>
<path d="M27.8179 6.05762V21.9353L41.0034 27.9345L27.8179 6.05762Z" fill="#3677D7"/>
<path d="M27.8182 21.9355V35.7145L25.9316 34.6122L14.6539 27.9346C14.6539 27.8922 14.6751 27.871 14.6963 27.8498L16.3498 25.1152L25.9316 20.7695V22.847L27.8182 21.9355Z" fill="#343535"/>
<path d="M27.8184 21.936V35.7151L25.9318 34.6128L14.6541 27.9352H14.6329L14.6541 27.914L25.9318 22.8052L27.8184 21.936Z" fill="#3E5578"/>
<path d="M27.8184 6.05762V21.9353L14.6329 27.9345L27.8184 6.05762Z" fill="#63ADD6"/>
<path d="M22.4764 47.8184C22.6672 47.9032 22.8792 47.9879 23.07 48.0727C22.8792 47.9879 22.6884 47.9032 22.4764 47.8184Z" fill="#379FE0"/>
<path d="M23.0696 48.0518C23.2604 48.1366 23.4724 48.2001 23.6843 48.2637C23.4724 48.2001 23.2816 48.1366 23.0696 48.0518Z" fill="#379FE0"/>
<path d="M24.2142 48.4341C24.3838 48.4765 24.5322 48.5189 24.6806 48.5613L24.2142 48.4341Z" fill="#379FE0"/>
<path d="M14.0603 30.7109L27.8182 38.8512C27.6274 40.0807 27.3094 41.289 26.8218 42.4549C25.7195 45.1259 23.4937 47.9241 19.1904 45.7831C15.6926 42.9213 13.6576 38.6392 13.6364 34.1239C13.6364 32.9792 13.7847 31.8345 14.0603 30.7109Z" fill="#63ADD6"/>
<path d="M36.4038 45.8044C36.319 45.868 36.4038 45.8044 36.1282 46.0376L36.001 46.1224L35.8102 46.2496L35.577 46.4192C35.8102 46.2496 35.3862 46.5463 35.3014 46.6099C35.2166 46.6523 35.1531 46.6947 35.0683 46.7583L34.9199 46.8643C34.8775 46.8855 34.8139 46.9279 34.7715 46.9703C34.7715 46.9703 34.7079 47.0339 34.6867 47.0339C34.7715 46.9703 34.5807 47.0763 34.4959 47.1399C34.3899 47.1823 34.3051 47.2247 34.2203 47.2883L33.9235 47.4367L33.7963 47.5003C33.7116 47.5427 33.7539 47.5003 33.6692 47.5639C33.5844 47.6275 33.4784 47.6487 33.3724 47.7123C33.2664 47.7759 33.3724 47.7123 33.012 47.8819C33.3724 47.7123 33.012 47.8819 32.8212 47.9666C33.012 47.8819 32.482 48.0938 32.2489 48.1786C32.1641 48.1998 31.6977 48.3482 31.6129 48.3694C31.5281 48.3906 31.4221 48.433 31.3373 48.4542C31.1677 48.4966 31.0193 48.539 30.8709 48.5814C30.8074 48.6026 30.7438 48.6026 30.7014 48.6238L30.5954 48.645L30.341 48.7086C30.2562 48.7298 30.1926 48.7298 30.1078 48.751C30.023 48.7722 29.9594 48.7722 29.8958 48.7934C29.8322 48.8146 29.7262 48.8146 29.6626 48.8358C29.6202 48.8358 29.5778 48.8358 29.5566 48.857L29.387 48.8782H29.3023C29.2387 48.8782 29.1751 48.8994 29.1115 48.8994C29.0479 48.8994 28.9419 48.9206 28.8571 48.9206H26.6948C26.61 48.9206 26.5252 48.8994 26.4405 48.8994C26.3769 48.8994 26.3133 48.8994 26.2497 48.8782H26.1649C26.1013 48.8782 26.0377 48.857 25.9953 48.857C25.9529 48.857 25.9105 48.857 25.8893 48.8358C25.8045 48.8358 25.7409 48.8146 25.6561 48.7934C25.5925 48.7934 25.5077 48.7722 25.4441 48.751C25.3805 48.7298 25.2957 48.7298 25.2109 48.7086L24.9566 48.645L24.8506 48.6238C24.787 48.6238 24.7234 48.6026 24.681 48.5814C24.5114 48.539 24.363 48.4966 24.2146 48.4542L23.939 48.3694C23.8542 48.3482 23.7694 48.327 23.6846 48.2846C23.4727 48.221 23.2819 48.1362 23.0699 48.0726C22.8579 48.009 22.6671 47.9031 22.4763 47.8183C22.3915 47.7759 22.2855 47.7335 22.1795 47.6911C22.0736 47.6487 21.9676 47.6063 21.8828 47.5427C21.7768 47.5003 21.692 47.4579 21.6072 47.3943C21.5224 47.3519 21.4164 47.2883 21.3316 47.2459C21.2468 47.2035 21.1832 47.1611 21.1196 47.1187C20.9076 46.9915 20.7804 46.9067 20.9076 46.9915L20.7804 46.9067L20.5473 46.7583L20.4625 46.7159L20.2505 46.5675C20.1657 46.5039 20.0809 46.4616 19.9961 46.398C19.9113 46.3344 19.8053 46.2708 19.7205 46.2072C19.6357 46.1436 19.5509 46.0588 19.4873 46.0164L19.4025 45.9528C19.3177 45.9104 19.2541 45.8468 19.1906 45.7832C23.4939 47.9242 25.6985 45.0836 26.8008 42.4338C27.2672 41.2679 27.6064 40.0596 27.7972 38.8301C27.9879 40.0808 28.3059 41.3103 28.7935 42.4762C29.9382 45.1048 32.1005 47.9242 36.4038 45.8044Z" fill="#529BBA"/>
<path d="M30.9556 48.5613C31.1252 48.5189 31.2735 48.4765 31.4219 48.4341L30.9556 48.5613Z" fill="#379FE0"/>
<path d="M31.9521 48.2637C32.1641 48.2001 32.3549 48.1366 32.5669 48.0518C32.3549 48.1366 32.1641 48.2001 31.9521 48.2637Z" fill="#379FE0"/>
<path d="M32.5242 48.0729C32.715 47.9882 32.9693 47.9034 33.1601 47.7974C32.9481 47.9034 32.715 47.9882 32.5242 48.0729Z" fill="#379FE0"/>
<path d="M41.9997 34.1451C41.9785 38.6604 39.9434 42.9213 36.4457 45.7831C32.1424 47.9242 29.9165 45.1047 28.8142 42.4549C28.3478 41.289 28.0087 40.0807 27.8179 38.8512L41.5757 30.7109C41.8513 31.8345 41.9997 32.9792 41.9997 34.1451Z" fill="#3677D7"/>
</svg>
