<svg width="18" height="18" viewBox="0 0 18 18" fill="none" xmlns="http://www.w3.org/2000/svg">
<path d="M4.5 8.25C4.35166 8.25 4.20666 8.29399 4.08332 8.3764C3.95999 8.45881 3.86386 8.57594 3.80709 8.71299C3.75032 8.85003 3.73547 9.00083 3.76441 9.14632C3.79335 9.2918 3.86478 9.42544 3.96967 9.53033C4.07456 9.63522 4.2082 9.70665 4.35368 9.73559C4.49917 9.76453 4.64997 9.74968 4.78701 9.69291C4.92406 9.63614 5.04119 9.54001 5.1236 9.41668C5.20601 9.29334 5.25 9.14834 5.25 9C5.25 8.80109 5.17098 8.61032 5.03033 8.46967C4.88968 8.32902 4.69891 8.25 4.5 8.25ZM13.5 8.25C13.3517 8.25 13.2067 8.29399 13.0833 8.3764C12.96 8.45881 12.8639 8.57594 12.8071 8.71299C12.7503 8.85003 12.7355 9.00083 12.7644 9.14632C12.7934 9.2918 12.8648 9.42544 12.9697 9.53033C13.0746 9.63522 13.2082 9.70665 13.3537 9.73559C13.4992 9.76453 13.65 9.74968 13.787 9.69291C13.9241 9.63614 14.0412 9.54001 14.1236 9.41668C14.206 9.29334 14.25 9.14834 14.25 9C14.25 8.80109 14.171 8.61032 14.0303 8.46967C13.8897 8.32902 13.6989 8.25 13.5 8.25ZM15 3.75H3C2.40326 3.75 1.83097 3.98705 1.40901 4.40901C0.987053 4.83097 0.75 5.40326 0.75 6V12C0.75 12.5967 0.987053 13.169 1.40901 13.591C1.83097 14.0129 2.40326 14.25 3 14.25H15C15.5967 14.25 16.169 14.0129 16.591 13.591C17.0129 13.169 17.25 12.5967 17.25 12V6C17.25 5.40326 17.0129 4.83097 16.591 4.40901C16.169 3.98705 15.5967 3.75 15 3.75ZM15.75 12C15.75 12.1989 15.671 12.3897 15.5303 12.5303C15.3897 12.671 15.1989 12.75 15 12.75H3C2.80109 12.75 2.61032 12.671 2.46967 12.5303C2.32902 12.3897 2.25 12.1989 2.25 12V6C2.25 5.80109 2.32902 5.61032 2.46967 5.46967C2.61032 5.32902 2.80109 5.25 3 5.25H15C15.1989 5.25 15.3897 5.32902 15.5303 5.46967C15.671 5.61032 15.75 5.80109 15.75 6V12ZM9 6.75C8.55499 6.75 8.11998 6.88196 7.74997 7.12919C7.37996 7.37643 7.09157 7.72783 6.92127 8.13896C6.75097 8.5501 6.70642 9.0025 6.79323 9.43895C6.88005 9.87541 7.09434 10.2763 7.40901 10.591C7.72368 10.9057 8.12459 11.12 8.56105 11.2068C8.9975 11.2936 9.4499 11.249 9.86104 11.0787C10.2722 10.9084 10.6236 10.62 10.8708 10.25C11.118 9.88002 11.25 9.44501 11.25 9C11.25 8.40326 11.0129 7.83097 10.591 7.40901C10.169 6.98705 9.59674 6.75 9 6.75ZM9 9.75C8.85166 9.75 8.70666 9.70601 8.58332 9.6236C8.45999 9.54119 8.36386 9.42406 8.30709 9.28701C8.25032 9.14997 8.23547 8.99917 8.26441 8.85368C8.29335 8.7082 8.36478 8.57456 8.46967 8.46967C8.57456 8.36478 8.7082 8.29335 8.85368 8.26441C8.99917 8.23547 9.14997 8.25032 9.28701 8.30709C9.42406 8.36386 9.54119 8.45999 9.6236 8.58332C9.70601 8.70666 9.75 8.85166 9.75 9C9.75 9.19891 9.67098 9.38968 9.53033 9.53033C9.38968 9.67098 9.19891 9.75 9 9.75Z" fill="#D3D6E8"/>
</svg>
