<svg width="21" height="21" viewBox="0 0 21 21" fill="none" xmlns="http://www.w3.org/2000/svg">
<path d="M20.71 18.4409L17 14.7609C18.4401 12.9653 19.1375 10.6862 18.9488 8.39221C18.7601 6.09821 17.6997 3.96369 15.9855 2.42755C14.2714 0.891411 12.0338 0.0704154 9.73292 0.133376C7.43203 0.196336 5.24272 1.13847 3.61514 2.76605C1.98756 4.39363 1.04543 6.58294 0.982466 8.88383C0.919506 11.1847 1.7405 13.4223 3.27664 15.1364C4.81278 16.8506 6.9473 17.911 9.2413 18.0997C11.5353 18.2884 13.8144 17.591 15.61 16.1509L19.29 19.8309C19.383 19.9246 19.4936 19.999 19.6154 20.0498C19.7373 20.1006 19.868 20.1267 20 20.1267C20.132 20.1267 20.2627 20.1006 20.3846 20.0498C20.5064 19.999 20.617 19.9246 20.71 19.8309C20.8902 19.6444 20.991 19.3952 20.991 19.1359C20.991 18.8766 20.8902 18.6274 20.71 18.4409ZM10 16.1509C8.61553 16.1509 7.26215 15.7404 6.111 14.9712C4.95986 14.202 4.06265 13.1088 3.53284 11.8297C3.00303 10.5506 2.8644 9.14314 3.1345 7.78527C3.4046 6.42741 4.07128 5.18013 5.05025 4.20116C6.02922 3.22219 7.2765 2.5555 8.63436 2.28541C9.99223 2.01531 11.3997 2.15393 12.6788 2.68375C13.9579 3.21356 15.0511 4.11077 15.8203 5.26191C16.5895 6.41306 17 7.76644 17 9.15091C17 11.0074 16.2625 12.7879 14.9497 14.1007C13.637 15.4134 11.8565 16.1509 10 16.1509Z" fill="currentColor"/>
</svg>
