<svg viewBox="0 0 24 24" fill="currentColor" xmlns="http://www.w3.org/2000/svg">
    <path d="M8.5 19C8.20333 19 7.91332 19.088 7.66664 19.2528C7.41997 19.4176 7.22771 19.6519 7.11418 19.926C7.00065 20.2001 6.97094 20.5017 7.02882 20.7926C7.0867 21.0836 7.22956 21.3509 7.43934 21.5607C7.64912 21.7704 7.91639 21.9133 8.20736 21.9712C8.49834 22.0291 8.79994 21.9993 9.07403 21.8858C9.34811 21.7723 9.58238 21.58 9.7472 21.3334C9.91203 21.0867 10 20.7967 10 20.5C10 20.1022 9.84196 19.7206 9.56066 19.4393C9.27936 19.158 8.89782 19 8.5 19ZM19 16H7C6.73478 16 6.48043 15.8946 6.29289 15.7071C6.10536 15.5196 6 15.2652 6 15C6 14.7348 6.10536 14.4804 6.29289 14.2929C6.48043 14.1054 6.73478 14 7 14H15.491C16.1425 13.998 16.7758 13.7848 17.2959 13.3925C17.8161 13.0002 18.195 12.4499 18.376 11.824L19.961 6.274C20.0034 6.12526 20.0107 5.96872 19.9823 5.81669C19.954 5.66465 19.8907 5.52126 19.7976 5.3978C19.7045 5.27433 19.584 5.17414 19.4456 5.10512C19.3072 5.0361 19.1547 5.00011 19 5H6.74C6.53281 4.41702 6.15083 3.91213 5.64616 3.55421C5.14149 3.19629 4.5387 3.00275 3.92 3H3C2.73478 3 2.48043 3.10536 2.29289 3.29289C2.10536 3.48043 2 3.73478 2 4C2 4.26522 2.10536 4.51957 2.29289 4.70711C2.48043 4.89464 2.73478 5 3 5H3.921C4.13815 5.00069 4.34924 5.0717 4.52266 5.2024C4.69608 5.33309 4.8225 5.51644 4.883 5.725L5.038 6.27V6.275L6.679 12.017C5.91517 12.0987 5.21176 12.4702 4.71375 13.0551C4.21574 13.64 3.96107 14.3936 4.00222 15.1607C4.04338 15.9278 4.37722 16.6499 4.93496 17.1781C5.49269 17.7064 6.23181 18.0005 7 18H19C19.2652 18 19.5196 17.8946 19.7071 17.7071C19.8946 17.5196 20 17.2652 20 17C20 16.7348 19.8946 16.4804 19.7071 16.2929C19.5196 16.1054 19.2652 16 19 16ZM17.674 7L16.454 11.274C16.3936 11.4829 16.2671 11.6666 16.0935 11.7975C15.9199 11.9284 15.7085 11.9995 15.491 12H8.754L8.499 11.108L7.326 7H17.674ZM16.5 19C16.2033 19 15.9133 19.088 15.6666 19.2528C15.42 19.4176 15.2277 19.6519 15.1142 19.926C15.0006 20.2001 14.9709 20.5017 15.0288 20.7926C15.0867 21.0836 15.2296 21.3509 15.4393 21.5607C15.6491 21.7704 15.9164 21.9133 16.2074 21.9712C16.4983 22.0291 16.7999 21.9993 17.074 21.8858C17.3481 21.7723 17.5824 21.58 17.7472 21.3334C17.912 21.0867 18 20.7967 18 20.5C18 20.1022 17.842 19.7206 17.5607 19.4393C17.2794 19.158 16.8978 19 16.5 19Z" />
</svg>
