<svg id="Layer_1" data-name="Layer 1" xmlns="http://www.w3.org/2000/svg" viewBox="0 0 671.2 975.2"><title>01</title><path id="path7" d="M510.94,12.5c-133.78,0-242,108.27-242,242.05v90.71c-47,8.51-94.1,19.85-94.1,34.56V853.25s0,13.1,14.72,19.3c53.32,21.6,263.1,95.85,311.3,112.86,6.21,2.3,8,2.3,9.58,2.3,2.3,0,3.38,0,9.59-2.3,48.19-17,258.51-91.26,311.84-112.86A22.52,22.52,0,0,0,846,853.79v-474c0-14.71-46.44-26.59-93.55-34.56V254.55C753.12,120.77,644.18,12.5,510.94,12.5Zm0,115.69c78.84,0,126.49,47.66,126.49,126.49v78.84c-88.42-6.21-163.88-6.21-252.84,0V254.68C384.59,175.71,432.24,128.19,510.94,128.19Zm-.54,321.43c110,0,202.36,8.5,202.36,23.75V768.74c0,4.59-.54,5.13-4.59,6.75s-187.64,68-187.64,68-7.43,2.3-9.59,2.3-9.58-2.84-9.58-2.84-183.73-66.28-187.65-68-4.59-2.29-4.59-6.75V472.83C308,457.58,400.38,449.62,510.4,449.62Z" transform="translate(-174.8 -12.5)"/></svg>