<svg width="32" height="32" viewBox="0 0 32 32" fill="currentColor" xmlns="http://www.w3.org/2000/svg">
    <path d="M31.387 11.8468C30.9885 11.479 30.4674 11.2338 29.8851 11.2338C29.9157 11.2338 29.9464 11.2338 29.977 11.2338V8.07668C29.977 6.78932 29.4559 5.62457 28.5977 4.76633C27.7395 3.9081 26.5747 3.38702 25.2874 3.38702H4.68965C3.4023 3.38702 2.23755 3.9081 1.37931 4.76633C0.521073 5.62457 0 6.78932 0 8.07668V23.9234C0 25.2108 0.521073 26.3755 1.37931 27.2338C2.23755 28.092 3.4023 28.6131 4.68965 28.6131H25.2874C26.5747 28.6131 27.7395 28.092 28.5977 27.2338C29.4559 26.3755 29.977 25.2108 29.977 23.9234V20.7357C29.9464 20.7357 29.9157 20.7357 29.8851 20.7357C30.4674 20.7357 30.9885 20.4905 31.387 20.1227C31.7548 19.7548 32 19.2031 32 18.6207V13.3487C32 12.7663 31.7548 12.2453 31.387 11.8468ZM28.2912 23.8928C28.2912 24.7204 27.954 25.456 27.4023 26.0077C26.8506 26.5594 26.1149 26.8966 25.2874 26.8966H4.68965C3.86207 26.8966 3.12644 26.5594 2.57471 26.0077C2.02299 25.456 1.68582 24.7204 1.68582 23.8928V8.07668C1.68582 7.24909 2.02299 6.51346 2.57471 5.96174C3.12644 5.41001 3.86207 5.07285 4.68965 5.07285H25.2874C26.1149 5.07285 26.8506 5.41001 27.4023 5.96174C27.954 6.51346 28.2912 7.24909 28.2912 8.07668V11.2338H18.7893C17.5019 11.2338 16.3678 11.7548 15.5096 12.5824C14.682 13.41 14.1609 14.5748 14.1609 15.8621V16.0767C14.1609 17.364 14.682 18.4981 15.5096 19.3564C16.3372 20.184 17.5019 20.705 18.7893 20.705H28.2912V23.8928ZM30.3142 18.6207C30.3142 18.7433 30.2529 18.866 30.1916 18.9273C30.0996 19.0192 30.0077 19.0499 29.8851 19.0499H18.7893C17.9923 19.0499 17.2261 18.7127 16.705 18.1916C16.1839 17.6705 15.8467 16.9043 15.8467 16.1073V15.8928C15.8467 15.0652 16.1839 14.3296 16.705 13.8085C17.2567 13.2568 17.9923 12.9502 18.7893 12.9502H29.8851C30.0077 12.9502 30.1303 13.0115 30.1916 13.0728C30.2835 13.1648 30.3142 13.2568 30.3142 13.3794V18.6207Z" />
    <path d="M19.0038 14.6054C18.636 14.6054 18.2988 14.7587 18.0536 15.0039C17.8084 15.2491 17.6552 15.5862 17.6552 15.9541C17.6552 16.3219 17.8084 16.659 18.0536 16.9043C18.2988 17.1495 18.636 17.3027 19.0038 17.3027C19.3716 17.3027 19.7088 17.1495 19.9847 16.9043C20.2299 16.659 20.3831 16.3219 20.3831 15.9234C20.3831 15.5556 20.2299 15.2184 19.9847 14.9426C19.7088 14.7587 19.3716 14.6054 19.0038 14.6054Z" />
</svg>