<svg width="24" height="24" viewBox="0 0 24 24" fill="none" xmlns="http://www.w3.org/2000/svg">
<path d="M5 4L19 4C19.2652 4 19.5196 3.89464 19.7071 3.70711C19.8946 3.51957 20 3.26522 20 3C20 2.73478 19.8946 2.48043 19.7071 2.29289C19.5196 2.10536 19.2652 2 19 2L5 2C4.73478 2 4.48043 2.10535 4.29289 2.29289C4.10536 2.48043 4 2.73478 4 3C4 3.26522 4.10536 3.51957 4.29289 3.70711C4.48043 3.89464 4.73478 4 5 4ZM12.71 6.29C12.6149 6.19896 12.5028 6.12759 12.38 6.08C12.2603 6.02709 12.1309 5.99977 12 5.99977C11.8691 5.99977 11.7397 6.02709 11.62 6.08C11.4973 6.12759 11.3851 6.19896 11.29 6.29L7.29 10.29C7.1017 10.4783 6.99591 10.7337 6.99591 11C6.99591 11.2663 7.1017 11.5217 7.29 11.71C7.47831 11.8983 7.7337 12.0041 8 12.0041C8.2663 12.0041 8.5217 11.8983 8.71 11.71L11 9.41L11 21C11 21.2652 11.1054 21.5196 11.2929 21.7071C11.4804 21.8946 11.7348 22 12 22C12.2652 22 12.5196 21.8946 12.7071 21.7071C12.8946 21.5196 13 21.2652 13 21L13 9.41L15.29 11.71C15.3832 11.8032 15.4939 11.8772 15.6158 11.9277C15.7376 11.9781 15.8681 12.0041 16 12.0041C16.1319 12.0041 16.2624 11.9781 16.3843 11.9277C16.5061 11.8772 16.6168 11.8032 16.71 11.71C16.8032 11.6168 16.8772 11.5061 16.9277 11.3842C16.9781 11.2624 17.0041 11.1319 17.0041 11C17.0041 10.8681 16.9781 10.7376 16.9277 10.6158C16.8772 10.4939 16.8032 10.3832 16.71 10.29L12.71 6.29Z" fill="#0891B2"/>
</svg>
